<?xml version="1.0" standalone="no"?><!DOCTYPE svg PUBLIC "-//W3C//DTD SVG 1.1//EN" "http://www.w3.org/Graphics/SVG/1.1/DTD/svg11.dtd" ><svg xmlns="http://www.w3.org/2000/svg"><metadata></metadata><defs><font id="Roboto Medium" horiz-adv-x="2411"><font-face font-family="Roboto Medium" font-weight="500" font-stretch="normal" units-per-em="2048" panose-1="2 0 0 0 0 0 0 0 0 0" ascent="1900" descent="-500" x-height="0" bbox="-1500 -555 2396 2163" underline-thickness="100" underline-position="-150" unicode-range="U+0000-fffd" /><missing-glyph horiz-adv-x="908" d="M808 0 l-708 0 l0 1456 l708 0 l0 -1456 ZM754 84 l0 1287 l-274 -643 l274 -644 ZM154 1359 l0 -1263 l268 632 l-268 631 ZM194 54 l515 0 l-258 606 l-257 -606 ZM451 796 l258 606 l-515 0 l257 -606 Z" /><glyph glyph-name="" unicode="" d="" /><glyph glyph-name="" unicode="" d="" /><glyph glyph-name="" unicode="" d="" /><glyph glyph-name="" unicode=" " d="" /><glyph glyph-name="" unicode="!" d="M382 429 l-209 0 l-23 1027 l256 0 l-24 -1027 ZM143 115 q0 57 37 94.5 q37 37.5 101 37.5 q64 0 101 -37.5 q37 -37.5 37 -94.5 q0 -55 -36 -92 q-36 -37 -102 -37 q-66 0 -102 37 q-36 37 -36 92 Z" /><glyph glyph-name="" unicode="&quot;" d="M275 1399 l-35 -387 l-139 0 l0 524 l174 0 l0 -137 ZM576 1399 l-35 -387 l-139 0 l0 524 l174 0 l0 -137 Z" /><glyph glyph-name="" unicode="#" d="M719 410 l-224 0 l-76 -410 l-168 0 l76 410 l-231 0 l0 158 l261 0 l58 313 l-243 0 l0 159 l273 0 l78 416 l167 0 l-78 -416 l225 0 l78 416 l167 0 l-78 -416 l208 0 l0 -159 l-238 0 l-58 -313 l221 0 l0 -158 l-251 0 l-76 -410 l-167 0 l76 410 ZM525 568 l224 0 l58 313 l-224 0 l-58 -313 Z" /><glyph glyph-name="" unicode="$" d="M819 380 q0 85 -54 140.5 q-54 55.5 -180 100 q-126 44.5 -196 82.5 q-233 125 -233 370 q0 166 101 273 q101 107 274 127 l0 218 l160 0 l0 -220 q174 -25 269 -147.5 q95 -122.5 95 -318.5 l-242 0 q0 126 -56.5 198.5 q-56.5 72.5 -153.5 72.5 q-96 0 -150 -52 q-54 -52 -54 -149 q0 -87 53.5 -139.5 q53.5 -52.5 181.5 -99.5 q128 -47 201 -87 q73 -40 123 -91.5 q50 -51.5 77 -118.5 q27 -67 27 -157 q0 -169 -103.5 -274 q-103.5 -105 -288.5 -124 l0 -195 l-159 0 l0 194 q-198 22 -304.5 142 q-106.5 120 -106.5 318 l243 0 q0 -126 63.5 -195 q63.5 -69 179.5 -69 q114 0 173.5 55 q59.5 55 59.5 146 Z" /><glyph glyph-name="" unicode="%" d="M99 1176 q0 132 85 216.5 q85 84.5 223 84.5 q140 0 224.5 -84.5 q84.5 -84.5 84.5 -221.5 l0 -72 q0 -131 -84.5 -215 q-84.5 -84 -222.5 -84 q-135 0 -222.5 82.5 q-87.5 82.5 -87.5 222.5 l0 71 ZM269 1099 q0 -69 38.5 -111.5 q38.5 -42.5 101.5 -42.5 q62 0 100 42.5 q38 42.5 38 115.5 l0 73 q0 69 -38.5 112 q-38.5 43 -101.5 43 q-63 0 -100.5 -43.5 q-37.5 -43.5 -37.5 -114.5 l0 -74 ZM799 357 q0 134 87 217 q87 83 222 83 q136 0 222.5 -83 q86.5 -83 86.5 -224 l0 -71 q0 -130 -83.5 -214.5 q-83.5 -84.5 -223.5 -84.5 q-140 0 -225.5 83.5 q-85.5 83.5 -85.5 220.5 l0 73 ZM969 279 q0 -68 39.5 -111.5 q39.5 -43.5 101.5 -43.5 q64 0 100.5 41.5 q36.5 41.5 36.5 116.5 l0 75 q0 70 -39 112 q-39 42 -100 42 q-62 0 -100.5 -42 q-38.5 -42 -38.5 -116 l0 -74 ZM459 109 l-125 72 l711 1138 l125 -72 l-711 -1138 Z" /><glyph glyph-name="" unicode="&amp;" d="M86 393 q0 101 55 185.5 q55 84.5 217 200.5 q-85 107 -118.5 182 q-33.5 75 -33.5 145 q0 171 104 270.5 q104 99.5 280 99.5 q159 0 260.5 -93.5 q101.5 -93.5 101.5 -231.5 q0 -91 -46 -167.5 q-46 -76.5 -151 -152.5 l-99 -72 l281 -332 q61 120 61 267 l211 0 q0 -269 -126 -441 l214 -253 l-282 0 l-82 97 q-156 -117 -372 -117 q-216 0 -345.5 114.5 q-129.5 114.5 -129.5 298.5 ZM568 174 q123 0 230 82 l-318 375 l-31 -22 q-120 -91 -120 -208 q0 -101 65 -164 q65 -63 174 -63 ZM434 1112 q0 -84 103 -211 l111 76 l31 25 q62 55 62 141 q0 57 -43 97.5 q-43 40.5 -109 40.5 q-71 0 -113 -48 q-42 -48 -42 -121 Z" /><glyph glyph-name="" unicode="&#39;" d="M267 1411 l-26 -391 l-159 0 l0 516 l185 0 l0 -125 Z" /><glyph glyph-name="" unicode="(" d="M128 592 q0 231 62 438.5 q62 207.5 182 371 q120 163.5 254 229.5 l48 -142 q-141 -107 -228.5 -326.5 q-87.5 -219.5 -95.5 -502.5 l-1 -86 q0 -303 85.5 -540.5 q85.5 -237.5 239.5 -361.5 l-48 -135 q-134 66 -254.5 230.5 q-120.5 164.5 -182 371 q-61.5 206.5 -61.5 453.5 Z" /><glyph glyph-name="" unicode=")" d="M593 576 q0 -222 -61 -428.5 q-61 -206.5 -185 -376 q-124 -169.5 -259 -234.5 l-48 135 q150 116 237.5 354.5 q87.5 238.5 87.5 544.5 l0 23 q0 278 -76 506.5 q-76 228.5 -218 366.5 l-31 28 l48 136 q128 -62 248 -220 q120 -158 184 -353.5 q64 -195.5 72 -403.5 l1 -78 Z" /><glyph glyph-name="" unicode="*" d="M332 972 l-305 88 l55 169 l302 -117 l-15 344 l179 0 l-15 -350 l297 115 l54 -172 l-310 -88 l200 -266 l-145 -106 l-180 288 l-178 -279 l-146 102 l207 272 Z" /><glyph glyph-name="" unicode="+" d="M686 801 l380 0 l0 -222 l-380 0 l0 -433 l-236 0 l0 433 l-382 0 l0 222 l382 0 l0 405 l236 0 l0 -405 Z" /><glyph glyph-name="" unicode="," d="M159 -328 l-131 78 q58 91 79.5 158.5 q21.5 67.5 22.5 137.5 l0 189 l219 0 l-1 -175 q-1 -106 -53.5 -212.5 q-52.5 -106.5 -135.5 -175.5 Z" /><glyph glyph-name="" unicode="-" d="M596 521 l-525 0 l0 196 l525 0 l0 -196 Z" /><glyph glyph-name="" unicode="." d="M276 256 q68 0 105 -38.5 q37 -38.5 37 -96.5 q0 -57 -37 -94.5 q-37 -37.5 -105 -37.5 q-65 0 -103 37 q-38 37 -38 95 q0 58 37 96.5 q37 38.5 104 38.5 Z" /><glyph glyph-name="" unicode="/" d="M193 -125 l-191 0 l573 1581 l191 0 l-573 -1581 Z" /><glyph glyph-name="" unicode="0" d="M1058 613 q0 -314 -117.5 -473.5 q-117.5 -159.5 -357.5 -159.5 q-236 0 -355.5 155.5 q-119.5 155.5 -122.5 460.5 l0 252 q0 314 117.5 471 q117.5 157 358.5 157 q239 0 356.5 -153 q117.5 -153 120.5 -458 l0 -252 ZM815 885 q0 205 -56 300.5 q-56 95.5 -178 95.5 q-119 0 -175 -90.5 q-56 -90.5 -59 -282.5 l0 -330 q0 -204 57 -304 q57 -100 179 -100 q117 0 173 92.5 q56 92.5 59 289.5 l0 329 Z" /><glyph glyph-name="" unicode="1" d="M767 0 l-242 0 l0 1169 l-357 -122 l0 205 l568 209 l31 0 l0 -1461 Z" /><glyph glyph-name="" unicode="2" d="M1088 0 l-979 0 l0 167 l485 529 q105 117 149.5 195.5 q44.5 78.5 44.5 157.5 q0 104 -58.5 168 q-58.5 64 -157.5 64 q-118 0 -183 -72 q-65 -72 -65 -197 l-243 0 q0 133 60.5 239.5 q60.5 106.5 173 165.5 q112.5 59 259.5 59 q212 0 334.5 -106.5 q122.5 -106.5 122.5 -294.5 q0 -109 -61.5 -228.5 q-61.5 -119.5 -201.5 -271.5 l-356 -381 l676 0 l0 -194 Z" /><glyph glyph-name="" unicode="3" d="M390 839 l148 0 q112 1 177.5 58 q65.5 57 65.5 165 q0 104 -54.5 161.5 q-54.5 57.5 -166.5 57.5 q-98 0 -161 -56.5 q-63 -56.5 -63 -147.5 l-243 0 q0 112 59.5 204 q59.5 92 166 143.5 q106.5 51.5 238.5 51.5 q218 0 342.5 -109.5 q124.5 -109.5 124.5 -304.5 q0 -98 -62.5 -184.5 q-62.5 -86.5 -161.5 -130.5 q120 -41 182.5 -129 q62.5 -88 62.5 -210 q0 -196 -134.5 -312 q-134.5 -116 -353.5 -116 q-210 0 -344 112 q-134 112 -134 298 l243 0 q0 -96 64.5 -156 q64.5 -60 173.5 -60 q113 0 178 60 q65 60 65 174 q0 115 -68 177 q-68 62 -202 62 l-143 0 l0 192 Z" /><glyph glyph-name="" unicode="4" d="M931 519 l181 0 l0 -195 l-181 0 l0 -324 l-243 0 l0 324 l-629 0 l-7 148 l628 984 l251 0 l0 -937 ZM307 519 l381 0 l0 608 l-18 -32 l-363 -576 Z" /><glyph glyph-name="" unicode="5" d="M174 722 l79 734 l782 0 l0 -210 l-580 0 l-40 -348 q101 58 228 58 q208 0 323.5 -133 q115.5 -133 115.5 -358 q0 -222 -128 -353.5 q-128 -131.5 -351 -131.5 q-200 0 -331.5 113.5 q-131.5 113.5 -142.5 299.5 l235 0 q14 -106 76 -162.5 q62 -56.5 162 -56.5 q112 0 174.5 80 q62.5 80 62.5 218 q0 133 -69 210.5 q-69 77.5 -190 77.5 q-66 0 -112 -17.5 q-46 -17.5 -100 -68.5 l-194 48 Z" /><glyph glyph-name="" unicode="6" d="M865 1463 l0 -201 l-30 0 q-204 -3 -326 -112 q-122 -109 -145 -309 q117 123 299 123 q193 0 304.5 -136 q111.5 -136 111.5 -351 q0 -222 -130.5 -359.5 q-130.5 -137.5 -342.5 -137.5 q-218 0 -353.5 161 q-135.5 161 -135.5 422 l0 83 q0 383 186.5 600 q186.5 217 536.5 217 l25 0 ZM604 768 q-80 0 -146.5 -45 q-66.5 -45 -97.5 -120 l0 -74 q0 -162 68 -257.5 q68 -95.5 176 -95.5 q108 0 171 81 q63 81 63 213 q0 132 -64 215 q-64 83 -170 83 Z" /><glyph glyph-name="" unicode="7" d="M1078 1321 l-582 -1321 l-255 0 l581 1261 l-753 0 l0 195 l1009 0 l0 -135 Z" /><glyph glyph-name="" unicode="8" d="M1026 1072 q0 -107 -55 -190.5 q-55 -83.5 -150 -131.5 q114 -53 175.5 -145 q61.5 -92 61.5 -208 q0 -192 -130 -304.5 q-130 -112.5 -346 -112.5 q-217 0 -347.5 113 q-130.5 113 -130.5 304 q0 117 62 210 q62 93 174 143 q-94 48 -148.5 131.5 q-54.5 83.5 -54.5 190.5 q0 186 120 295 q120 109 324 109 q205 0 325 -109 q120 -109 120 -295 ZM815 409 q0 108 -64.5 174.5 q-64.5 66.5 -170.5 66.5 q-106 0 -169.5 -66 q-63.5 -66 -63.5 -175 q0 -107 62.5 -171 q62.5 -64 172.5 -64 q110 0 171.5 62 q61.5 62 61.5 173 ZM784 1063 q0 95 -55 156.5 q-55 61.5 -148 61.5 q-93 0 -147 -58.5 q-54 -58.5 -54 -159.5 q0 -100 54.5 -159 q54.5 -59 147.5 -59 q93 0 147.5 59 q54.5 59 54.5 159 Z" /><glyph glyph-name="" unicode="9" d="M798 609 q-122 -129 -285 -129 q-192 0 -306 134.5 q-114 134.5 -114 353.5 q0 144 58 261 q58 117 165 182 q107 65 248 65 q220 0 349 -164 q129 -164 129 -439 l0 -68 q0 -394 -178 -601 q-178 -207 -531 -210 l-29 0 l0 201 l35 0 q215 3 330 103.5 q115 100.5 129 310.5 ZM564 670 q73 0 137 42 q64 42 99 116 l0 95 q0 161 -66 259 q-66 98 -171 98 q-105 0 -167.5 -86.5 q-62.5 -86.5 -62.5 -218.5 q0 -137 63 -221 q63 -84 168 -84 Z" /><glyph glyph-name="" unicode="&lt;" d="M310 631 l590 -224 l0 -243 l-837 373 l0 193 l837 372 l0 -243 l-590 -228 Z" /><glyph glyph-name="" unicode="=" d="M1007 780 l-862 0 l0 202 l862 0 l0 -202 ZM1007 356 l-862 0 l0 201 l862 0 l0 -201 Z" /><glyph glyph-name="" unicode="&gt;" d="M746 636 l-618 227 l0 239 l864 -372 l0 -193 l-864 -372 l0 239 l618 232 Z" /><glyph glyph-name="" unicode="?" d="M350 428 q0 133 33 212 q33 79 130.5 173.5 q97.5 94.5 123.5 134.5 q40 61 40 132 q0 94 -46.5 143.5 q-46.5 49.5 -136.5 49.5 q-86 0 -138.5 -48.5 q-52.5 -48.5 -52.5 -131.5 l-243 0 q2 177 120.5 280 q118.5 103 313.5 103 q201 0 313.5 -102 q112.5 -102 112.5 -285 q0 -163 -152 -321 l-123 -121 q-66 -75 -68 -219 l-227 0 ZM333 117 q0 59 37 95.5 q37 36.5 100 36.5 q64 0 101 -37.5 q37 -37.5 37 -94.5 q0 -55 -36 -92 q-36 -37 -102 -37 q-66 0 -101.5 37 q-35.5 37 -35.5 92 Z" /><glyph glyph-name="" unicode="@" d="M1741 518 q-12 -250 -123 -394.5 q-111 -144.5 -301 -144.5 q-181 0 -242 154 q-51 -76 -118.5 -114 q-67.5 -38 -141.5 -38 q-146 0 -221.5 120 q-75.5 120 -57.5 321 q16 163 79.5 294 q63.5 131 161 202.5 q97.5 71.5 207.5 71.5 q84 0 148.5 -21 q64.5 -21 151.5 -87 l-52 -563 q-19 -198 114 -198 q102 0 167.5 109.5 q65.5 109.5 71.5 283.5 q17 369 -142.5 565 q-159.5 196 -479.5 196 q-196 0 -347.5 -98 q-151.5 -98 -240.5 -283.5 q-89 -185.5 -98 -422.5 q-12 -241 57.5 -415.5 q69.5 -174.5 213 -265.5 q143.5 -91 350.5 -91 q84 0 175.5 20 q91.5 20 155.5 54 l38 -137 q-61 -40 -164.5 -64.5 q-103.5 -24.5 -208.5 -24.5 q-254 0 -436 107.5 q-182 107.5 -273 311.5 q-94 211 -83 505 q12 274 123 492.5 q111 218.5 303.5 339.5 q192.5 121 438.5 121 q249 0 428.5 -109.5 q179.5 -109.5 268.5 -315 q89 -205.5 77 -481.5 ZM732 422 q-13 -136 24 -206.5 q37 -70.5 118 -70.5 q54 0 102 47.5 q48 47.5 78 130.5 l45 493 q-50 19 -97 19 q-111 0 -181 -104.5 q-70 -104.5 -89 -308.5 Z" /><glyph glyph-name="" unicode="a" d="M963 339 l-564 0 l-118 -339 l-263 0 l550 1456 l227 0 l551 -1456 l-264 0 l-119 339 ZM470 543 l422 0 l-211 604 l-211 -604 Z" /><glyph glyph-name="" unicode="b" d="M148 0 l0 1456 l499 0 q247 0 376 -99 q129 -99 129 -295 q0 -100 -54 -180 q-54 -80 -158 -124 q118 -32 182.5 -120.5 q64.5 -88.5 64.5 -212.5 q0 -205 -131.5 -315 q-131.5 -110 -376.5 -110 l-531 0 ZM401 657 l0 -455 l281 0 q119 0 186 59 q67 59 67 164 q0 227 -232 232 l-302 0 ZM401 843 l248 0 q118 0 184.5 53.5 q66.5 53.5 66.5 151.5 q0 108 -61.5 156 q-61.5 48 -191.5 48 l-246 0 l0 -409 Z" /><glyph glyph-name="" unicode="c" d="M1259 474 q-22 -233 -172 -363.5 q-150 -130.5 -399 -130.5 q-174 0 -306.5 82.5 q-132.5 82.5 -204.5 234.5 q-72 152 -75 353 l0 136 q0 206 73 363 q73 157 209.5 242 q136.5 85 315.5 85 q241 0 388 -131 q147 -131 171 -370 l-252 0 q-18 157 -91.5 226.5 q-73.5 69.5 -215.5 69.5 q-165 0 -253.5 -120.5 q-88.5 -120.5 -90.5 -353.5 l0 -129 q0 -236 84.5 -360 q84.5 -124 247.5 -124 q149 0 224 67 q75 67 95 223 l252 0 Z" /><glyph glyph-name="" unicode="d" d="M148 0 l0 1456 l430 0 q193 0 342.5 -86 q149.5 -86 231.5 -244 q82 -158 82 -362 l0 -73 q0 -207 -82.5 -364 q-82.5 -157 -235 -242 q-152.5 -85 -349.5 -85 l-419 0 ZM401 1252 l0 -1050 l165 0 q199 0 305.5 124.5 q106.5 124.5 108.5 357.5 l0 81 q0 237 -103 362 q-103 125 -299 125 l-177 0 Z" /><glyph glyph-name="" unicode="e" d="M999 650 l-598 0 l0 -448 l699 0 l0 -202 l-952 0 l0 1456 l945 0 l0 -204 l-692 0 l0 -402 l598 0 l0 -200 Z" /><glyph glyph-name="" unicode="f" d="M987 617 l-586 0 l0 -617 l-253 0 l0 1456 l925 0 l0 -204 l-672 0 l0 -433 l586 0 l0 -202 Z" /><glyph glyph-name="" unicode="g" d="M1264 189 q-79 -103 -219 -156 q-140 -53 -318 -53 q-183 0 -324 83 q-141 83 -217.5 237.5 q-76.5 154.5 -79.5 360.5 l0 114 q0 330 158 515.5 q158 185.5 441 185.5 q243 0 386 -120 q143 -120 172 -346 l-248 0 q-42 263 -305 263 q-170 0 -258.5 -122.5 q-88.5 -122.5 -91.5 -359.5 l0 -112 q0 -236 99.5 -366.5 q99.5 -130.5 276.5 -130.5 q194 0 276 88 l0 285 l-300 0 l0 192 l552 0 l0 -558 Z" /><glyph glyph-name="" unicode="h" d="M1304 0 l-252 0 l0 647 l-651 0 l0 -647 l-253 0 l0 1456 l253 0 l0 -606 l651 0 l0 606 l252 0 l0 -1456 Z" /><glyph glyph-name="" unicode="i" d="M415 0 l-252 0 l0 1456 l252 0 l0 -1456 Z" /><glyph glyph-name="" unicode="j" d="M744 1456 l252 0 l0 -1021 q0 -209 -130.5 -332 q-130.5 -123 -344.5 -123 q-228 0 -352 115 q-124 115 -124 320 l252 0 q0 -116 57.5 -174.5 q57.5 -58.5 166.5 -58.5 q102 0 162.5 67.5 q60.5 67.5 60.5 186.5 l0 1020 Z" /><glyph glyph-name="" unicode="k" d="M566 629 l-165 -175 l0 -454 l-253 0 l0 1456 l253 0 l0 -683 l140 173 l426 510 l306 0 l-541 -645 l572 -811 l-300 0 l-438 629 Z" /><glyph glyph-name="" unicode="l" d="M401 202 l661 0 l0 -202 l-914 0 l0 1456 l253 0 l0 -1254 Z" /><glyph glyph-name="" unicode="m" d="M476 1456 l420 -1116 l419 1116 l327 0 l0 -1456 l-252 0 l0 480 l25 642 l-430 -1122 l-181 0 l-429 1121 l25 -641 l0 -480 l-252 0 l0 1456 l328 0 Z" /><glyph glyph-name="" unicode="n" d="M1303 0 l-253 0 l-649 1033 l0 -1033 l-253 0 l0 1456 l253 0 l651 -1037 l0 1037 l251 0 l0 -1456 Z" /><glyph glyph-name="" unicode="o" d="M1310 690 q0 -214 -74 -375.5 q-74 -161.5 -211.5 -248 q-137.5 -86.5 -316.5 -86.5 q-177 0 -315.5 86.5 q-138.5 86.5 -214 246.5 q-75.5 160 -76.5 369 l0 82 q0 213 75.5 376 q75.5 163 213 249.5 q137.5 86.5 315.5 86.5 q178 0 315.5 -85.5 q137.5 -85.5 212.5 -246 q75 -160.5 76 -373.5 l0 -81 ZM1057 766 q0 242 -91.5 371 q-91.5 129 -259.5 129 q-164 0 -256.5 -128.5 q-92.5 -128.5 -94.5 -363.5 l0 -84 q0 -240 93.5 -371 q93.5 -131 259.5 -131 q168 0 258.5 128 q90.5 128 90.5 374 l0 76 Z" /><glyph glyph-name="" unicode="p" d="M401 541 l0 -541 l-253 0 l0 1456 l557 0 q244 0 387.5 -127 q143.5 -127 143.5 -336 q0 -214 -140.5 -333 q-140.5 -119 -393.5 -119 l-301 0 ZM401 744 l304 0 q135 0 206 63.5 q71 63.5 71 183.5 q0 118 -72 188.5 q-72 70.5 -198 72.5 l-311 0 l0 -508 Z" /><glyph glyph-name="" unicode="q" d="M1305 690 q0 -207 -65.5 -358.5 q-65.5 -151.5 -183.5 -240.5 l250 -195 l-164 -148 l-310 245 q-61 -13 -131 -13 q-176 0 -314.5 86.5 q-138.5 86.5 -214 246.5 q-75.5 160 -76.5 369 l0 82 q0 213 75.5 376 q75.5 163 213 249.5 q137.5 86.5 314.5 86.5 q180 0 317.5 -85.5 q137.5 -85.5 212.5 -246 q75 -160.5 76 -373.5 l0 -81 ZM1051 766 q0 246 -92 373 q-92 127 -260 127 q-163 0 -255.5 -128.5 q-92.5 -128.5 -94.5 -362.5 l0 -85 q0 -236 92.5 -369 q92.5 -133 259.5 -133 q169 0 259.5 128 q90.5 128 90.5 374 l0 76 Z" /><glyph glyph-name="" unicode="r" d="M683 561 l-282 0 l0 -561 l-253 0 l0 1456 l512 0 q252 0 389 -113 q137 -113 137 -327 q0 -146 -70.5 -244.5 q-70.5 -98.5 -196.5 -151.5 l327 -607 l0 -13 l-271 0 l-292 561 ZM401 764 l260 0 q128 0 200 64.5 q72 64.5 72 176.5 q0 117 -66.5 181 q-66.5 64 -198.5 66 l-267 0 l0 -488 Z" /><glyph glyph-name="" unicode="s" d="M909 375 q0 96 -67.5 148 q-67.5 52 -243.5 105 q-176 53 -280 118 q-199 125 -199 326 q0 176 143.5 290 q143.5 114 372.5 114 q152 0 271 -56 q119 -56 187 -159.5 q68 -103.5 68 -229.5 l-252 0 q0 114 -71.5 178.5 q-71.5 64.5 -204.5 64.5 q-124 0 -192.5 -53 q-68.5 -53 -68.5 -148 q0 -80 74 -133.5 q74 -53.5 244 -104 q170 -50.5 273 -115 q103 -64.5 151 -148 q48 -83.5 48 -195.5 q0 -182 -139.5 -289.5 q-139.5 -107.5 -378.5 -107.5 q-158 0 -290.5 58.5 q-132.5 58.5 -206 161.5 q-73.5 103 -73.5 240 l253 0 q0 -124 82 -192 q82 -68 235 -68 q132 0 198.5 53.5 q66.5 53.5 66.5 141.5 Z" /><glyph glyph-name="" unicode="t" d="M1200 1252 l-454 0 l0 -1252 l-251 0 l0 1252 l-450 0 l0 204 l1155 0 l0 -204 Z" /><glyph glyph-name="" unicode="u" d="M1213 1456 l0 -973 q0 -232 -148.5 -367.5 q-148.5 -135.5 -395.5 -135.5 q-250 0 -397 133.5 q-147 133.5 -147 370.5 l0 972 l252 0 l0 -974 q0 -146 74 -223 q74 -77 218 -77 q292 0 292 308 l0 966 l252 0 Z" /><glyph glyph-name="" unicode="v" d="M661 317 l370 1139 l278 0 l-524 -1456 l-245 0 l-522 1456 l277 0 l366 -1139 Z" /><glyph glyph-name="" unicode="w" d="M1290 360 l224 1096 l251 0 l-336 -1456 l-242 0 l-277 1063 l-283 -1063 l-243 0 l-336 1456 l251 0 l226 -1094 l278 1094 l212 0 l275 -1096 Z" /><glyph glyph-name="" unicode="x" d="M649 930 l306 526 l292 0 l-440 -722 l450 -734 l-295 0 l-313 534 l-314 -534 l-294 0 l451 734 l-441 722 l292 0 l306 -526 Z" /><glyph glyph-name="" unicode="y" d="M623 766 l335 690 l280 0 l-488 -920 l0 -536 l-254 0 l0 536 l-489 920 l281 0 l335 -690 Z" /><glyph glyph-name="" unicode="z" d="M386 202 l778 0 l0 -202 l-1084 0 l0 164 l753 1088 l-748 0 l0 204 l1055 0 l0 -160 l-754 -1094 Z" /><glyph glyph-name="" unicode="[" d="M540 1488 l-165 0 l0 -1623 l165 0 l0 -189 l-408 0 l0 2002 l408 0 l0 -190 Z" /><glyph glyph-name="" unicode="\" d="M20 1456 l240 0 l608 -1581 l-240 0 l-608 1581 Z" /><glyph glyph-name="" unicode="]" d="M12 1678 l410 0 l0 -2002 l-410 0 l0 189 l167 0 l0 1623 l-167 0 l0 190 Z" /><glyph glyph-name="" unicode="^" d="M437 1190 l-178 -461 l-206 0 l299 727 l171 0 l298 -727 l-205 0 l-179 461 Z" /><glyph glyph-name="" unicode="_" d="M920 -191 l-917 0 l0 191 l917 0 l0 -191 Z" /><glyph glyph-name="" unicode="`" d="M521 1233 l-202 0 l-270 303 l277 0 l195 -303 Z" /><glyph glyph-name="" unicode="a" d="M771 0 q-16 31 -28 101 q-116 -121 -284 -121 q-163 0 -266 93 q-103 93 -103 230 q0 173 128.5 265.5 q128.5 92.5 367.5 92.5 l149 0 l0 71 q0 84 -47 134.5 q-47 50.5 -143 50.5 q-83 0 -136 -41.5 q-53 -41.5 -53 -105.5 l-243 0 q0 89 59 166.5 q59 77.5 160.5 121.5 q101.5 44 226.5 44 q190 0 303 -95.5 q113 -95.5 116 -268.5 l0 -488 q0 -146 41 -233 l0 -17 l-248 0 ZM504 175 q72 0 135.5 35 q63.5 35 95.5 94 l0 204 l-131 0 q-135 0 -203 -47 q-68 -47 -68 -133 q0 -70 46.5 -111.5 q46.5 -41.5 124.5 -41.5 Z" /><glyph glyph-name="" unicode="b" d="M1074 530 q0 -252 -112.5 -401 q-112.5 -149 -309.5 -149 q-190 0 -296 137 l-12 -117 l-220 0 l0 1536 l243 0 l0 -558 q105 124 283 124 q198 0 311 -147 q113 -147 113 -411 l0 -14 ZM831 551 q0 176 -62 264 q-62 88 -180 88 q-158 0 -222 -138 l0 -446 q65 -141 224 -141 q114 0 176 85 q62 85 64 257 l0 31 Z" /><glyph glyph-name="" unicode="c" d="M569 174 q91 0 151 53 q60 53 64 131 l229 0 q-4 -101 -63 -188.5 q-59 -87.5 -160 -138.5 q-101 -51 -218 -51 q-227 0 -360 147 q-133 147 -133 406 l0 25 q0 247 132 395.5 q132 148.5 360 148.5 q193 0 314.5 -112.5 q121.5 -112.5 127.5 -295.5 l-229 0 q-4 93 -63.5 153 q-59.5 60 -151.5 60 q-118 0 -182 -85.5 q-64 -85.5 -65 -259.5 l0 -39 q0 -176 63.5 -262.5 q63.5 -86.5 183.5 -86.5 Z" /><glyph glyph-name="" unicode="d" d="M79 549 q0 250 116 401.5 q116 151.5 311 151.5 q172 0 278 -120 l0 554 l243 0 l0 -1536 l-220 0 l-12 112 q-109 -132 -291 -132 q-190 0 -307.5 153 q-117.5 153 -117.5 416 ZM322 528 q0 -165 63.5 -257.5 q63.5 -92.5 180.5 -92.5 q149 0 218 133 l0 462 q-67 130 -216 130 q-118 0 -182 -93.5 q-64 -93.5 -64 -281.5 Z" /><glyph glyph-name="" unicode="e" d="M601 -20 q-231 0 -374.5 145.5 q-143.5 145.5 -143.5 387.5 l0 30 q0 162 62.5 289.5 q62.5 127.5 175.5 198.5 q113 71 252 71 q221 0 341.5 -141 q120.5 -141 120.5 -399 l0 -98 l-707 0 q11 -134 89.5 -212 q78.5 -78 197.5 -78 q167 0 272 135 l131 -125 q-65 -97 -173.5 -150.5 q-108.5 -53.5 -243.5 -53.5 ZM572 907 q-100 0 -161.5 -70 q-61.5 -70 -78.5 -195 l463 0 l0 18 q-8 122 -65 184.5 q-57 62.5 -158 62.5 Z" /><glyph glyph-name="" unicode="f" d="M210 0 l0 902 l-165 0 l0 180 l165 0 l0 99 q0 180 100 278 q100 98 280 98 q64 0 136 -18 l-6 -190 q-40 8 -93 8 q-174 0 -174 -179 l0 -96 l220 0 l0 -180 l-220 0 l0 -902 l-243 0 Z" /><glyph glyph-name="" unicode="g" d="M82 549 q0 252 118.5 402.5 q118.5 150.5 314.5 150.5 q185 0 291 -129 l11 109 l219 0 l0 -1049 q0 -213 -132.5 -336 q-132.5 -123 -357.5 -123 q-119 0 -232.5 49.5 q-113.5 49.5 -172.5 129.5 l115 146 q112 -133 276 -133 q121 0 191 65.5 q70 65.5 70 192.5 l0 73 q-105 -117 -280 -117 q-190 0 -310.5 151 q-120.5 151 -120.5 418 ZM324 528 q0 -163 66.5 -256.5 q66.5 -93.5 184.5 -93.5 q147 0 218 126 l0 476 q-69 123 -216 123 q-120 0 -186.5 -95 q-66.5 -95 -66.5 -280 Z" /><glyph glyph-name="" unicode="h" d="M364 964 q119 138 301 138 q346 0 351 -395 l0 -707 l-243 0 l0 698 q0 112 -48.5 158.5 q-48.5 46.5 -142.5 46.5 q-146 0 -218 -130 l0 -773 l-243 0 l0 1536 l243 0 l0 -572 Z" /><glyph glyph-name="" unicode="i" d="M383 0 l-243 0 l0 1082 l243 0 l0 -1082 ZM125 1363 q0 56 35.5 93 q35.5 37 101.5 37 q66 0 102 -37 q36 -37 36 -93 q0 -55 -36 -91.5 q-36 -36.5 -102 -36.5 q-66 0 -101.5 36.5 q-35.5 36.5 -35.5 91.5 Z" /><glyph glyph-name="" unicode="j" d="M378 1082 l0 -1178 q0 -166 -82.5 -253.5 q-82.5 -87.5 -241.5 -87.5 q-67 0 -129 17 l0 192 q38 -9 86 -9 q121 0 124 132 l0 1187 l243 0 ZM114 1363 q0 56 35.5 93 q35.5 37 101.5 37 q66 0 102 -37 q36 -37 36 -93 q0 -55 -36 -91.5 q-36 -36.5 -102 -36.5 q-66 0 -101.5 36.5 q-35.5 36.5 -35.5 91.5 Z" /><glyph glyph-name="" unicode="k" d="M476 464 l-108 -111 l0 -353 l-243 0 l0 1536 l243 0 l0 -886 l76 95 l299 337 l292 0 l-402 -451 l445 -631 l-281 0 l-321 464 Z" /><glyph glyph-name="" unicode="l" d="M383 0 l-243 0 l0 1536 l243 0 l0 -1536 Z" /><glyph glyph-name="" unicode="m" d="M353 1082 l7 -113 q114 133 312 133 q217 0 297 -166 q118 166 332 166 q179 0 266.5 -99 q87.5 -99 89.5 -292 l0 -711 l-243 0 l0 704 q0 103 -45 151 q-45 48 -149 48 q-83 0 -135.5 -44.5 q-52.5 -44.5 -73.5 -116.5 l1 -742 l-243 0 l0 712 q-5 191 -195 191 q-146 0 -207 -119 l0 -784 l-243 0 l0 1082 l229 0 Z" /><glyph glyph-name="" unicode="n" d="M350 1082 l7 -125 q120 145 315 145 q338 0 344 -387 l0 -715 l-243 0 l0 701 q0 103 -44.5 152.5 q-44.5 49.5 -145.5 49.5 q-147 0 -219 -133 l0 -770 l-243 0 l0 1082 l229 0 Z" /><glyph glyph-name="" unicode="o" d="M79 551 q0 159 63 286.5 q63 127.5 177 196 q114 68.5 262 68.5 q219 0 355.5 -141 q136.5 -141 147.5 -374 l1 -57 q0 -160 -61.5 -286 q-61.5 -126 -176 -195 q-114.5 -69 -264.5 -69 q-229 0 -366.5 152.5 q-137.5 152.5 -137.5 406.5 l0 12 ZM322 530 q0 -167 69 -261.5 q69 -94.5 192 -94.5 q123 0 191.5 96 q68.5 96 68.5 281 q0 164 -70.5 260 q-70.5 96 -191.5 96 q-119 0 -189 -94.5 q-70 -94.5 -70 -282.5 Z" /><glyph glyph-name="" unicode="p" d="M1072 530 q0 -251 -114 -400.5 q-114 -149.5 -306 -149.5 q-178 0 -285 117 l0 -513 l-243 0 l0 1498 l224 0 l10 -110 q107 130 291 130 q198 0 310.5 -147.5 q112.5 -147.5 112.5 -409.5 l0 -15 ZM830 551 q0 162 -64.5 257 q-64.5 95 -184.5 95 q-149 0 -214 -123 l0 -480 q66 -126 216 -126 q116 0 181.5 93.5 q65.5 93.5 65.5 283.5 Z" /><glyph glyph-name="" unicode="q" d="M79 550 q0 254 116 403 q116 149 314 149 q181 0 287 -127 l14 107 l216 0 l0 -1498 l-243 0 l0 508 q-106 -112 -276 -112 q-194 0 -311 151.5 q-117 151.5 -117 418.5 ZM322 529 q0 -166 65.5 -260.5 q65.5 -94.5 181.5 -94.5 q144 0 214 123 l0 492 q-70 118 -212 118 q-116 0 -182.5 -93 q-66.5 -93 -66.5 -285 Z" /><glyph glyph-name="" unicode="r" d="M691 860 q-48 8 -99 8 q-167 0 -225 -128 l0 -740 l-243 0 l0 1082 l232 0 l6 -121 q88 141 244 141 q52 0 86 -14 l-1 -228 Z" /><glyph glyph-name="" unicode="s" d="M731 294 q0 65 -53.5 99 q-53.5 34 -177.5 60 q-124 26 -207 66 q-182 88 -182 255 q0 140 118 234 q118 94 300 94 q194 0 313.5 -96 q119.5 -96 119.5 -249 l-243 0 q0 70 -52 116.5 q-52 46.5 -138 46.5 q-80 0 -130.5 -37 q-50.5 -37 -50.5 -99 q0 -56 47 -87 q47 -31 190 -62.5 q143 -31.5 224.5 -75 q81.5 -43.5 121 -104.5 q39.5 -61 39.5 -148 q0 -146 -121 -236.5 q-121 -90.5 -317 -90.5 q-133 0 -237 48 q-104 48 -162 132 q-58 84 -58 181 l236 0 q5 -86 65 -132.5 q60 -46.5 159 -46.5 q96 0 146 36.5 q50 36.5 50 95.5 Z" /><glyph glyph-name="" unicode="t" d="M429 1345 l0 -263 l191 0 l0 -180 l-191 0 l0 -604 q0 -62 24.5 -89.5 q24.5 -27.5 87.5 -27.5 q42 0 85 10 l0 -188 q-83 -23 -160 -23 q-280 0 -280 309 l0 613 l-178 0 l0 180 l178 0 l0 263 l243 0 Z" /><glyph glyph-name="" unicode="u" d="M780 106 q-107 -126 -304 -126 q-176 0 -266.5 103 q-90.5 103 -90.5 298 l0 701 l243 0 l0 -698 q0 -206 171 -206 q177 0 239 127 l0 777 l243 0 l0 -1082 l-229 0 l-6 106 Z" /><glyph glyph-name="" unicode="v" d="M506 308 l229 774 l251 0 l-375 -1082 l-211 0 l-378 1082 l252 0 l232 -774 Z" /><glyph glyph-name="" unicode="w" d="M1075 335 l172 747 l237 0 l-295 -1082 l-200 0 l-232 743 l-228 -743 l-200 0 l-296 1082 l237 0 l175 -739 l222 739 l183 0 l225 -747 Z" /><glyph glyph-name="" unicode="x" d="M513 726 l206 356 l270 0 l-331 -533 l342 -549 l-268 0 l-216 370 l-215 -370 l-270 0 l342 549 l-330 533 l268 0 l202 -356 Z" /><glyph glyph-name="" unicode="y" d="M503 348 l220 734 l259 0 l-430 -1246 q-99 -273 -336 -273 q-53 0 -117 18 l0 188 l46 -3 q92 0 138.5 33.5 q46.5 33.5 73.5 112.5 l35 93 l-380 1077 l262 0 l229 -734 Z" /><glyph glyph-name="" unicode="z" d="M384 194 l576 0 l0 -194 l-878 0 l0 159 l549 727 l-539 0 l0 196 l847 0 l0 -154 l-555 -734 Z" /><glyph glyph-name="" unicode="{" d="M609 -360 q-353 99 -360 451 l0 213 q0 225 -193 225 l0 178 q193 0 193 226 l0 212 q3 180 93.5 291 q90.5 111 266.5 161 l48 -140 q-173 -56 -179 -306 l0 -216 q0 -225 -173 -316 q173 -92 173 -319 l0 -213 q6 -250 179 -306 l-48 -141 Z" /><glyph glyph-name="" unicode="|" d="M341 -270 l-167 0 l0 1726 l167 0 l0 -1726 Z" /><glyph glyph-name="" unicode="}" d="M27 -219 q176 57 180 312 l0 208 q0 231 182 317 q-182 86 -182 320 l0 207 q-4 255 -180 312 l48 140 q182 -51 271 -165.5 q89 -114.5 89 -299.5 l0 -200 q0 -225 194 -225 l0 -178 q-194 0 -194 -225 l0 -197 q0 -187 -89.5 -301.5 q-89.5 -114.5 -270.5 -165.5 l-48 141 Z" /><glyph glyph-name="" unicode="~" d="M1244 786 q0 -176 -95 -287.5 q-95 -111.5 -237 -111.5 q-74 0 -136.5 28 q-62.5 28 -139.5 96.5 q-77 68.5 -110.5 85 q-33.5 16.5 -71.5 16.5 q-67 0 -105.5 -52 q-38.5 -52 -38.5 -136 l-193 0 q0 171 91 280.5 q91 109.5 239 109.5 q74 0 140.5 -29.5 q66.5 -29.5 139 -95.5 q72.5 -66 106 -83 q33.5 -17 72.5 -17 q67 0 109 56 q42 56 42 140 l188 0 Z" /><glyph glyph-name="" unicode="¡" d="M170 662 l209 0 l24 -1026 l-257 0 l24 1026 ZM409 971 q0 -56 -36 -93.5 q-36 -37.5 -101 -37.5 q-66 0 -102 37.5 q-36 37.5 -36 93.5 q0 55 36 92.5 q36 37.5 102 37.5 q65 0 101 -37.5 q36 -37.5 36 -92.5 Z" /><glyph glyph-name="" unicode="¢" d="M591 174 q89 0 149 52 q60 52 66 132 l228 0 q-4 -136 -102.5 -238.5 q-98.5 -102.5 -244.5 -130.5 l0 -234 l-200 0 l0 234 q-183 34 -285 177.5 q-102 143.5 -102 363.5 l0 28 q0 213 102 357 q102 144 285 178 l0 225 l200 0 l0 -224 q158 -28 250.5 -136 q92.5 -108 96.5 -264 l-228 0 q-7 96 -66 154.5 q-59 58.5 -150 58.5 q-230 0 -246 -312 l-1 -72 q0 -176 63.5 -262.5 q63.5 -86.5 184.5 -86.5 Z" /><glyph glyph-name="" unicode="£" d="M509 598 l7 -176 q0 -135 -64 -220 l696 0 l-1 -202 l-1049 0 l0 202 l82 0 q39 9 60.5 64.5 q21.5 55.5 21.5 146.5 l-7 185 l-161 0 l0 199 l155 0 l-8 242 q0 202 125 319 q125 117 328 117 q203 0 319 -109 q116 -109 116 -293 l-245 0 q0 95 -52.5 147.5 q-52.5 52.5 -146.5 52.5 q-89 0 -140.5 -65 q-51.5 -65 -51.5 -169 l9 -242 l311 0 l0 -199 l-304 0 Z" /><glyph glyph-name="" unicode="¤" d="M1085 107 q-159 -127 -362 -127 q-202 0 -360 126 l-129 -132 l-141 144 l135 137 q-100 156 -100 353 q0 200 109 365 l-144 147 l141 144 l142 -145 q155 115 347 115 q194 0 349 -117 l145 148 l142 -145 l-148 -151 q107 -159 107 -361 q0 -193 -98 -349 l139 -141 l-142 -145 l-132 134 ZM313 608 q0 -120 55 -223 q55 -103 150 -161.5 q95 -58.5 205 -58.5 q110 0 205 59 q95 59 149.5 162 q54.5 103 54.5 222 q0 119 -54.5 221 q-54.5 102 -149 160.5 q-94.5 58.5 -205.5 58.5 q-111 0 -206 -58.5 q-95 -58.5 -149.5 -160.5 q-54.5 -102 -54.5 -221 Z" /><glyph glyph-name="" unicode="¥" d="M621 820 l315 636 l280 0 l-393 -714 l269 0 l0 -152 l-349 0 l0 -138 l349 0 l0 -151 l-349 0 l0 -301 l-252 0 l0 301 l-354 0 l0 151 l354 0 l0 138 l-354 0 l0 152 l281 0 l-393 714 l281 0 l315 -636 Z" /><glyph glyph-name="" unicode="¦" d="M136 -270 l0 795 l229 0 l0 -795 l-229 0 ZM365 698 l-229 0 l0 758 l229 0 l0 -758 Z" /><glyph glyph-name="" unicode="§" d="M1164 455 q0 -184 -171 -273 q135 -100 135 -285 q0 -173 -135 -272 q-135 -99 -369 -99 q-246 0 -390 108.5 q-144 108.5 -144 315.5 l242 1 q0 -110 78 -170 q78 -60 214 -60 q121 0 191.5 47.5 q70.5 47.5 70.5 126.5 q0 77 -67 122.5 q-67 45.5 -254 100.5 q-188 51 -283 106 q-95 55 -141.5 132 q-46.5 77 -46.5 186 q0 184 169 274 q-65 50 -99 118 q-34 68 -34 168 q0 170 137.5 272 q137.5 102 367.5 102 q240 0 374 -112.5 q134 -112.5 134 -316.5 l-243 0 q0 106 -72.5 170 q-72.5 64 -192.5 64 q-123 0 -192.5 -47.5 q-69.5 -47.5 -69.5 -129.5 q0 -84 60 -127.5 q60 -43.5 253.5 -95.5 q193.5 -52 290.5 -108.5 q97 -56.5 142 -133 q45 -76.5 45 -184.5 ZM601 673 q-81 21 -157 49 q-108 -40 -108 -164 q0 -81 49.5 -124 q49.5 -43 198.5 -90 l179 -53 l46 -16 q115 47 115 164 q0 81 -68 129.5 q-68 48.5 -255 104.5 Z" /><glyph glyph-name="" unicode="¨" d="M93 1366 q0 50 33.5 84 q33.5 34 92.5 34 q59 0 93 -34 q34 -34 34 -84 q0 -50 -34 -84 q-34 -34 -93 -34 q-59 0 -92.5 34 q-33.5 34 -33.5 84 ZM549 1365 q0 50 34 84 q34 34 93 34 q59 0 93 -34 q34 -34 34 -84 q0 -50 -34 -84 q-34 -34 -93 -34 q-59 0 -93 34 q-34 34 -34 84 Z" /><glyph glyph-name="" unicode="©" d="M1118 596 q0 -152 -87.5 -233 q-87.5 -81 -247.5 -81 q-160 0 -254.5 106.5 q-94.5 106.5 -94.5 286.5 l0 113 q0 174 95.5 280.5 q95.5 106.5 253.5 106.5 q163 0 249.5 -82.5 q86.5 -82.5 86.5 -231.5 l-156 0 q0 96 -46 137.5 q-46 41.5 -134 41.5 q-92 0 -143.5 -68 q-51.5 -68 -51.5 -186 l0 -117 q0 -118 52 -185 q52 -67 143 -67 q89 0 134 40.5 q45 40.5 45 138.5 l156 0 ZM1384 729 q0 166 -75 308.5 q-75 142.5 -212 228 q-137 85.5 -300 85.5 q-159 0 -295.5 -82 q-136.5 -82 -214.5 -226 q-78 -144 -78 -314 q0 -170 77.5 -314 q77.5 -144 214 -227.5 q136.5 -83.5 296.5 -83.5 q160 0 297.5 85 q137.5 85 213.5 229 q76 144 76 311 ZM87 729 q0 202 93.5 375 q93.5 173 259 272.5 q165.5 99.5 357.5 99.5 q192 0 357 -99.5 q165 -99.5 258.5 -272.5 q93.5 -173 93.5 -375 q0 -202 -93.5 -375 q-93.5 -173 -257.5 -273.5 q-164 -100.5 -358 -100.5 q-193 0 -357.5 100 q-164.5 100 -258.5 273 q-94 173 -94 376 Z" /><glyph glyph-name="" unicode="ª" d="M608 705 l-17 68 q-77 -82 -201 -82 q-118 0 -183.5 61.5 q-65.5 61.5 -65.5 166.5 q0 110 84 170.5 q84 60.5 257 60.5 l102 0 l0 51 q0 127 -116 127 q-65 0 -101.5 -25.5 q-36.5 -25.5 -36.5 -73.5 l-173 14 q0 104 87.5 168.5 q87.5 64.5 223.5 64.5 q137 0 214 -72.5 q77 -72.5 77 -204.5 l0 -316 q0 -97 26 -178 l-177 0 ZM433 835 q40 0 82 18 q42 18 69 43 l0 137 l-106 0 q-76 -1 -119 -31 q-43 -30 -43 -79 q0 -88 117 -88 Z" /><glyph glyph-name="" unicode="¬" d="M962 374 l-200 0 l0 260 l-635 0 l0 171 l835 0 l0 -431 Z" /><glyph glyph-name="" unicode="®" d="M87 729 q0 202 93.5 375 q93.5 173 259 272.5 q165.5 99.5 357.5 99.5 q192 0 357 -99.5 q165 -99.5 258.5 -272.5 q93.5 -173 93.5 -375 q0 -202 -93.5 -375 q-93.5 -173 -257.5 -273.5 q-164 -100.5 -358 -100.5 q-193 0 -357.5 100 q-164.5 100 -258.5 273 q-94 173 -94 376 ZM1384 729 q0 166 -75 308.5 q-75 142.5 -212 228 q-137 85.5 -300 85.5 q-159 0 -295.5 -82 q-136.5 -82 -214.5 -226 q-78 -144 -78 -314 q0 -170 77.5 -314 q77.5 -144 214 -227.5 q136.5 -83.5 296.5 -83.5 q160 0 297.5 85 q137.5 85 213.5 229 q76 144 76 311 ZM653 653 l0 -337 l-151 0 l0 850 l281 0 q153 0 239 -67.5 q86 -67.5 86 -192.5 q0 -117 -120 -180 q65 -29 91 -84.5 q26 -55.5 26 -137 q0 -81.5 3.5 -115.5 q3.5 -34 13.5 -57 l0 -16 l-155 0 q-13 34 -13 194 q0 76 -33 109.5 q-33 33.5 -110 33.5 l-158 0 ZM653 787 l143 0 q69 0 115.5 31 q46.5 31 46.5 85 q0 70 -35.5 99.5 q-35.5 29.5 -128.5 30.5 l-141 0 l0 -246 Z" /><glyph glyph-name="" unicode="¯" d="M862 1298 l-727 0 l0 158 l727 0 l0 -158 Z" /><glyph glyph-name="" unicode="°" d="M391 1476 q106 0 183 -79 q77 -79 77 -189 q0 -110 -76 -187.5 q-76 -77.5 -184 -77.5 q-109 0 -186.5 77.5 q-77.5 77.5 -77.5 187.5 q0 110 78.5 189 q78.5 79 185.5 79 ZM391 1084 q53 0 87.5 35.5 q34.5 35.5 34.5 88.5 q0 52 -34.5 90 q-34.5 38 -87.5 38 q-53 0 -89 -38 q-36 -38 -36 -90 q0 -52 36.5 -88 q36.5 -36 88.5 -36 Z" /><glyph glyph-name="" unicode="±" d="M668 899 l343 0 l0 -199 l-343 0 l0 -388 l-216 0 l0 388 l-357 0 l0 199 l357 0 l0 377 l216 0 l0 -377 ZM974 1 l-849 0 l0 196 l849 0 l0 -196 Z" /><glyph glyph-name="" unicode="²" d="M690 667 l-612 0 l0 125 l285 261 q113 103 113 170 q0 42 -27 68.5 q-27 26.5 -79 26.5 q-58 0 -91 -33 q-33 -33 -33 -87 l-186 0 q0 116 84.5 192.5 q84.5 76.5 219.5 76.5 q143 0 221 -64 q78 -64 78 -179 q0 -107 -106 -209 l-98 -87 l-140 -113 l371 0 l0 -148 Z" /><glyph glyph-name="" unicode="³" d="M268 1132 l81 0 q132 0 132 97 q0 35 -27 61.5 q-27 26.5 -89 26.5 q-48 0 -80.5 -19.5 q-32.5 -19.5 -32.5 -54.5 l-186 0 q0 99 82.5 161 q82.5 62 212.5 62 q143 0 224.5 -60.5 q81.5 -60.5 81.5 -165.5 q0 -119 -135 -170 q149 -41 149 -183 q0 -106 -88.5 -169 q-88.5 -63 -231.5 -63 q-135 0 -220.5 63.5 q-85.5 63.5 -85.5 176.5 l186 0 q0 -38 34.5 -64.5 q34.5 -26.5 94.5 -26.5 q63 0 93.5 27.5 q30.5 27.5 30.5 69.5 q0 101 -134 102 l-92 0 l0 129 Z" /><glyph glyph-name="" unicode="´" d="M307 1536 l277 0 l-277 -303 l-195 0 l195 303 Z" /><glyph glyph-name="" unicode="µ" d="M388 1082 l0 -636 q2 -141 46.5 -206 q44.5 -65 150.5 -65 q168 0 227 121 l0 786 l243 0 l0 -1082 l-223 0 l-7 86 q-92 -107 -239 -107 q-121 0 -198 55 l0 -450 l-242 0 l0 1498 l242 0 Z" /><glyph glyph-name="" unicode="¶" d="M644 0 l0 520 l-80 0 q-230 0 -362.5 127 q-132.5 127 -132.5 341 q0 213 133 340.5 q133 127.5 363 127.5 l289 0 l0 -1456 l-210 0 Z" /><glyph glyph-name="" unicode="·" d="M142 714 q0 58 37 97 q37 39 104 39 q67 0 104.5 -39 q37.5 -39 37.5 -97 q0 -59 -39 -96 q-39 -37 -103 -37 q-65 0 -103 37 q-38 37 -38 96 Z" /><glyph glyph-name="" unicode="¸" d="M318 3 l-11 -54 q150 -27 150 -173 q0 -105 -86 -164 q-86 -59 -241 -59 l-7 137 q66 0 101.5 23.5 q35.5 23.5 35.5 65.5 q0 45 -35.5 62.5 q-35.5 17.5 -115.5 22.5 l32 139 l177 0 Z" /><glyph glyph-name="" unicode="¹" d="M514 672 l-185 0 l0 570 l-201 -48 l0 146 l367 119 l19 0 l0 -787 Z" /><glyph glyph-name="" unicode="º" d="M119 1121 q0 160 95.5 257.5 q95.5 97.5 250.5 97.5 q155 0 251 -97 q96 -97 96 -263 l0 -72 q0 -159 -94 -256.5 q-94 -97.5 -251 -97.5 q-158 0 -253 98 q-95 98 -95 261 l0 72 ZM294 1044 q0 -98 46.5 -153 q46.5 -55 126.5 -55 q78 0 123.5 54 q45.5 54 46.5 151 l0 80 q0 97 -46.5 152 q-46.5 55 -125.5 55 q-78 0 -124.5 -54.5 q-46.5 -54.5 -46.5 -156.5 l0 -73 Z" /><glyph glyph-name="" unicode="¿" d="M630 661 q-2 -124 -28.5 -196.5 q-26.5 -72.5 -99.5 -151.5 l-103 -106 q-90 -97 -90 -203 q0 -94 49 -140.5 q49 -46.5 138 -46.5 q88 0 141 50 q53 50 53 133 l243 0 q-2 -177 -121.5 -281 q-119.5 -104 -313.5 -104 q-206 0 -319 100.5 q-113 100.5 -113 284.5 q0 165 155 328 l92 93 q78 72 88 187 l2 53 l227 0 ZM650 972 q0 -56 -35.5 -93.5 q-35.5 -37.5 -101.5 -37.5 q-66 0 -102 37.5 q-36 37.5 -36 93.5 q0 55 36 92.5 q36 37.5 102 37.5 q66 0 101.5 -37.5 q35.5 -37.5 35.5 -92.5 Z" /><glyph glyph-name="" unicode="æ" d="M1879 0 l-898 0 l-15 340 l-502 0 l-184 -340 l-290 0 l835 1456 l992 0 l0 -197 l-646 0 l17 -408 l548 0 l0 -197 l-540 0 l20 -458 l663 0 l0 -196 ZM580 555 l377 0 l-27 648 l-350 -648 Z" /><glyph glyph-name="" unicode="×" d="M77 364 l316 322 l-316 322 l148 150 l315 -322 l316 322 l148 -150 l-316 -322 l316 -322 l-148 -150 l-316 321 l-315 -321 l-148 150 Z" /><glyph glyph-name="" unicode="ø" d="M1314 690 q0 -214 -74 -375.5 q-74 -161.5 -211.5 -248 q-137.5 -86.5 -317.5 -86.5 q-164 0 -296 75 l-91 -150 l-169 0 l145 238 q-195 195 -195 554 l0 67 q0 213 75 375 q75 162 213 249.5 q138 87.5 316 87.5 q197 0 340 -101 l87 143 l167 0 l-147 -243 q157 -193 158 -510 l0 -75 ZM358 690 q0 -207 71 -335 l502 826 q-87 85 -222 85 q-164 0 -256.5 -128.5 q-92.5 -128.5 -94.5 -363.5 l0 -84 ZM1061 766 q0 166 -44 280 l-489 -804 q78 -54 183 -54 q169 0 259.5 128 q90.5 128 90.5 374 l0 76 Z" /><glyph glyph-name="" unicode="þ" d="M391 1456 l0 -280 l241 0 q244 0 381 -119 q137 -119 137 -319 q0 -199 -137 -318.5 q-137 -119.5 -380 -119.5 l-242 0 l0 -300 l-243 0 l0 1456 l243 0 ZM391 981 l0 -486 l246 0 q125 0 197.5 65 q72.5 65 72.5 176 q0 111 -70 177 q-70 66 -192 68 l-254 0 Z" /><glyph glyph-name="" unicode="ß" d="M378 0 l-242 0 l0 1105 q0 214 114.5 333 q114.5 119 320.5 119 q187 0 294.5 -93.5 q107.5 -93.5 107.5 -262.5 q0 -62 -13.5 -111 q-13.5 -49 -48 -105.5 q-34.5 -56.5 -45.5 -89 q-11 -32.5 -11 -71.5 q0 -44 32.5 -86 q32.5 -42 121.5 -116 q89 -74 129.5 -142.5 q40.5 -68.5 40.5 -143.5 q0 -171 -108.5 -263.5 q-108.5 -92.5 -306.5 -92.5 q-80 0 -165.5 19.5 q-85.5 19.5 -123.5 44.5 l49 195 q45 -28 108.5 -46.5 q63.5 -18.5 117.5 -18.5 q97 0 142 43 q45 43 45 110 q0 49 -35 94.5 q-35 45.5 -122 113.5 q-87 68 -127.5 136 q-40.5 68 -40.5 148 q0 88 63 188.5 q63 100.5 63 177.5 q0 81 -46 129.5 q-46 48.5 -126 48.5 q-184 0 -188 -247 l0 -1116 Z" /><glyph glyph-name="" unicode="æ" d="M1254 -20 q-253 0 -393 161 q-65 -77 -172 -119 q-107 -42 -241 -42 q-176 0 -276 88 q-100 88 -100 244 q0 158 119 244 q119 86 352 86 l191 0 l0 71 q0 91 -47.5 142.5 q-47.5 51.5 -135.5 51.5 q-91 0 -148.5 -44.5 q-57.5 -44.5 -57.5 -110.5 l-242 19 q0 146 126.5 238.5 q126.5 92.5 323.5 92.5 q223 0 334 -133 q131 135 331 133 q212 0 331 -129.5 q119 -129.5 119 -364.5 l0 -137 l-695 0 q9 -139 85 -218 q76 -79 210 -79 q137 0 244 58 l61 34 l73 -166 q-70 -56 -174.5 -88 q-104.5 -32 -217.5 -32 ZM495 164 q58 0 126 29.5 q68 29.5 113 72.5 l0 209 l-196 0 q-104 -2 -164 -49.5 q-60 -47.5 -60 -117.5 q0 -65 46.5 -104.5 q46.5 -39.5 134.5 -39.5 ZM1218 907 q-99 0 -162.5 -69 q-63.5 -69 -79.5 -196 l452 0 l0 30 q0 113 -54.5 174 q-54.5 61 -155.5 61 Z" /><glyph glyph-name="" unicode="ð" d="M834 1303 q254 -265 254 -666 l0 -82 q0 -166 -63 -297.5 q-63 -131.5 -177.5 -204.5 q-114.5 -73 -254.5 -73 q-138 0 -251 63 q-113 63 -176 176 q-63 113 -63 249 q0 149 56.5 264.5 q56.5 115.5 159.5 178 q103 62.5 235 62.5 q146 0 259 -91 q-49 169 -175 291 l-204 -135 l-78 109 l172 114 q-126 82 -288 124 l75 195 q238 -50 415 -185 l180 120 l78 -109 l-154 -103 ZM845 663 l-1 18 q-32 48 -93.5 76 q-61.5 28 -139.5 28 q-126 0 -195.5 -84 q-69.5 -84 -69.5 -233 q0 -126 70.5 -210 q70.5 -84 180.5 -84 q111 0 179.5 100 q68.5 100 68.5 273 l0 116 Z" /><glyph glyph-name="" unicode="÷" d="M1079 582 l-1012 0 l0 212 l1012 0 l0 -212 ZM576 1228 q68 0 105 -38 q37 -38 37 -95 q0 -57 -37 -94.5 q-37 -37.5 -105 -37.5 q-67 0 -104 37.5 q-37 37.5 -37 94.5 q0 57 37 95 q37 38 104 38 ZM435 278 q0 58 37 96 q37 38 104 38 q68 0 105 -38 q37 -38 37 -96 q0 -57 -37 -94 q-37 -37 -105 -37 q-67 0 -104 37 q-37 37 -37 94 Z" /><glyph glyph-name="" unicode="ø" d="M79 551 q0 159 63 286.5 q63 127.5 177 196 q114 68.5 262 68.5 q106 0 194 -34 l71 143 l145 0 l-102 -208 q196 -153 196 -473 q0 -160 -61.5 -286 q-61.5 -126 -176 -195 q-114.5 -69 -264.5 -69 q-93 0 -183 30 l-72 -147 l-145 0 l102 207 q-206 150 -206 481 ZM322 530 q0 -156 64 -254 l299 609 q-47 22 -104 22 q-119 0 -189 -94.5 q-70 -94.5 -70 -282.5 ZM843 551 q0 148 -58 241 l-296 -601 q43 -17 94 -17 q123 0 191.5 96 q68.5 96 68.5 281 Z" /><glyph glyph-name="" unicode="þ" d="M1079 530 q0 -247 -113.5 -398.5 q-113.5 -151.5 -307.5 -151.5 q-178 0 -285 117 l0 -513 l-243 0 l0 1952 l243 0 l0 -553 q106 119 282 119 q197 0 310.5 -147 q113.5 -147 113.5 -409 l0 -16 ZM836 551 q0 166 -65.5 259 q-65.5 93 -183.5 93 q-149 0 -214 -123 l0 -480 q66 -126 216 -126 q116 0 181.5 93.5 q65.5 93.5 65.5 283.5 Z" /><glyph glyph-name="" unicode="&#x126;" d="M1310 1198 l127 0 l0 -162 l-127 0 l0 -1036 l-252 0 l0 647 l-651 0 l0 -647 l-252 0 l0 1036 l-124 0 l0 162 l124 0 l0 258 l252 0 l0 -258 l651 0 l0 258 l252 0 l0 -258 ZM407 850 l651 0 l0 186 l-651 0 l0 -186 Z" /><glyph glyph-name="" unicode="&#x131;" d="M386 0 l-243 0 l0 1082 l243 0 l0 -1082 Z" /><glyph glyph-name="" unicode="&#x138;" d="M495 428 l-111 0 l0 -428 l-242 0 l0 1082 l242 0 l0 -432 l85 0 l336 432 l300 0 l-415 -525 l441 -557 l-309 0 l-327 428 Z" /><glyph glyph-name="" unicode="&#x141;" d="M417 871 l234 71 l0 -147 l-234 -71 l0 -522 l661 0 l0 -202 l-914 0 l0 647 l-130 -39 l0 147 l130 39 l0 662 l253 0 l0 -585 Z" /><glyph glyph-name="" unicode="&#x142;" d="M410 889 l148 53 l0 -146 l-148 -53 l0 -743 l-243 0 l0 656 l-134 -47 l0 146 l134 47 l0 734 l243 0 l0 -647 Z" /><glyph glyph-name="" unicode="&#x14a;" d="M1289 1456 l0 -1512 q0 -183 -95 -282 q-95 -99 -264 -99 q-70 0 -130 17 l14 199 q40 -12 98 -12 q123 0 123 184 l0 49 l-639 1045 l0 -1045 l-252 0 l0 1456 l252 0 l639 -1044 l0 1044 l254 0 Z" /><glyph glyph-name="" unicode="&#x14b;" d="M348 1082 l13 -150 q115 170 311 170 q176 0 266.5 -107 q90.5 -107 91.5 -317 l0 -741 q0 -180 -93.5 -277 q-93.5 -97 -259.5 -97 q-69 0 -127 17 l14 198 q40 -12 99 -12 q124 0 124 176 l0 729 q0 120 -46.5 176 q-46.5 56 -151.5 56 q-145 0 -220 -103 l0 -800 l-243 0 l0 1082 l222 0 Z" /><glyph glyph-name="" unicode="&#x152;" d="M1837 0 l-867 0 q-167 -20 -288 -20 q-167 0 -299.5 73.5 q-132.5 73.5 -206.5 208 q-74 134.5 -76 304.5 l0 314 q0 172 72.5 309 q72.5 137 206 212 q133.5 75 301.5 75 q123 0 290 -20 l860 0 l0 -204 l-692 0 l0 -402 l598 0 l0 -200 l-598 0 l0 -448 l699 0 l0 -202 ZM682 174 q99 0 203 13 l0 1080 q-114 14 -205 14 q-161 0 -248.5 -103.5 q-87.5 -103.5 -88.5 -291.5 l0 -310 q0 -193 89 -297.5 q89 -104.5 250 -104.5 Z" /><glyph glyph-name="" unicode="&#x153;" d="M91 551 q0 248 135.5 399.5 q135.5 151.5 359.5 151.5 q249 0 383 -177 q65 84 156.5 131 q91.5 47 200.5 46 q214 0 333 -129.5 q119 -129.5 119 -365.5 l0 -136 l-682 0 q11 -139 83.5 -218 q72.5 -79 189.5 -79 q89 0 160.5 21 q71.5 21 142.5 71 l79 -158 q-71 -63 -173.5 -95.5 q-102.5 -32.5 -222.5 -32.5 q-247 0 -387 174 q-134 -174 -380 -174 q-227 0 -362 150.5 q-135 150.5 -135 408.5 l0 12 ZM333 530 q0 -170 67 -263 q67 -93 188 -93 q119 0 186 92.5 q67 92.5 67 284.5 q0 166 -67.5 261 q-67.5 95 -187.5 95 q-117 0 -185 -93 q-68 -93 -68 -284 ZM1326 907 q-85 0 -145 -68.5 q-60 -68.5 -80 -189.5 l437 0 l0 25 q0 111 -56.5 172 q-56.5 61 -155.5 61 Z" /><glyph glyph-name="" unicode="&#x17f;" d="M139 0 l0 1180 q0 182 97 279.5 q97 97.5 273 97.5 q63 0 152 -21 l-25 -185 q-42 11 -92 11 q-163 0 -163 -186 l0 -1176 l-242 0 Z" /><glyph glyph-name="" unicode="&#x18f;" d="M696 -20 q-292 0 -453.5 176 q-161.5 176 -161.5 505 l0 137 l976 0 q-5 224 -116.5 344 q-111.5 120 -315.5 120 q-167 0 -318 -52 l-52 -19 l-49 198 l33 15 q176 72 394 72 q314 0 495.5 -186.5 q181.5 -186.5 181.5 -515.5 l0 -107 q0 -195 -81 -353.5 q-81 -158.5 -222.5 -246 q-141.5 -87.5 -310.5 -87.5 ZM696 192 q150 0 245 109 q95 109 113 298 l-721 0 l0 -31 q0 -185 93 -280.5 q93 -95.5 270 -95.5 Z" /><glyph glyph-name="" unicode="&#x192;" d="M644 902 l-201 0 l0 -971 q0 -176 -90.5 -272 q-90.5 -96 -254.5 -96 q-72 0 -126 17 l15 191 q7 -3 41 -8 q34 -5 52 -5 q120 0 120 174 l0 970 l-165 0 l0 180 l165 0 l0 98 q0 182 97 279.5 q97 97.5 274 97.5 q61 0 152 -21 l-25 -188 q-38 10 -97 10 q-157 0 -158 -173 l0 -103 l201 0 l0 -180 Z" /><glyph glyph-name="" unicode="&#x1a0;" d="M1296 690 q0 -214 -74 -375.5 q-74 -161.5 -211.5 -248 q-137.5 -86.5 -317.5 -86.5 q-176 0 -314.5 86.5 q-138.5 86.5 -214 246.5 q-75.5 160 -76.5 369 l0 82 q0 213 75.5 376 q75.5 163 213 249.5 q137.5 86.5 314.5 86.5 q255 0 417 -168 q79 13 117 78.5 q38 65.5 38 195.5 l187 0 q0 -164 -60.5 -268.5 q-60.5 -104.5 -184.5 -139.5 q87 -167 91 -390 l0 -94 ZM1043 766 q0 246 -92 373 q-92 127 -260 127 q-164 0 -256.5 -128.5 q-92.5 -128.5 -94.5 -363.5 l0 -84 q0 -236 92.5 -369 q92.5 -133 260.5 -133 q169 0 259.5 128 q90.5 128 90.5 374 l0 76 Z" /><glyph glyph-name="" unicode="&#x1a1;" d="M79 551 q0 161 62.5 287.5 q62.5 126.5 176.5 195 q114 68.5 262 68.5 q225 0 363 -149 q53 19 77 72 q24 53 24 167 l167 0 q0 -134 -44 -223.5 q-44 -89.5 -147 -126.5 q63 -125 65 -283 l0 -29 q0 -160 -61.5 -286 q-61.5 -126 -177 -195 q-115.5 -69 -264.5 -69 q-227 0 -365 151 q-138 151 -138 408 l0 12 ZM321 530 q0 -167 69 -261.5 q69 -94.5 192 -94.5 q123 0 191.5 96 q68.5 96 68.5 281 q0 167 -70.5 261.5 q-70.5 94.5 -191.5 94.5 q-119 0 -189 -94.5 q-70 -94.5 -70 -282.5 Z" /><glyph glyph-name="" unicode="&#x1af;" d="M1213 1456 l0 -220 q109 10 156 75 q47 65 47 226 l181 0 q0 -228 -93.5 -335 q-93.5 -107 -290.5 -116 l0 -603 q0 -232 -148.5 -367.5 q-148.5 -135.5 -395.5 -135.5 q-250 0 -397 133.5 q-147 133.5 -147 370.5 l0 972 l252 0 l0 -974 q0 -146 74 -223 q74 -77 218 -77 q292 0 292 308 l0 966 l252 0 Z" /><glyph glyph-name="" unicode="&#x1b0;" d="M1320 1171 q0 -178 -71.5 -260.5 q-71.5 -82.5 -233.5 -93.5 l0 -817 l-229 0 l-6 106 q-107 -126 -304 -126 q-176 0 -266.5 103 q-90.5 103 -90.5 298 l0 701 l243 0 l0 -698 q0 -206 171 -206 q177 0 239 127 l0 777 l243 0 l0 -136 q72 7 104.5 40 q32.5 33 37.5 109 l2 76 l161 0 Z" /><glyph glyph-name="" unicode="&#x237;" d="M403 1082 l0 -1147 q-1 -178 -93 -275 q-92 -97 -259 -97 q-70 0 -126 17 l15 191 q39 -13 97 -13 q124 0 124 192 l0 1132 l242 0 Z" /><glyph glyph-name="" unicode="&#x259;" d="M512 1103 q228 0 366 -150 q138 -150 138 -396 l0 -31 q0 -154 -61.5 -279.5 q-61.5 -125.5 -170.5 -196 q-109 -70.5 -243 -69.5 q-213 0 -332.5 128.5 q-119.5 128.5 -119.5 365.5 l0 136 l682 0 q-11 136 -82.5 216.5 q-71.5 80.5 -190.5 80.5 q-86 0 -155.5 -19.5 q-69.5 -19.5 -147.5 -72.5 l-79 158 q70 62 175 95.5 q105 33.5 221 33.5 ZM541 175 q86 0 146 71 q60 71 79 187 l-437 0 l0 -25 q0 -111 56.5 -172 q56.5 -61 155.5 -61 Z" /><glyph glyph-name="" unicode="&#x2c6;" d="M835 1259 l0 -11 l-195 0 l-150 156 l-149 -156 l-193 0 l0 13 l271 276 l143 0 l273 -278 Z" /><glyph glyph-name="" unicode="&#x2c7;" d="M466 1382 l146 155 l208 0 l0 -10 l-279 -279 l-150 0 l-277 280 l0 9 l206 0 l146 -155 Z" /><glyph glyph-name="" unicode="&#x2d8;" d="M763 1510 q0 -126 -88 -204 q-88 -78 -235 -78 q-147 0 -235 78 q-88 78 -88 204 l182 0 q0 -66 37.5 -102.5 q37.5 -36.5 103.5 -36.5 q66 0 103 36.5 q37 36.5 37 102.5 l183 0 Z" /><glyph glyph-name="" unicode="&#x2d9;" d="M129 1369 q0 53 34 88.5 q34 35.5 97 35.5 q63 0 97 -35.5 q34 -35.5 34 -88.5 q0 -52 -34 -87 q-34 -35 -97 -35 q-63 0 -97 35 q-34 35 -34 87 Z" /><glyph glyph-name="" unicode="&#x2da;" d="M342 1578 q93 0 157 -61.5 q64 -61.5 64 -146.5 q0 -85 -62.5 -145 q-62.5 -60 -158.5 -60 q-97 0 -159.5 60 q-62.5 60 -62.5 145 q0 85 63.5 146.5 q63.5 61.5 158.5 61.5 ZM230 1370 q0 -47 33 -79.5 q33 -32.5 79 -32.5 q47 0 79.5 32 q32.5 32 32.5 80 q0 46 -31.5 79.5 q-31.5 33.5 -80.5 33.5 q-49 0 -80.5 -33.5 q-31.5 -33.5 -31.5 -79.5 Z" /><glyph glyph-name="" unicode="&#x2db;" d="M396 0 q-87 -56 -124 -103 q-37 -47 -37 -96 q0 -68 71 -68 q44 0 90 23 l21 -142 q-73 -44 -165 -44 q-95 0 -153 55 q-58 55 -58 146 q0 181 244 289 l111 -60 Z" /><glyph glyph-name="" unicode="&#x2dc;" d="M855 1513 q0 -110 -63.5 -183 q-63.5 -73 -159.5 -73 q-39 0 -67.5 8.5 q-28.5 8.5 -81 38.5 q-52.5 30 -74 36 q-21.5 6 -47.5 6 q-38 0 -64.5 -28.5 q-26.5 -28.5 -26.5 -74.5 l-149 8 q0 110 63.5 185 q63.5 75 158.5 75 q57 0 137.5 -45 q80.5 -45 132.5 -45 q38 0 65 28.5 q27 28.5 27 75.5 l149 -12 Z" /><glyph glyph-name="" unicode="&#x2dd;" d="M616 1535 l238 0 l-266 -302 l-197 0 l225 302 ZM247 1535 l233 0 l-222 -302 l-185 0 l174 302 Z" /><glyph glyph-name="" unicode="&#x2f3;" d="M130 -238 q0 73 52.5 122.5 q52.5 49.5 130.5 49.5 q73 0 126 -48.5 q53 -48.5 53 -123.5 q0 -74 -53 -121 q-53 -47 -126 -47 q-78 0 -130.5 48 q-52.5 48 -52.5 120 ZM231 -238 q0 -33 24 -56 q24 -23 58 -23 q33 0 55.5 22.5 q22.5 22.5 22.5 56.5 q0 36 -22.5 60 q-22.5 24 -55.5 24 q-34 0 -58 -24 q-24 -24 -24 -60 Z" /><glyph glyph-name="" unicode="&#x300;" d="M-410 1233 l-202 0 l-270 303 l277 0 l195 -303 Z" /><glyph glyph-name="" unicode="&#x301;" d="M-479 1536 l277 0 l-277 -303 l-195 0 l195 303 Z" /><glyph glyph-name="" unicode="&#x309;" d="M-687 1254 l-7 146 q73 5 105.5 19 q32.5 14 32.5 49 q0 72 -150 72 l7 123 q169 0 254.5 -52 q85.5 -52 85.5 -140 q0 -60 -39 -99 q-39 -39 -111 -49 l0 -69 l-178 0 Z" /><glyph glyph-name="" unicode="&#x30f;" d="M-505 1252 l-208 0 l-299 266 l262 0 l245 -266 ZM-204 1252 l-195 0 l-245 266 l250 0 l190 -266 Z" /><glyph glyph-name="" unicode="&#x323;" d="M-740 -241 q0 53 35.5 88.5 q35.5 35.5 101.5 35.5 q66 0 102 -35.5 q36 -35.5 36 -88.5 q0 -53 -36 -88 q-36 -35 -102 -35 q-66 0 -101.5 35 q-35.5 35 -35.5 88 Z" /><glyph glyph-name="" unicode="&#x384;" d="M259 1601 l223 0 l-140 -344 l-144 0 l61 344 Z" /><glyph glyph-name="" unicode="&#x385;" d="M494 1711 l229 0 l-130 -298 l-146 0 l47 298 ZM103 1366 q0 50 34 84 q34 34 93 34 q59 0 92.5 -34 q33.5 -34 33.5 -84 q0 -50 -33.5 -84 q-33.5 -34 -92.5 -34 q-59 0 -93 34 q-34 34 -34 84 ZM701 1365 q0 50 33.5 84 q33.5 34 92.5 34 q59 0 93 -34 q34 -34 34 -84 q0 -50 -34 -84 q-34 -34 -93 -34 q-59 0 -92.5 34 q-33.5 34 -33.5 84 Z" /><glyph glyph-name="" unicode="&#x393;" d="M1079 1252 l-672 0 l0 -1252 l-252 0 l0 1456 l924 0 l0 -204 Z" /><glyph glyph-name="" unicode="&#x394;&#x2206;" d="M623 1456 l243 0 l574 -1456 l-1415 0 l598 1456 ZM366 202 l736 0 l-360 955 l-376 -955 Z" /><glyph glyph-name="" unicode="&#x398;" d="M931 633 l-448 0 l0 194 l448 0 l0 -194 ZM1299 690 q0 -214 -74 -375.5 q-74 -161.5 -211.5 -248 q-137.5 -86.5 -316.5 -86.5 q-176 0 -313 85 q-137 85 -213.5 243 q-76.5 158 -79.5 363 l0 93 q0 213 75 375 q75 162 213 249.5 q138 87.5 316 87.5 q178 0 315.5 -85.5 q137.5 -85.5 212.5 -246 q75 -160.5 76 -373.5 l0 -81 ZM1047 766 q0 239 -91.5 369.5 q-91.5 130.5 -260.5 130.5 q-164 0 -256.5 -128.5 q-92.5 -128.5 -94.5 -363.5 l0 -84 q0 -240 93.5 -371 q93.5 -131 259.5 -131 q169 0 259.5 128 q90.5 128 90.5 374 l0 76 Z" /><glyph glyph-name="" unicode="&#x39b;" d="M664 1092 l-361 -1092 l-271 0 l510 1456 l245 0 l511 -1456 l-272 0 l-362 1092 Z" /><glyph glyph-name="" unicode="&#x39e;" d="M108 202 l962 0 l0 -202 l-962 0 l0 202 ZM208 845 l758 0 l0 -198 l-758 0 l0 198 ZM121 1456 l921 0 l0 -204 l-921 0 l0 204 Z" /><glyph glyph-name="" unicode="&#x3a0;" d="M1300 0 l-252 0 l0 1252 l-641 0 l0 -1252 l-252 0 l0 1456 l1145 0 l0 -1456 Z" /><glyph glyph-name="" unicode="&#x3a3;" d="M796 720 l-395 -518 l700 0 l0 -202 l-1030 0 l0 151 l457 578 l-457 575 l0 152 l994 0 l0 -204 l-661 0 l392 -513 l0 -19 Z" /><glyph glyph-name="" unicode="&#x3a6;" d="M892 1279 q161 -3 290.5 -74.5 q129.5 -71.5 200.5 -198.5 q71 -127 71 -285 q0 -154 -68 -277 q-68 -123 -192 -195 q-133 -77 -302 -80 l0 -169 l-253 0 l0 169 q-162 1 -292 71 q-130 70 -201.5 195 q-71.5 125 -71.5 284 q0 159 71 286.5 q71 127.5 200.5 199 q129.5 71.5 293.5 74.5 l0 177 l253 0 l0 -177 ZM322 719 q0 -160 85 -248 q85 -88 232 -90 l0 686 q-150 -4 -233.5 -95.5 q-83.5 -91.5 -83.5 -252.5 ZM1206 721 q0 160 -83 251 q-83 91 -231 95 l0 -686 q145 2 229.5 91.5 q84.5 89.5 84.5 248.5 Z" /><glyph glyph-name="" unicode="&#x3a8;" d="M844 579 q131 23 203 118 q72 95 72 262 l0 497 l253 0 l0 -506 q-3 -246 -142.5 -398.5 q-139.5 -152.5 -385.5 -177.5 l0 -374 l-252 0 l0 373 q-240 23 -380 175 q-140 152 -144 397 l0 511 l252 0 l0 -501 q1 -157 72.5 -254 q71.5 -97 199.5 -121 l0 876 l252 0 l0 -877 Z" /><glyph glyph-name="" unicode="&#x3a9;&#x2126;" d="M735 207 q116 32 177.5 168 q61.5 136 62.5 367 l0 109 q0 202 -78.5 311 q-78.5 109 -222.5 109 q-142 0 -219.5 -108.5 q-77.5 -108.5 -77.5 -313.5 l0 -100 q0 -235 63.5 -373.5 q63.5 -138.5 182.5 -168.5 l0 -207 l-505 0 l0 203 l216 0 q-107 103 -167 246.5 q-60 143.5 -60 301.5 l0 98 q0 182 71 324.5 q71 142.5 201.5 222 q130.5 79.5 294.5 79.5 q165 0 296 -79 q131 -79 203 -222 q72 -143 72 -324 l0 -101 q0 -151 -59.5 -297 q-59.5 -146 -166.5 -249 l212 0 l0 -203 l-496 0 l0 207 Z" /><glyph glyph-name="" unicode="&#x3b1;" d="M1021 1082 l0 -774 q3 -123 73 -123 q17 0 27 4 l24 -180 q-51 -30 -127 -30 q-162 0 -215 163 q-102 -162 -295 -162 q-195 0 -308.5 142.5 q-113.5 142.5 -113.5 390.5 l0 13 q0 266 114 421 q114 155 310 155 q181 0 284 -151 l19 131 l208 0 ZM329 505 q0 -158 61 -244.5 q61 -86.5 179 -86.5 q140 0 210 136 l0 455 q-70 142 -208 142 q-115 0 -178.5 -98.5 q-63.5 -98.5 -63.5 -303.5 Z" /><glyph glyph-name="" unicode="&#x3b2;" d="M617 1476 q207 0 328 -108 q121 -108 121 -286 q0 -95 -49.5 -172.5 q-49.5 -77.5 -137.5 -125.5 q121 -44 186 -138.5 q65 -94.5 65 -224.5 q0 -205 -121 -323 q-121 -118 -330 -118 q-165 0 -287 83 l0 -456 l-242 0 l0 1449 q0 115 62 211.5 q62 96.5 170.5 152.5 q108.5 56 234.5 56 ZM823 1073 q0 90 -56.5 149 q-56.5 59 -149.5 59 q-96 0 -160.5 -63 q-64.5 -63 -64.5 -167 l0 -795 q88 -82 245 -82 q113 0 181.5 68.5 q68.5 68.5 68.5 178.5 q0 109 -61 181.5 q-61 72.5 -164 73.5 l-123 0 l0 185 l72 0 q212 0 212 212 Z" /><glyph glyph-name="" unicode="&#x3b3;" d="M526 315 l236 767 l251 0 l-369 -1040 l0 -459 l-243 0 l0 464 l-369 1035 l251 0 l243 -767 Z" /><glyph glyph-name="" unicode="&#x3b4;" d="M208 1258 q0 145 106 227.5 q106 82.5 289 82.5 q73 0 129.5 -11 q56.5 -11 135.5 -38 l0 -195 q-151 53 -256 53 q-78 0 -123 -30.5 q-45 -30.5 -45 -82.5 q0 -93 188 -159 q224 -79 335 -218 q111 -139 113 -343 l0 -28 q0 -155 -61 -278 q-61 -123 -173.5 -190.5 q-112.5 -67.5 -261.5 -67.5 q-226 0 -363 145.5 q-137 145.5 -137 404.5 q0 165 92 292.5 q92 127.5 229 161.5 l-2 5 q-91 40 -143 108.5 q-52 68.5 -52 160.5 ZM326 523 q0 -162 68.5 -256 q68.5 -94 189.5 -94 q119 0 186.5 94 q67.5 94 67.5 276 q0 120 -72.5 221.5 q-72.5 101.5 -181.5 124.5 q-121 0 -189.5 -95 q-68.5 -95 -68.5 -271 Z" /><glyph glyph-name="" unicode="&#x3b5;" d="M96 306 q0 92 52.5 155.5 q52.5 63.5 150.5 95.5 q-87 36 -135.5 96.5 q-48.5 60.5 -48.5 132.5 q0 150 124 232.5 q124 82.5 334 82.5 q191 0 318.5 -90.5 q127.5 -90.5 127.5 -235.5 l-242 0 q0 60 -61 99.5 q-61 39.5 -150 39.5 q-94 0 -151 -38.5 q-57 -38.5 -57 -101.5 q0 -60 48 -97.5 q48 -37.5 153 -37.5 l199 0 l0 -173 l-209 0 q-210 -3 -210 -150 q0 -63 62.5 -106.5 q62.5 -43.5 164.5 -43.5 q98 0 163 44.5 q65 44.5 65 110.5 l242 0 q0 -155 -130 -248 q-130 -93 -333 -93 q-213 0 -345 89 q-132 89 -132 237 Z" /><glyph glyph-name="" unicode="&#x3b6;" d="M970 1456 l0 -145 l-416 -502 q-86 -109 -121 -202 q-35 -93 -35 -200 q0 -84 30.5 -129 q30.5 -45 105.5 -69 l221 -66 q97 -31 136.5 -80 q39.5 -49 39.5 -130 q0 -71 -61 -164 q-61 -93 -143 -155 l-125 101 q93 103 93 173 q2 61 -108 94 l-104 27 q-196 50 -270 155 q-57 80 -57 219 q0 288 293 625 l220 253 l-572 0 l0 195 l873 0 Z" /><glyph glyph-name="" unicode="&#x3b7;" d="M348 1082 l12 -131 q119 151 312 151 q182 0 268.5 -98 q86.5 -98 89.5 -295 l0 -1124 l-243 0 l0 1107 q0 110 -47 162.5 q-47 52.5 -151 52.5 q-150 0 -220 -122 l0 -785 l-243 0 l0 1082 l222 0 Z" /><glyph glyph-name="" unicode="&#x3b8;" d="M1068 626 q0 -316 -124 -481 q-124 -165 -351 -165 q-223 0 -348 160.5 q-125 160.5 -130 461.5 l0 233 q0 309 123 475 q123 166 353 166 q226 0 349 -158 q123 -158 128 -459 l0 -233 ZM358 824 l468 0 l0 48 q0 206 -61 307.5 q-61 101.5 -174 101.5 q-111 0 -172 -101.5 q-61 -101.5 -61 -307.5 l0 -48 ZM826 633 l-468 0 l0 -42 q0 -208 61.5 -312.5 q61.5 -104.5 173.5 -104.5 q112 0 171.5 101 q59.5 101 61.5 303 l0 55 Z" /><glyph glyph-name="" unicode="&#x3b9;" d="M412 1082 l0 -778 q0 -61 25 -88 q25 -27 87 -27 q42 0 85 10 l0 -188 q-74 -23 -160 -23 q-280 0 -280 309 l0 785 l243 0 Z" /><glyph glyph-name="" unicode="&#x3bb;" d="M274 1531 q108 0 168 -42.5 q60 -42.5 91 -122.5 l427 -1089 q36 -86 85 -93 l32 -1 l17 1 l4 -192 q-42 -10 -94 -10 q-109 0 -167.5 44 q-58.5 44 -101.5 155 l-202 532 l-246 -713 l-265 0 l385 1039 l-91 218 q-34 75 -107 78 l-34 0 l-27 -2 l-3 182 q59 16 129 16 Z" /><glyph glyph-name="" unicode="&#x3be;" d="M899 1242 q-138 36 -225 36 q-122 0 -190 -43 q-68 -43 -68 -118 q0 -184 284 -184 l137 0 l0 -198 l-140 0 q-354 0 -354 -285 q0 -98 64.5 -166 q64.5 -68 205 -101 q140.5 -33 196 -51.5 q55.5 -18.5 90.5 -42.5 q81 -56 81 -165 q-2 -72 -63.5 -165.5 q-61.5 -93.5 -141.5 -152.5 l-131 100 q53 57 76 97 q23 40 23 81 q0 35 -31.5 57.5 q-31.5 22.5 -161 56.5 q-129.5 34 -205.5 66 q-127 53 -186 144.5 q-59 91.5 -59 239.5 q0 145 81.5 243 q81.5 98 225.5 143 q-110 40 -172 111 q-62 71 -62 168 q0 166 129 264.5 q129 98.5 356 98.5 q153 0 278 -44 l-37 -190 Z" /><glyph glyph-name="" unicode="&#x3c0;" d="M1193 892 l-159 0 l0 -586 q0 -62 24.5 -89.5 q24.5 -27.5 87.5 -27.5 q38 0 85 10 l0 -188 q-74 -23 -160 -23 q-280 0 -280 309 l0 595 l-332 0 l0 -892 l-243 0 l0 892 l-171 0 l0 190 l1148 0 l0 -190 Z" /><glyph glyph-name="" unicode="&#x3c1;" d="M598 1102 q224 0 349.5 -154.5 q125.5 -154.5 125.5 -427.5 l0 -15 q0 -242 -112 -383.5 q-112 -141.5 -305 -141.5 q-179 0 -285 119 l0 -515 l-243 0 l0 987 q0 242 129.5 386.5 q129.5 144.5 340.5 144.5 ZM371 291 q67 -117 216 -117 q118 0 180.5 86.5 q62.5 86.5 62.5 265.5 q0 184 -62 282.5 q-62 98.5 -176 98.5 q-102 0 -161.5 -96.5 q-59.5 -96.5 -59.5 -256.5 l0 -263 Z" /><glyph glyph-name="" unicode="&#x3c2;" d="M568 1102 q196 0 314.5 -110.5 q118.5 -110.5 118.5 -297.5 l-228 0 q0 97 -54.5 155 q-54.5 58 -150.5 58 q-113 0 -178.5 -94 q-65.5 -94 -65.5 -264 l0 -26 q0 -131 74 -208.5 q74 -77.5 225 -120.5 q151 -43 199 -71.5 q48 -28.5 72.5 -70 q24.5 -41.5 25.5 -107.5 q0 -72 -63.5 -167.5 q-63.5 -95.5 -139.5 -151.5 l-127 101 q51 55 72 94 q21 39 21 83 q0 40 -30 61 q-30 21 -95 36 q-238 55 -356.5 182 q-118.5 127 -119.5 336 l0 39 q0 157 60 282 q60 125 170 193.5 q110 68.5 256 68.5 Z" /><glyph glyph-name="" unicode="&#x3c3;" d="M1150 886 l-267 0 q186 -146 186 -397 q0 -142 -61 -260 q-61 -118 -172 -183.5 q-111 -65.5 -256 -65.5 q-226 0 -362 150 q-136 150 -136 409 l0 12 q0 238 134 383.5 q134 145.5 357 147.5 l577 0 l0 -196 ZM325 530 q0 -169 66.5 -262.5 q66.5 -93.5 188.5 -93.5 q117 0 181.5 94 q64.5 94 64.5 283 q0 156 -65.5 245.5 q-65.5 89.5 -182.5 89.5 q-118 0 -185.5 -88 q-67.5 -88 -67.5 -268 Z" /><glyph glyph-name="" unicode="&#x3c4;" d="M1004 889 l-360 0 l0 -592 q0 -59 21.5 -88.5 q21.5 -29.5 72.5 -29.5 q39 0 94 22 l38 -177 q-80 -44 -188 -44 q-276 0 -281 313 l0 596 l-338 0 l0 193 l941 0 l0 -193 Z" /><glyph glyph-name="" unicode="&#x3c5;" d="M370 1082 l0 -650 q0 -259 161 -259 q113 0 185.5 116.5 q72.5 116.5 72.5 276.5 q-3 231 -113 516 l241 0 q115 -230 115 -516 q0 -268 -130 -427.5 q-130 -159.5 -361 -159.5 q-203 0 -307.5 113 q-104.5 113 -105.5 329 l0 661 l242 0 Z" /><glyph glyph-name="" unicode="&#x3c6;" d="M613 -14 q-260 28 -402.5 183.5 q-142.5 155.5 -142.5 410.5 q0 164 63 294.5 q63 130.5 178 213.5 l152 -146 q-72 -70 -110 -164 q-38 -94 -40 -198 q0 -161 77 -263.5 q77 -102.5 225 -132.5 l0 640 q0 119 79 192 q79 73 203 73 q147 0 265 -70.5 q118 -70.5 185.5 -196 q67.5 -125.5 67.5 -271.5 q0 -243 -145 -391.5 q-145 -148.5 -412 -174.5 l0 -463 l-243 0 l0 464 ZM856 182 q149 25 231.5 121.5 q82.5 96.5 82.5 247.5 q-2 151 -72.5 246.5 q-70.5 95.5 -186.5 95.5 q-55 0 -55 -62 l0 -649 Z" /><glyph glyph-name="" unicode="&#x3c8;" d="M850 1082 l0 -899 q147 27 230.5 130 q83.5 103 83.5 267 q-5 226 -117 502 l238 0 q121 -227 121 -502 q0 -260 -143.5 -415 q-143.5 -155 -412.5 -181 l0 -462 l-243 0 l0 464 q-260 30 -393.5 183.5 q-133.5 153.5 -134.5 419.5 l0 493 l243 0 l0 -488 q0 -350 285 -410 l0 898 l243 0 Z" /><glyph glyph-name="" unicode="&#x3c9;" d="M485 1082 q-134 -279 -141 -516 q0 -189 48.5 -290.5 q48.5 -101.5 136.5 -101.5 q91 0 139 78.5 q48 78.5 48 226.5 l0 326 l251 0 l0 -337 q2 -142 49.5 -218 q47.5 -76 137.5 -76 q88 0 136.5 101.5 q48.5 101.5 48.5 290.5 q-7 239 -140 516 l241 0 q141 -232 141 -516 q0 -284 -106.5 -435 q-106.5 -151 -309.5 -151 q-232 0 -324 222 q-92 -222 -322 -222 q-203 0 -310 151 q-107 151 -107 435 q0 284 141 516 l242 0 Z" /><glyph glyph-name="" unicode="&#x3d1;" d="M1176 599 q-58 -20 -126 -31 l0 -117 q0 -218 -125 -344.5 q-125 -126.5 -338 -126.5 q-211 0 -340 130.5 q-129 130.5 -129 342.5 l0 285 l236 2 l0 -290 q0 -125 65 -196.5 q65 -71.5 175 -71.5 q98 0 152.5 67 q54.5 67 54.5 198 l0 124 q-209 38 -337 175.5 q-128 137.5 -131 329.5 l0 27 q0 169 98.5 271 q98.5 102 263.5 102 q167 0 261 -104 q94 -104 94 -291 l0 -306 q75 12 117 23 l9 -199 ZM569 1089 q0 -108 62.5 -189 q62.5 -81 169.5 -113 l0 325 q-4 154 -113 154 q-52 0 -85.5 -36.5 q-33.5 -36.5 -33.5 -140.5 Z" /><glyph glyph-name="" unicode="&#x3d2;" d="M575 775 l210 504 q43 100 104 148 q61 48 157 48 q70 0 136 -26 l-38 -194 q-13 5 -53 5 q-65 0 -96 -69 l-295 -661 l0 -530 l-252 0 l0 528 l-293 663 q-33 69 -97 69 q-43 0 -53 -5 l-36 193 q60 27 134 27 q103 0 165.5 -50 q62.5 -50 106.5 -158 l200 -492 Z" /><glyph glyph-name="" unicode="&#x3d6;" d="M1620 899 l-128 0 q55 -158 55 -333 q0 -286 -101 -436 q-101 -150 -289 -150 q-238 0 -330 226 q-92 -226 -330 -226 q-189 0 -289 151 q-100 151 -100 435 q0 177 54 333 l-111 0 l0 183 l1569 0 l0 -183 ZM1305 566 q-4 160 -65 333 l-826 0 q-60 -177 -64 -333 q0 -190 41.5 -291 q41.5 -101 116.5 -101 q92 0 143 75.5 q51 75.5 52 224.5 l0 232 l250 0 l0 -238 q2 -143 51.5 -218.5 q49.5 -75.5 142.5 -75.5 q75 0 116.5 101 q41.5 101 41.5 291 Z" /><glyph glyph-name="" unicode="&#x402;" d="M1168 1252 l-493 0 l0 -396 q148 38 262 38 q251 0 391 -120 q140 -120 140 -336 q0 -216 -137 -334 q-137 -118 -391 -118 l-1 191 q137 0 207 60.5 q70 60.5 70 192.5 q-1 119 -72.5 186.5 q-71.5 67.5 -214.5 67.5 q-134 0 -254 -32 l0 -652 l-253 0 l0 1252 l-388 0 l0 204 l1134 0 l0 -204 Z" /><glyph glyph-name="" unicode="&#x404;" d="M1262 473 q-22 -232 -172 -362.5 q-150 -130.5 -398 -130.5 q-175 0 -308.5 82.5 q-133.5 82.5 -206 237.5 q-72.5 155 -73.5 362 l0 123 q0 207 73 364 q73 157 209.5 242 q136.5 85 316.5 85 q243 0 389.5 -133 q146.5 -133 170.5 -369 l-252 0 q-18 156 -92 227 q-74 71 -216 71 q-161 0 -249 -114.5 q-88 -114.5 -96 -324.5 l507 0 l0 -202 l-508 0 q7 -221 92.5 -335.5 q85.5 -114.5 242.5 -114.5 q147 0 222 67.5 q75 67.5 95 224.5 l253 0 Z" /><glyph glyph-name="" unicode="&#x409;" d="M1293 929 l305 0 q153 -1 270.5 -59.5 q117.5 -58.5 181 -164.5 q63.5 -106 63.5 -241 q0 -206 -138.5 -332.5 q-138.5 -126.5 -367.5 -131.5 l-566 0 l0 1252 l-446 0 l-26 -563 q-15 -264 -64.5 -409.5 q-49.5 -145.5 -143.5 -212.5 q-94 -67 -252 -67 l-64 0 l0 202 l40 3 q87 8 134.5 61 q47.5 53 72 160.5 q24.5 107.5 34.5 316.5 l28 713 l939 0 l0 -527 ZM1293 726 l0 -524 l297 0 q126 0 198.5 73.5 q72.5 73.5 72.5 190.5 q0 115 -71.5 186.5 q-71.5 71.5 -193.5 73.5 l-303 0 Z" /><glyph glyph-name="" unicode="&#x40a;" d="M407 837 l640 0 l0 619 l252 0 l0 -558 l299 0 q156 0 275 -55 q119 -55 182.5 -156.5 q63.5 -101.5 63.5 -234.5 q0 -205 -142.5 -328.5 q-142.5 -123.5 -385.5 -123.5 l-544 0 l0 634 l-640 0 l0 -634 l-252 0 l0 1456 l252 0 l0 -619 ZM1299 696 l0 -488 l297 0 q126 0 199 67 q73 67 73 179 q0 111 -74 176.5 q-74 65.5 -198 65.5 l-297 0 Z" /><glyph glyph-name="" unicode="&#x40b;" d="M1170 1252 l-495 0 l0 -357 q131 27 274 27 q268 0 399.5 -118 q131.5 -118 131.5 -347 l0 -457 l-252 0 l0 458 q0 139 -62.5 200 q-62.5 61 -216.5 61 q-140 0 -274 -28 l0 -691 l-252 0 l0 1252 l-374 0 l0 204 l1121 0 l0 -204 Z" /><glyph glyph-name="" unicode="&#x40f;" d="M146 1456 l253 0 l0 -1254 l641 0 l0 1254 l253 0 l0 -1456 l-437 0 l0 -360 l-253 0 l0 360 l-457 0 l0 1456 Z" /><glyph glyph-name="" unicode="&#x411;" d="M1068 1252 l-671 0 l0 -353 l298 0 q160 0 279 -55 q119 -55 181 -156 q62 -101 62 -234 q0 -204 -138.5 -328 q-138.5 -124 -377.5 -126 l-557 0 l0 1456 l924 0 l0 -204 ZM397 696 l0 -494 l297 0 q128 0 199.5 69.5 q71.5 69.5 71.5 184.5 q0 110 -70 174 q-70 64 -194 66 l-304 0 Z" /><glyph glyph-name="" unicode="&#x414;" d="M1487 -358 l-240 0 l0 358 l-959 0 l0 -358 l-244 0 l-8 560 l117 0 q87 84 139 244.5 q52 160.5 67 363.5 l38 646 l918 0 l0 -1254 l185 0 l-13 -560 ZM439 202 l624 0 l0 1050 l-425 0 l-24 -410 q-27 -411 -175 -640 Z" /><glyph glyph-name="" unicode="&#x416;" d="M1279 628 l-163 0 l0 -628 l-252 0 l0 628 l-170 0 l-357 -628 l-315 0 l469 775 l-438 681 l306 0 l348 -608 l157 0 l0 608 l252 0 l0 -608 l150 0 l345 608 l305 0 l-434 -679 l465 -777 l-314 0 l-354 628 Z" /><glyph glyph-name="" unicode="&#x417;" d="M876 1059 q0 98 -74 156 q-74 58 -201 58 q-109 0 -182 -57.5 q-73 -57.5 -73 -148.5 l-252 0 q0 119 66 212 q66 93 183 144.5 q117 51.5 258 51.5 q250 0 388.5 -109 q138.5 -109 138.5 -305 q0 -99 -60 -182 q-60 -83 -168 -131 q122 -42 186.5 -127.5 q64.5 -85.5 64.5 -212.5 q0 -196 -150 -311.5 q-150 -115.5 -400 -115.5 q-154 0 -278.5 55 q-124.5 55 -187 150 q-62.5 95 -62.5 218 l252 0 q0 -94 78 -158.5 q78 -64.5 198 -64.5 q134 0 215.5 63 q81.5 63 81.5 164 q0 123 -71.5 178.5 q-71.5 55.5 -209.5 55.5 l-171 0 l0 200 l162 0 q268 0 268 217 Z" /><glyph glyph-name="" unicode="&#x418;" d="M1040 1456 l253 0 l0 -1456 l-253 0 l0 1037 l-639 -1037 l-253 0 l0 1456 l253 0 l0 -1038 l639 1038 Z" /><glyph glyph-name="" unicode="&#x41b;" d="M1293 1456 l0 -1456 l-252 0 l0 1252 l-446 0 l-26 -563 q-15 -264 -64.5 -409.5 q-49.5 -145.5 -143.5 -212.5 q-94 -67 -252 -67 l-64 0 l0 202 l40 3 q87 8 134.5 61 q47.5 53 72 160.5 q24.5 107.5 34.5 316.5 l28 713 l939 0 Z" /><glyph glyph-name="" unicode="&#x423;" d="M672 695 l292 761 l281 0 l-507 -1208 l-46 -91 q-100 -178 -324 -178 l-104 6 l2 200 q24 -4 85 -4 q108 0 152 92 l52 123 l-498 1060 l276 0 l339 -761 Z" /><glyph glyph-name="" unicode="&#x424;" d="M942 1318 q187 0 326 -76 q139 -76 215.5 -212 q76.5 -136 76.5 -308 q0 -170 -76.5 -305.5 q-76.5 -135.5 -215 -211 q-138.5 -75.5 -326.5 -75.5 l0 -190 l-243 0 l0 190 l-23 0 q-169 1 -307 76 q-138 75 -214 209.5 q-76 134.5 -76 304.5 q0 173 77 310 q77 137 215 212.5 q138 75.5 328 75.5 l0 198 l243 0 l0 -198 ZM681 1115 q-170 0 -266.5 -103.5 q-96.5 -103.5 -96.5 -291.5 q0 -180 93.5 -282.5 q93.5 -102.5 264.5 -104.5 l23 0 l0 782 l-18 0 ZM942 1115 l0 -782 l17 0 q171 0 266.5 103.5 q95.5 103.5 95.5 285.5 q0 185 -95.5 289 q-95.5 104 -268.5 104 l-15 0 Z" /><glyph glyph-name="" unicode="&#x426;" d="M146 1456 l253 0 l0 -1254 l641 0 l0 1254 l253 0 l0 -1252 l176 0 l-20 -555 l-232 0 l0 351 l-1071 0 l0 1456 Z" /><glyph glyph-name="" unicode="&#x427;" d="M1262 1456 l0 -1456 l-252 0 l0 573 q-162 -41 -338 -41 q-261 0 -395 115 q-134 115 -135 347 l0 462 l252 0 l0 -464 q1 -139 64 -198 q63 -59 214 -59 q174 0 338 42 l0 679 l252 0 Z" /><glyph glyph-name="" unicode="&#x428;" d="M406 1456 l0 -1254 l444 0 l0 1254 l252 0 l0 -1254 l441 0 l0 1254 l252 0 l0 -1456 l-1643 0 l0 1456 l254 0 Z" /><glyph glyph-name="" unicode="&#x429;" d="M406 1456 l0 -1254 l444 0 l0 1254 l252 0 l0 -1254 l441 0 l0 1254 l252 0 l0 -1262 l170 0 l-20 -544 l-222 0 l0 350 l-1571 0 l0 1456 l254 0 Z" /><glyph glyph-name="" unicode="&#x42a;" d="M24 1456 l647 0 l0 -557 l298 0 q160 0 279 -55 q119 -55 181.5 -155.5 q62.5 -100.5 62.5 -234.5 q0 -205 -139.5 -328.5 q-139.5 -123.5 -377.5 -125.5 l-556 0 l0 1261 l-395 0 l0 195 ZM671 696 l0 -494 l297 0 q128 0 199.5 69.5 q71.5 69.5 71.5 184.5 q0 110 -70 174 q-70 64 -194 66 l-304 0 Z" /><glyph glyph-name="" unicode="&#x42b;" d="M408 899 l298 0 q160 0 279 -55 q119 -55 181 -156 q62 -101 62 -234 q0 -204 -138.5 -328 q-138.5 -124 -377.5 -126 l-557 0 l0 1456 l253 0 l0 -557 ZM1624 0 l-252 0 l0 1456 l252 0 l0 -1456 ZM408 696 l0 -494 l297 0 q128 0 199.5 69.5 q71.5 69.5 71.5 184.5 q0 110 -70 174 q-70 64 -194 66 l-304 0 Z" /><glyph glyph-name="" unicode="&#x42c;" d="M397 899 l298 0 q160 0 279 -55 q119 -55 181 -156 q62 -101 62 -234 q0 -204 -138.5 -328 q-138.5 -124 -377.5 -126 l-557 0 l0 1456 l253 0 l0 -557 ZM397 696 l0 -494 l297 0 q128 0 199.5 69.5 q71.5 69.5 71.5 184.5 q0 110 -70 174 q-70 64 -194 66 l-304 0 Z" /><glyph glyph-name="" unicode="&#x42d;" d="M360 473 q20 -158 95.5 -225 q75.5 -67 222.5 -67 q156 0 241.5 114 q85.5 114 91.5 329 l-514 0 l0 204 l514 0 q-8 216 -96.5 330 q-88.5 114 -248.5 114 q-140 0 -214.5 -70 q-74.5 -70 -92.5 -228 l-252 0 q24 238 170.5 370 q146.5 132 388.5 132 q179 0 315 -84 q136 -84 209.5 -240 q73.5 -156 74.5 -361 l0 -123 q0 -207 -71.5 -363.5 q-71.5 -156.5 -205.5 -240.5 q-134 -84 -310 -84 q-248 0 -398 130.5 q-150 130.5 -172 362.5 l252 0 Z" /><glyph glyph-name="" unicode="&#x42e;" d="M1799 690 q0 -214 -74 -375.5 q-74 -161.5 -211.5 -248 q-137.5 -86.5 -316.5 -86.5 q-167 0 -299 76 q-132 76 -211 218 q-79 142 -93 331 l-182 0 l0 -605 l-252 0 l0 1456 l252 0 l0 -655 l179 0 q6 201 83 355.5 q77 154.5 212.5 237 q135.5 82.5 308.5 82.5 q178 0 315.5 -85.5 q137.5 -85.5 212.5 -246 q75 -160.5 76 -373.5 l0 -81 ZM1546 766 q0 242 -91.5 371 q-91.5 129 -259.5 129 q-164 0 -256.5 -128.5 q-92.5 -128.5 -94.5 -363.5 l0 -84 q0 -240 93.5 -371 q93.5 -131 259.5 -131 q168 0 258.5 128 q90.5 128 90.5 374 l0 76 Z" /><glyph glyph-name="" unicode="&#x42f;" d="M866 0 l0 544 l-282 0 l-281 -544 l-271 0 l325 619 q-254 120 -254 393 q0 209 137.5 325.5 q137.5 116.5 383.5 118.5 l495 0 l0 -1456 l-253 0 ZM355 1001 q0 -123 69 -192 q69 -69 207 -69 l235 0 l0 512 l-235 0 q-140 0 -208 -67 q-68 -67 -68 -184 Z" /><glyph glyph-name="" unicode="&#x431;" d="M634 1022 q204 0 327 -136.5 q123 -136.5 123 -370.5 l0 -12 q0 -234 -133.5 -379 q-133.5 -145 -362.5 -145 q-223 0 -360 148 q-137 148 -137 404 l0 70 q0 350 124 554 q124 204 370 255 q138 28 178.5 59.5 q40.5 31.5 40.5 85.5 l196 0 q0 -101 -33 -164 q-33 -63 -101 -102.5 q-68 -39.5 -234 -74.5 q-152 -32 -231.5 -114 q-79.5 -82 -106.5 -227 q145 149 340 149 ZM586 827 q-118 0 -185 -79.5 q-67 -79.5 -67 -244.5 q0 -156 66 -243 q66 -87 188 -87 q121 0 187.5 87.5 q66.5 87.5 66.5 263.5 q0 140 -66.5 221.5 q-66.5 81.5 -189.5 81.5 Z" /><glyph glyph-name="" unicode="&#x432;" d="M143 0 l0 1082 l439 0 q222 0 338 -77.5 q116 -77.5 116 -222.5 q0 -75 -46.5 -134.5 q-46.5 -59.5 -137.5 -91.5 q106 -22 168 -89 q62 -67 62 -158 q0 -151 -111.5 -230 q-111.5 -79 -320.5 -79 l-507 0 ZM386 461 l0 -269 l266 0 q187 0 187 134 q0 135 -190 135 l-263 0 ZM386 635 l200 0 q207 0 207 122 q0 128 -196 132 l-211 0 l0 -254 Z" /><glyph glyph-name="" unicode="&#x433;" d="M845 886 l-470 0 l0 -886 l-242 0 l0 1082 l712 0 l0 -196 Z" /><glyph glyph-name="" unicode="&#x434;" d="M129 194 q101 113 135.5 214.5 q34.5 101.5 41.5 259.5 l14 414 l751 0 l0 -888 l150 0 l0 -516 l-242 0 l0 322 l-694 0 l0 -322 l-246 0 l1 516 l89 0 ZM414 194 l415 0 l0 679 l-273 0 l-7 -207 q-14 -298 -135 -472 Z" /><glyph glyph-name="" unicode="&#x436;" d="M1077 435 l-129 0 l0 -435 l-243 0 l0 435 l-128 0 l-249 -435 l-298 0 l359 563 l-340 519 l297 0 l245 -425 l114 0 l0 425 l243 0 l0 -425 l115 0 l246 425 l297 0 l-339 -516 l361 -566 l-302 0 l-249 435 Z" /><glyph glyph-name="" unicode="&#x437;" d="M944 786 q0 -72 -43.5 -132.5 q-43.5 -60.5 -122.5 -96.5 q186 -65 186 -251 q0 -149 -121 -237.5 q-121 -88.5 -324 -88.5 q-124 0 -226 41.5 q-102 41.5 -159 118 q-57 76.5 -57 181.5 l242 0 q0 -66 59 -110.5 q59 -44.5 149 -44.5 q89 0 141.5 41.5 q52.5 41.5 52.5 108.5 q0 79 -46 114 q-46 35 -142 35 l-174 0 l0 175 l180 0 q163 2 163 134 q0 66 -47 103 q-47 37 -129 37 q-80 0 -135 -39.5 q-55 -39.5 -55 -99.5 l-242 0 q0 143 120 234.5 q120 91.5 305 91.5 q201 0 313 -82 q112 -82 112 -233 Z" /><glyph glyph-name="" unicode="&#x438;" d="M800 1082 l242 0 l0 -1082 l-242 0 l0 722 l-424 -722 l-242 0 l0 1082 l242 0 l0 -722 l424 722 Z" /><glyph glyph-name="" unicode="&#x43a;" d="M509 428 l-123 0 l0 -428 l-243 0 l0 1082 l243 0 l0 -432 l107 0 l299 432 l300 0 l-391 -518 l424 -564 l-316 0 l-300 428 Z" /><glyph glyph-name="" unicode="&#x43b;" d="M1044 1082 l0 -1082 l-243 0 l0 886 l-306 0 l-20 -377 q-19 -272 -104.5 -390.5 q-85.5 -118.5 -261.5 -118.5 l-75 0 l-1 202 l50 5 q80 11 116.5 97.5 q36.5 86.5 46.5 315.5 l20 462 l778 0 Z" /><glyph glyph-name="" unicode="&#x43c;" d="M767 299 l320 783 l304 0 l0 -1082 l-243 0 l0 716 l-298 -716 l-165 0 l-299 720 l0 -720 l-243 0 l0 1082 l306 0 l318 -783 Z" /><glyph glyph-name="" unicode="&#x43d;" d="M1041 0 l-243 0 l0 437 l-421 0 l0 -437 l-243 0 l0 1082 l243 0 l0 -451 l421 0 l0 451 l243 0 l0 -1082 Z" /><glyph glyph-name="" unicode="&#x43f;" d="M1042 0 l-243 0 l0 886 l-422 0 l0 -886 l-243 0 l0 1082 l908 0 l0 -1082 Z" /><glyph glyph-name="" unicode="&#x442;" d="M976 889 l-351 0 l0 -889 l-243 0 l0 889 l-347 0 l0 193 l941 0 l0 -193 Z" /><glyph glyph-name="" unicode="&#x444;" d="M84 526 q0 265 104.5 420.5 q104.5 155.5 291.5 155.5 q76 0 138 -28 l0 462 l242 0 l0 -466 q64 32 150 32 q186 0 291.5 -154.5 q105.5 -154.5 105.5 -442.5 q0 -243 -106 -384 q-106 -141 -289 -141 q-83 0 -152 30 l0 -426 l-242 0 l0 422 q-61 -26 -140 -26 q-175 0 -279.5 129.5 q-104.5 129.5 -113.5 356.5 l-1 60 ZM1164 526 q0 182 -58 281.5 q-58 99.5 -164 99.5 q-45 0 -82 -13 l0 -710 q33 -10 84 -10 q220 0 220 352 ZM326 505 q0 -162 54 -246.5 q54 -84.5 160 -84.5 q45 0 78 10 l0 713 q-34 10 -76 10 q-104 0 -160 -96.5 q-56 -96.5 -56 -305.5 Z" /><glyph glyph-name="" unicode="&#x446;" d="M134 1082 l243 0 l0 -888 l422 0 l0 888 l243 0 l0 -888 l147 0 l-20 -515 l-221 0 l0 321 l-814 0 l0 1082 Z" /><glyph glyph-name="" unicode="&#x447;" d="M992 0 l-243 0 l0 361 q-94 -22 -198 -22 q-222 0 -339 106.5 q-117 106.5 -117 305.5 l0 332 l243 0 l0 -332 q0 -118 52.5 -167 q52.5 -49 160.5 -49 q98 0 198 23 l0 524 l243 0 l0 -1082 Z" /><glyph glyph-name="" unicode="&#x448;" d="M377 1082 l0 -888 l338 0 l0 888 l243 0 l0 -888 l339 0 l0 888 l242 0 l0 -1082 l-1405 0 l0 1082 l243 0 Z" /><glyph glyph-name="" unicode="&#x449;" d="M369 1082 l0 -888 l338 0 l0 888 l243 0 l0 -888 l339 0 l0 888 l242 0 l0 -888 l185 0 l-20 -515 l-221 0 l0 321 l-1349 0 l0 1082 l243 0 Z" /><glyph glyph-name="" unicode="&#x44a;" d="M586 738 l238 0 q133 0 232 -46 q99 -46 150.5 -129 q51.5 -83 51.5 -193 q0 -167 -118 -268 q-118 -101 -314 -102 l-483 0 l0 886 l-312 0 l0 196 l555 0 l0 -344 ZM586 543 l0 -349 l237 0 q89 0 140.5 44.5 q51.5 44.5 51.5 126.5 q0 82 -50.5 129.5 q-50.5 47.5 -136.5 48.5 l-242 0 Z" /><glyph glyph-name="" unicode="&#x44b;" d="M386 738 l238 0 q133 0 232 -46 q99 -46 150.5 -129 q51.5 -83 51.5 -193 q0 -167 -118 -268 q-118 -101 -314 -102 l-483 0 l0 1082 l243 0 l0 -344 ZM1481 0 l-243 0 l0 1082 l243 0 l0 -1082 ZM386 543 l0 -349 l237 0 q89 0 140.5 44.5 q51.5 44.5 51.5 126.5 q0 82 -50.5 129.5 q-50.5 47.5 -136.5 48.5 l-242 0 Z" /><glyph glyph-name="" unicode="&#x44c;" d="M386 738 l238 0 q133 0 232 -46 q99 -46 150.5 -129 q51.5 -83 51.5 -193 q0 -167 -118 -268 q-118 -101 -314 -102 l-483 0 l0 1082 l243 0 l0 -344 ZM386 543 l0 -349 l237 0 q89 0 140.5 44.5 q51.5 44.5 51.5 126.5 q0 82 -50.5 129.5 q-50.5 47.5 -136.5 48.5 l-242 0 Z" /><glyph glyph-name="" unicode="&#x44d;" d="M513 907 q-85 0 -144 -52.5 q-59 -52.5 -59 -131.5 l-229 0 q0 100 58 187.5 q58 87.5 159 139.5 q101 52 215 52 q220 0 353.5 -151 q133.5 -151 133.5 -403 l0 -25 q0 -155 -60.5 -281 q-60.5 -126 -170.5 -194 q-110 -68 -255 -68 q-123 0 -223 51.5 q-100 51.5 -155 144.5 q-55 93 -55 210 l229 0 q0 -93 59 -152.5 q59 -59.5 145 -59.5 q102 0 165 76.5 q63 76.5 75 213.5 l-340 0 l0 168 l339 0 q-14 132 -77 203.5 q-63 71.5 -163 71.5 Z" /><glyph glyph-name="" unicode="&#x44e;" d="M388 647 l204 0 q27 207 160 331 q133 124 336 124 q219 0 355.5 -141 q136.5 -141 147.5 -374 l1 -57 q0 -160 -61.5 -286 q-61.5 -126 -176 -195 q-114.5 -69 -264.5 -69 q-210 0 -344.5 130 q-134.5 130 -155.5 342 l-202 0 l0 -452 l-243 0 l0 1082 l243 0 l0 -435 ZM829 530 q0 -167 69 -261.5 q69 -94.5 192 -94.5 q123 0 191 96 q68 96 68 281 q0 167 -70.5 261.5 q-70.5 94.5 -190.5 94.5 q-119 0 -189 -94.5 q-70 -94.5 -70 -282.5 Z" /><glyph glyph-name="" unicode="&#x44f;" d="M991 1082 l0 -1082 l-242 0 l0 397 l-227 0 l-231 -397 l-252 0 l255 437 q-100 42 -153.5 120 q-53.5 78 -53.5 179 q0 151 116.5 247.5 q116.5 96.5 314.5 98.5 l473 0 ZM330 730 q0 -68 50.5 -110.5 q50.5 -42.5 129.5 -42.5 l239 0 l0 312 l-224 0 q-89 0 -142 -45 q-53 -45 -53 -114 Z" /><glyph glyph-name="" unicode="&#x452;" d="M631 1197 l-267 0 l0 -233 q119 138 301 138 q346 0 351 -395 l0 -770 q0 -178 -92.5 -276 q-92.5 -98 -258.5 -98 q-70 0 -128 17 l15 191 q39 -13 98 -13 q123 0 123 191 l0 749 q0 112 -48.5 158.5 q-48.5 46.5 -142.5 46.5 q-146 0 -218 -130 l0 -773 l-243 0 l0 1197 l-158 0 l0 171 l158 0 l0 168 l243 0 l0 -168 l267 0 l0 -171 Z" /><glyph glyph-name="" unicode="&#x454;" d="M574 174 q89 0 149 52 q60 52 66 132 l228 0 q-3 -102 -63 -190 q-60 -88 -161 -138 q-101 -50 -217 -50 q-228 0 -360 147.5 q-132 147.5 -132 405.5 l0 25 q0 247 132 395.5 q132 148.5 360 148.5 q192 0 314.5 -113 q122.5 -113 126.5 -295 l-228 0 q-7 96 -66 154.5 q-59 58.5 -150 58.5 q-110 0 -172.5 -74 q-62.5 -74 -72.5 -215 l347 0 l0 -168 l-346 0 q25 -276 245 -276 Z" /><glyph glyph-name="" unicode="&#x459;" d="M1018 1082 l0 -377 l248 0 q195 -3 309.5 -97 q114.5 -94 114.5 -253 q0 -160 -116.5 -256.5 q-116.5 -96.5 -311.5 -98.5 l-487 0 l0 886 l-282 0 l-21 -377 q-19 -270 -103 -389 q-84 -119 -259 -120 l-78 0 l-2 202 l50 5 q82 11 117.5 98.5 q35.5 87.5 45.5 314.5 l20 462 l755 0 ZM1018 511 l0 -319 l237 0 q88 0 140 44 q52 44 52 121 q0 72 -50 112.5 q-50 40.5 -136 41.5 l-243 0 Z" /><glyph glyph-name="" unicode="&#x45a;" d="M377 671 l421 0 l0 411 l243 0 l0 -377 l248 0 q195 -3 309.5 -97 q114.5 -94 114.5 -253 q0 -160 -116.5 -256.5 q-116.5 -96.5 -311.5 -98.5 l-487 0 l0 477 l-421 0 l0 -477 l-243 0 l0 1082 l243 0 l0 -411 ZM1041 511 l0 -319 l237 0 q90 0 141 45 q51 45 51 120 q0 70 -50 112 q-50 42 -141 42 l-238 0 Z" /><glyph glyph-name="" unicode="&#x45b;" d="M651 1205 l-287 0 l0 -241 q119 138 301 138 q346 0 351 -395 l0 -707 l-243 0 l0 698 q0 112 -48.5 158.5 q-48.5 46.5 -142.5 46.5 q-146 0 -218 -130 l0 -773 l-243 0 l0 1205 l-139 0 l0 170 l139 0 l0 161 l243 0 l0 -161 l287 0 l0 -170 Z" /><glyph glyph-name="" unicode="&#x45f;" d="M377 1082 l0 -888 l422 0 l0 888 l243 0 l0 -1082 l-331 0 l0 -358 l-243 0 l0 358 l-334 0 l0 1082 l243 0 Z" /><glyph glyph-name="" unicode="&#x460;" d="M1729 1456 l0 -1025 q0 -214 -124.5 -333 q-124.5 -119 -334.5 -119 q-229 0 -338 165 q-113 -165 -346 -165 q-207 0 -328.5 119.5 q-121.5 119.5 -121.5 332.5 l0 1025 l253 0 l0 -1028 q0 -117 51.5 -182 q51.5 -65 145.5 -65 q105 0 162 64.5 q57 64.5 57 183.5 l0 1027 l257 0 l0 -1028 q0 -116 54.5 -181.5 q54.5 -65.5 153.5 -65.5 q97 0 152 63.5 q55 63.5 55 184.5 l0 1027 l252 0 Z" /><glyph glyph-name="" unicode="&#x461;" d="M1517 1082 l0 -690 q-1 -193 -110 -303 q-109 -110 -298 -110 q-199 0 -295 142 q-102 -142 -305 -142 q-184 0 -290.5 110.5 q-106.5 110.5 -106.5 305.5 l0 687 l243 0 l0 -687 q0 -114 42 -168 q42 -54 112 -54 q83 0 134 54 q51 54 51 168 l0 687 l244 0 l0 -687 q0 -114 46 -168 q46 -54 125 -54 q74 0 119.5 54 q45.5 54 45.5 168 l0 687 l243 0 Z" /><glyph glyph-name="" unicode="&#x463;" d="M675 1082 l-290 0 l0 -311 l247 0 q196 -3 310.5 -106 q114.5 -103 114.5 -277 q0 -173 -114.5 -278.5 q-114.5 -105.5 -306.5 -109.5 l-494 0 l0 1082 l-174 0 l0 171 l174 0 l0 307 l243 0 l0 -307 l290 0 l0 -171 ZM385 576 l0 -382 l237 0 q91 0 141.5 50.5 q50.5 50.5 50.5 139.5 q0 85 -49.5 137.5 q-49.5 52.5 -136.5 54.5 l-243 0 Z" /><glyph glyph-name="" unicode="&#x464;" d="M404 847 l181 0 q11 190 86 332.5 q75 142.5 207.5 220 q132.5 77.5 303.5 77.5 q241 0 388 -131 q147 -131 171 -370 l-252 0 q-18 157 -91.5 226.5 q-73.5 69.5 -215.5 69.5 q-161 0 -246.5 -110.5 q-85.5 -110.5 -96.5 -314.5 l489 0 l0 -195 l-490 0 q2 -225 86 -346 q84 -121 246 -121 q149 0 224 67 q75 67 95 223 l252 0 q-22 -233 -172.5 -363.5 q-150.5 -130.5 -398.5 -130.5 q-172 0 -304 80.5 q-132 80.5 -205.5 234.5 q-73.5 154 -76.5 356 l-180 0 l0 -652 l-252 0 l0 1456 l252 0 l0 -609 Z" /><glyph glyph-name="" unicode="&#x465;" d="M377 625 l157 0 q20 222 150 349.5 q130 127.5 340 127.5 q193 0 315.5 -113 q122.5 -113 126.5 -295 l-228 0 q-7 96 -66 154.5 q-59 58.5 -150 58.5 q-219 0 -245 -282 l380 0 l0 -171 l-379 0 q10 -138 72.5 -209 q62.5 -71 172.5 -71 q89 0 149 52 q60 52 66 132 l228 0 q-3 -102 -63 -190 q-60 -88 -161 -138 q-101 -50 -217 -50 q-211 0 -340.5 127 q-129.5 127 -149.5 347 l-158 0 l0 -454 l-243 0 l0 1082 l243 0 l0 -457 Z" /><glyph glyph-name="" unicode="&#x466;" d="M899 426 l-126 0 l0 -426 l-225 0 l0 426 l-115 0 l-143 -426 l-262 0 l518 1456 l245 0 l512 -1456 l-262 0 l-142 426 ZM497 616 l339 0 l-168 504 l-171 -504 Z" /><glyph glyph-name="" unicode="&#x467;" d="M740 279 l-93 0 l0 -279 l-195 0 l0 279 l-91 0 l-104 -279 l-247 0 l425 1082 l231 0 l427 -1082 l-247 0 l-106 279 ZM426 452 l248 0 l-100 262 l-25 100 l-25 -100 l-98 -262 Z" /><glyph glyph-name="" unicode="&#x468;" d="M424 615 l360 0 l299 841 l245 0 l512 -1456 l-262 0 l-142 426 l-126 0 l0 -426 l-226 0 l0 426 l-114 0 l-143 -426 l-262 0 l152 427 l-293 0 l0 -427 l-252 0 l0 1456 l252 0 l0 -841 ZM1034 616 l339 0 l-169 505 l-170 -505 Z" /><glyph glyph-name="" unicode="&#x469;" d="M400 452 l254 0 l248 630 l231 0 l427 -1082 l-247 0 l-106 279 l-93 0 l0 -279 l-195 0 l0 279 l-91 0 l-104 -279 l-247 0 l109 279 l-186 0 l0 -279 l-243 0 l0 1082 l243 0 l0 -630 ZM893 452 l248 0 l-100 262 l-25 100 l-25 -100 l-98 -262 Z" /><glyph glyph-name="" unicode="&#x46a;" d="M1146 808 q254 -4 374.5 -112.5 q120.5 -108.5 125.5 -324.5 l0 -371 l-252 0 l0 364 q-2 129 -61 184.5 q-59 55.5 -202 55.5 l-104 0 l-6 -11 l0 -593 l-252 0 l0 604 l-126 0 q-143 0 -201.5 -55 q-58.5 -55 -61.5 -181 l0 -368 l-252 0 l0 364 q3 225 128 334.5 q125 109.5 396 109.5 l-379 648 l1252 0 l-379 -648 ZM899 826 l233 425 l-465 0 l232 -425 Z" /><glyph glyph-name="" unicode="&#x46b;" d="M130 0 l0 178 q2 206 100.5 311 q98.5 105 302.5 118 l-277 475 l1012 0 l-278 -476 q198 -17 293 -122.5 q95 -105.5 97 -304.5 l0 -179 l-243 0 l0 177 q-1 127 -48 184 q-47 57 -161 59 l-47 0 l-1 -3 l0 -417 l-242 0 l0 420 l-45 0 q-121 0 -169 -55 q-48 -55 -51 -179 l0 -186 l-243 0 ZM762 617 l149 290 l-298 0 l149 -290 Z" /><glyph glyph-name="" unicode="&#x46c;" d="M709 0 l0 352 q0 161 59 262 l-353 0 l0 -614 l-252 0 l0 1456 l252 0 l0 -645 l816 0 l-377 645 l1253 0 l-380 -648 q254 -4 374.5 -112.5 q120.5 -108.5 125.5 -324.5 l0 -371 l-252 0 l0 364 q-2 129 -61 184.5 q-59 55.5 -202 55.5 l-104 0 l-5 -9 l0 -595 l-252 0 l0 604 l-127 0 q-145 0 -202.5 -56.5 q-57.5 -56.5 -60.5 -180.5 l0 -367 l-252 0 ZM1481 825 l233 426 l-466 0 l233 -426 Z" /><glyph glyph-name="" unicode="&#x46d;" d="M661 0 l0 176 q1 148 54 248 l-329 0 l0 -424 l-243 0 l0 1082 l243 0 l0 -473 l677 0 l-276 473 l1012 0 l-278 -476 q197 -17 292 -123 q95 -106 97 -304 l0 -179 l-242 0 l0 177 q-1 127 -48 184 q-47 57 -162 59 l-46 0 l-1 -3 l0 -417 l-242 0 l0 420 l-45 0 q-121 0 -169 -55 q-48 -55 -51 -179 l0 -186 l-243 0 ZM1293 617 l149 290 l-298 0 l149 -290 Z" /><glyph glyph-name="" unicode="&#x46e;" d="M662 1057 q0 94 -66.5 147 q-66.5 53 -188.5 53 l-283 0 l0 199 l277 0 q237 0 370.5 -103.5 q133.5 -103.5 133.5 -284.5 q0 -112 -62.5 -193.5 q-62.5 -81.5 -172.5 -125.5 q268 -87 268 -341 q0 -197 -132.5 -313 q-132.5 -116 -364.5 -116 l-53 0 q-122 -3 -122 -102 q0 -107 152 -172 l-82 -153 q-132 40 -213 131.5 q-81 91.5 -83 218.5 q0 134 88.5 203.5 q88.5 69.5 252.5 71.5 l63 0 q114 1 182.5 63.5 q68.5 62.5 68.5 163.5 q0 243 -305 243 l-137 0 l0 199 l137 0 q272 0 272 211 ZM514 1773 l147 155 l207 0 l0 -10 l-278 -279 l-151 0 l-277 280 l0 9 l206 0 l146 -155 Z" /><glyph glyph-name="" unicode="&#x46f;" d="M628 766 q0 60 -57.5 95.5 q-57.5 35.5 -162.5 35.5 l-284 0 l0 185 l279 0 q220 0 344 -82.5 q124 -82.5 124 -223.5 q0 -79 -48.5 -138.5 q-48.5 -59.5 -135.5 -95.5 q217 -66 217 -238 q0 -150 -123 -237.5 q-123 -87.5 -331 -87.5 l-54 0 q-126 -4 -126 -102 q0 -107 144 -172 l-81 -145 q-130 48 -205 139 q-75 91 -77 203 q0 125 84.5 192.5 q84.5 67.5 245.5 68.5 l53 0 q108 0 167.5 40 q59.5 40 59.5 103 q0 148 -263 148 l-145 0 l0 169 l149 0 q226 0 226 143 ZM468 1409 l146 155 l208 0 l0 -11 l-279 -278 l-150 0 l-277 279 l0 10 l205 0 l147 -155 Z" /><glyph glyph-name="" unicode="&#x472;" d="M1303 690 q0 -214 -74 -375.5 q-74 -161.5 -211.5 -248 q-137.5 -86.5 -316.5 -86.5 q-176 0 -313 85 q-137 85 -213.5 243 q-76.5 158 -79.5 363 l0 93 q0 213 75 375 q75 162 213 249.5 q138 87.5 316 87.5 q178 0 315.5 -85.5 q137.5 -85.5 212.5 -246 q75 -160.5 76 -373.5 l0 -81 ZM699 1266 q-160 0 -251 -120 q-91 -120 -99 -337 l700 0 q-8 219 -98 338 q-90 119 -252 119 ZM701 188 q159 0 248.5 114.5 q89.5 114.5 99.5 336.5 l-700 0 q10 -217 102 -334 q92 -117 250 -117 Z" /><glyph glyph-name="" unicode="&#x473;" d="M79 551 q0 161 62.5 287.5 q62.5 126.5 176.5 195 q114 68.5 262 68.5 q218 0 355.5 -140.5 q137.5 -140.5 148.5 -374.5 l1 -57 q0 -160 -61.5 -286 q-61.5 -126 -177 -195 q-115.5 -69 -264.5 -69 q-227 0 -365 151 q-138 151 -138 408 l0 12 ZM582 174 q107 0 173.5 73 q66.5 73 82.5 210 l-513 0 q16 -136 82 -209.5 q66 -73.5 175 -73.5 ZM580 907 q-106 0 -172.5 -74.5 q-66.5 -74.5 -82.5 -204.5 l512 0 q-16 130 -82.5 204.5 q-66.5 74.5 -174.5 74.5 Z" /><glyph glyph-name="" unicode="&#x474;" d="M609 395 l27 -114 l27 111 l228 759 q53 172 131 247.5 q78 75.5 200 75.5 l45 -1 l-2 -215 l-24 0 q-84 -2 -123 -126 l-360 -1132 l-244 0 l-498 1456 l269 0 l324 -1061 Z" /><glyph glyph-name="" unicode="&#x475;" d="M483 366 l20 -97 l20 97 l122 446 q90 290 297 290 q67 0 106 -22 l-23 -192 q-12 6 -44 6 q-34 0 -63.5 -27 q-29.5 -27 -42.5 -69 l-266 -798 l-211 0 l-366 1082 l251 0 l200 -716 Z" /><glyph glyph-name="" unicode="&#x47a;" d="M1303 690 q0 -294 -134.5 -480.5 q-134.5 -186.5 -367.5 -221.5 l0 -126 l-198 0 l0 126 q-232 35 -368.5 220.5 q-136.5 185.5 -139.5 470.5 l0 85 q0 292 137 481 q137 189 370 224 l0 113 l198 0 l0 -114 q234 -35 368.5 -224 q134.5 -189 134.5 -484 l0 -70 ZM1050 766 q0 206 -65 328.5 q-65 122.5 -185 157.5 l0 -96 l-198 0 l0 97 q-121 -35 -187.5 -157.5 q-66.5 -122.5 -66.5 -329.5 l0 -76 q0 -199 66 -325.5 q66 -126.5 189 -163.5 l0 96 l198 0 l0 -95 q121 35 185 158 q64 123 64 330 l0 76 Z" /><glyph glyph-name="" unicode="&#x47b;" d="M79 551 q0 218 110.5 365 q110.5 147 299.5 178 l0 110 l184 0 l0 -109 q191 -31 301.5 -179 q110.5 -148 110.5 -369 l0 -17 q0 -219 -111.5 -366.5 q-111.5 -147.5 -302.5 -176.5 l0 -107 l-184 0 l0 108 q-187 31 -297.5 178 q-110.5 147 -110.5 368 l0 17 ZM671 189 q82 30 127 120.5 q45 90.5 45 241.5 q0 130 -45 219 q-45 89 -125 120 l0 -96 l-184 0 l0 96 q-79 -33 -123 -122 q-44 -89 -44 -238 q0 -131 43 -218 q43 -87 122 -120 l0 104 l184 0 l0 -107 Z" /><glyph glyph-name="" unicode="&#x47c;" d="M1268 1456 q206 0 327 -125 q121 -125 122 -346 l0 -534 q0 -221 -120.5 -346.5 q-120.5 -125.5 -328.5 -125.5 q-227 0 -341 158 q-114 -158 -341 -158 q-206 0 -326 123 q-120 123 -124 336 l0 544 q0 221 121.5 347.5 q121.5 126.5 328.5 126.5 l0 -204 q-95 0 -146 -71 q-51 -71 -51 -199 l0 -531 q0 -128 51 -199 q51 -71 146 -71 q105 0 162 64.5 q57 64.5 57 183.5 l0 386 l245 0 l0 -391 q1 -115 57.5 -179 q56.5 -64 160.5 -64 q95 0 146 71 q51 71 51 199 l0 531 q0 128 -51 199 q-51 71 -146 71 l0 204 ZM1374 1735 l0 -134 l-33 0 q-83 0 -152 17.5 q-69 17.5 -164.5 55 q-95.5 37.5 -119.5 42.5 q-24 5 -44 5 q-104 0 -104 -104 l0 -16 l-134 0 l0 34 q0 220 235 220 q37 0 72 -7.5 q35 -7.5 135.5 -47 q100.5 -39.5 156 -52.5 q55.5 -13 152.5 -13 ZM806 1358 q65 82 68 142 l0 104 l169 0 l0 -103 q0 -49 -48 -109 q-48 -60 -107 -91 l-82 57 Z" /><glyph glyph-name="" unicode="&#x47d;" d="M1082 1095 q186 0 296 -114.5 q110 -114.5 111 -318.5 l0 -248 q0 -204 -106 -319.5 q-106 -115.5 -287 -115.5 q-197 0 -294 145 q-99 -145 -293 -145 q-178 0 -283.5 112 q-105.5 112 -109.5 309 l0 259 q0 205 110 320.5 q110 115.5 297 115.5 l0 -195 q-73 0 -118.5 -58.5 q-45.5 -58.5 -45.5 -182.5 l0 -245 q0 -124 41.5 -182.5 q41.5 -58.5 108.5 -58.5 q80 0 127 56 q47 56 48 162 l0 202 l236 0 l0 -202 q1 -106 48 -162 q47 -56 128 -56 q66 0 108 58.5 q42 58.5 42 182.5 l0 245 q0 124 -45.5 182.5 q-45.5 58.5 -118.5 58.5 l0 195 ZM1271 1387 l0 -134 l-36 0 q-83 0 -152 17.5 q-69 17.5 -165.5 55.5 q-96.5 38 -118.5 42.5 q-22 4.5 -43 4.5 q-104 0 -104 -104 l0 -16 l-135 0 l0 34 q0 220 235 220 q37 0 72 -7.5 q35 -7.5 133.5 -46.5 q98.5 -39 154.5 -52.5 q56 -13.5 159 -13.5 ZM704 1008 q65 82 68 142 l0 104 l169 0 l0 -103 q0 -49 -48 -109 q-48 -60 -107 -91 l-82 57 Z" /><glyph glyph-name="" unicode="&#x47e;" d="M1729 1456 l0 -1025 q0 -214 -124.5 -333 q-124.5 -119 -334.5 -119 q-229 0 -338 165 q-113 -165 -346 -165 q-207 0 -328.5 119.5 q-121.5 119.5 -121.5 332.5 l0 1025 l253 0 l0 -1028 q0 -117 51.5 -182 q51.5 -65 145.5 -65 q105 0 162 64.5 q57 64.5 57 183.5 l0 1027 l257 0 l0 -1028 q0 -116 54.5 -181.5 q54.5 -65.5 153.5 -65.5 q97 0 152 63.5 q55 63.5 55 184.5 l0 1027 l252 0 ZM510 1687 l0 122 l853 0 l1 -122 l-346 0 l0 -127 l-181 0 l0 127 l-327 0 Z" /><glyph glyph-name="" unicode="&#x47f;" d="M1517 1082 l0 -690 q-1 -193 -110 -303 q-109 -110 -298 -110 q-199 0 -295 142 q-102 -142 -305 -142 q-184 0 -290.5 110.5 q-106.5 110.5 -106.5 305.5 l0 687 l243 0 l0 -687 q0 -114 42 -168 q42 -54 112 -54 q83 0 134 54 q51 54 51 168 l0 687 l244 0 l0 -687 q0 -114 46 -168 q46 -54 125 -54 q74 0 119.5 54 q45.5 54 45.5 168 l0 687 l243 0 ZM407 1334 l0 123 l824 0 l4 -123 l-334 0 l0 -127 l-181 0 l0 127 l-313 0 Z" /><glyph glyph-name="" unicode="&#x480;" d="M820 -372 l-251 0 l0 358 q-211 32 -339 195.5 q-128 163.5 -128 412.5 l0 273 q0 175 70.5 315 q70.5 140 199 217.5 q128.5 77.5 291.5 77.5 q256 0 399.5 -132.5 q143.5 -132.5 143.5 -365.5 l-252 0 q0 294 -291 294 q-140 0 -224.5 -111.5 q-84.5 -111.5 -84.5 -299.5 l0 -275 q0 -182 84.5 -293.5 q84.5 -111.5 222.5 -112.5 l159 0 l0 -553 Z" /><glyph glyph-name="" unicode="&#x481;" d="M725 -375 l-243 0 l0 362 q-179 32 -284.5 177.5 q-105.5 145.5 -105.5 365.5 l0 28 q0 155 60.5 281 q60.5 126 170 194.5 q109.5 68.5 255.5 68.5 q124 0 223 -51.5 q99 -51.5 154.5 -145 q55.5 -93.5 55.5 -211.5 l-229 0 q0 91 -58 152 q-58 61 -146 61 q-113 0 -178 -94.5 q-65 -94.5 -65 -262.5 l0 -27 q0 -161 63 -254.5 q63 -93.5 175 -95.5 l152 0 l0 -548 Z" /><glyph glyph-name="" unicode="&#x482;" d="M603 449 l289 -172 l-72 -128 l-291 170 l-181 -319 l-175 0 l225 398 l-289 171 l71 128 l293 -171 l202 360 l-290 171 l73 130 l291 -171 l185 326 l172 0 l-228 -405 l293 -171 l-76 -127 l-288 170 l-204 -360 Z" /><glyph glyph-name="" unicode="&#x483;" d="M-745 1312 l0 -126 l-177 1 l1 238 l546 0 l-1 108 l177 -1 l0 -220 l-546 0 Z" /><glyph glyph-name="" unicode="&#x484;" d="M-385 1557 q238 0 238 -220 l0 -34 l-136 0 l0 16 q0 104 -106 104 q-54 0 -197 -59.5 q-143 -59.5 -282 -60.5 l-41 0 l0 134 l39 0 q121 1 261 60.5 q140 59.5 224 59.5 Z" /><glyph glyph-name="" unicode="&#x485;" d="M-645 1500 l0 132 l189 0 l-1 -150 l59 -112 l-82 -68 l-165 198 Z" /><glyph glyph-name="" unicode="&#x486;" d="M-521 1302 l-82 68 l59 112 l-1 150 l189 0 l0 -132 l-165 -198 Z" /><glyph glyph-name="" unicode="&#x488;" d="M-751 1267 q0 84 57.5 136 q57.5 52 152.5 52 q95 0 153 -52 q58 -52 58 -136 l-112 0 q0 46 -25.5 73.5 q-25.5 27.5 -73.5 27.5 q-46 0 -71.5 -26.5 q-25.5 -26.5 -25.5 -74.5 l-113 0 ZM-160 990 q0 84 58 136 q58 52 151 52 q95 0 153.5 -51.5 q58.5 -51.5 58.5 -136.5 l-113 0 q0 49 -26.5 75 q-26.5 26 -72.5 26 q-44 0 -69.5 -26.5 q-25.5 -26.5 -25.5 -74.5 l-114 0 ZM26 487 q0 85 58.5 136.5 q58.5 51.5 151.5 51.5 q95 0 153 -52 q58 -52 58 -136 l-112 0 q0 49 -26.5 75 q-26.5 26 -72.5 26 q-46 0 -71.5 -27.5 q-25.5 -27.5 -25.5 -73.5 l-113 0 ZM-170 -32 q0 84 58 136 q58 52 151 52 q95 0 153 -52 q58 -52 58 -136 l-112 0 q0 49 -26.5 75 q-26.5 26 -72.5 26 q-45 0 -70.5 -27.5 q-25.5 -27.5 -25.5 -73.5 l-113 0 ZM-746 -316 q0 84 57.5 136 q57.5 52 152.5 52 q95 0 153 -52 q58 -52 58 -136 l-112 0 q0 46 -25.5 73.5 q-25.5 27.5 -73.5 27.5 q-46 0 -71.5 -27.5 q-25.5 -27.5 -25.5 -73.5 l-113 0 ZM-1324 990 q0 84 58 136 q58 52 153 52 q95 0 153 -52 q58 -52 58 -136 l-112 0 q0 46 -25.5 73.5 q-25.5 27.5 -73.5 27.5 q-46 0 -71.5 -26.5 q-25.5 -26.5 -25.5 -74.5 l-114 0 ZM-1500 487 q0 85 58.5 136.5 q58.5 51.5 151.5 51.5 q95 0 153 -52 q58 -52 58 -136 l-112 0 q0 49 -26.5 75 q-26.5 26 -72.5 26 q-46 0 -71.5 -27.5 q-25.5 -27.5 -25.5 -73.5 l-113 0 ZM-1334 -32 q0 85 58.5 136.5 q58.5 51.5 151.5 51.5 q95 0 153.5 -51.5 q58.5 -51.5 58.5 -136.5 l-113 0 q0 49 -26.5 75 q-26.5 26 -72.5 26 q-45 0 -70.5 -26.5 q-25.5 -26.5 -25.5 -74.5 l-114 0 Z" /><glyph glyph-name="" unicode="&#x489;" d="M-432 -60 l11 -14 l-122 -339 l-96 0 l70 353 l137 0 ZM-627 1126 l-12 14 l122 338 l96 0 l-70 -352 l-136 0 ZM50 631 l13 12 l333 -124 l0 -98 l-346 71 l0 139 ZM-1113 433 l-13 -12 l-333 124 l0 98 l346 -71 l0 -139 ZM-189 1002 l2 16 l320 153 l68 -68 l-293 -200 l-97 99 ZM-873 21 l-2 -17 l-320 -153 l-69 69 l294 200 l97 -99 ZM-1013 860 l-17 2 l-148 326 l65 69 l198 -299 l-98 -98 ZM-51 161 l17 -2 l148 -325 l-66 -71 l-196 299 l97 99 Z" /><glyph glyph-name="" unicode="&#x48d;" d="M675 1285 l-290 0 l0 -514 l247 0 q196 -3 310.5 -106 q114.5 -103 114.5 -277 q0 -173 -114.5 -278.5 q-114.5 -105.5 -306.5 -109.5 l-494 0 l0 1285 l-174 0 l0 171 l174 0 l0 178 l243 0 l0 -178 l290 0 l0 -171 ZM385 576 l0 -382 l237 0 q91 0 141.5 50.5 q50.5 50.5 50.5 139.5 q0 85 -49.5 137.5 q-49.5 52.5 -136.5 54.5 l-243 0 Z" /><glyph glyph-name="" unicode="&#x48e;" d="M401 541 l0 -541 l-253 0 l0 1456 l557 0 q244 0 387.5 -127 q143.5 -127 143.5 -336 q0 -193 -117 -312 l122 -135 l-109 -100 l-136 150 q-121 -55 -291 -55 l-304 0 ZM954 864 q28 53 28 127 q0 118 -72 188.5 q-72 70.5 -198 72.5 l-311 0 l0 -508 l304 0 q79 0 137 22 l-115 128 l110 100 l117 -130 Z" /><glyph glyph-name="" unicode="&#x48f;" d="M1072 530 q0 -244 -110 -395 l106 -122 l-111 -99 l-104 120 q-89 -54 -201 -54 q-178 0 -285 117 l0 -513 l-243 0 l0 1498 l224 0 l10 -110 q107 130 291 130 q198 0 310.5 -147.5 q112.5 -147.5 112.5 -409.5 l0 -15 ZM830 551 q0 162 -64.5 257 q-64.5 95 -184.5 95 q-149 0 -214 -123 l0 -480 q66 -126 216 -126 q70 0 120 33 l-106 123 l110 100 l89 -103 q34 88 34 224 Z" /><glyph glyph-name="" unicode="&#x490;" d="M1076 1252 l-680 0 l0 -1252 l-253 0 l0 1456 l690 0 l0 352 l243 0 l0 -556 Z" /><glyph glyph-name="" unicode="&#x491;" d="M859 886 l-490 0 l0 -886 l-243 0 l0 1082 l491 0 l0 313 l242 0 l0 -509 Z" /><glyph glyph-name="" unicode="&#x494;" d="M1079 1252 l-672 0 l0 -417 l168 0 q290 0 448 -153.5 q158 -153.5 158 -429.5 q0 -268 -133 -417 q-133 -149 -376 -149 l-1 186 q131 0 199 89.5 q68 89.5 68 283.5 q-2 379 -343 388 l-188 0 l0 -633 l-252 0 l0 1456 l924 0 l0 -204 Z" /><glyph glyph-name="" unicode="&#x495;" d="M838 886 l-469 0 l0 -229 l73 0 q257 0 401 -131 q144 -131 144 -352 q0 -96 -47 -193 q-47 -97 -132.5 -167.5 q-85.5 -70.5 -200.5 -99.5 l-85 174 q222 74 222 286 q0 129 -77.5 204.5 q-77.5 75.5 -219.5 75.5 l-78 0 l0 -454 l-243 0 l0 1082 l712 0 l0 -196 Z" /><glyph glyph-name="" unicode="&#x49c;" d="M1293 1456 l-388 -677 l429 -779 l-319 0 l-301 621 l-65 0 l0 -233 l-163 0 l0 233 l-89 0 l0 -621 l-253 0 l0 1456 l253 0 l0 -614 l89 0 l0 254 l163 0 l0 -254 l55 0 l283 614 l306 0 Z" /><glyph glyph-name="" unicode="&#x49d;" d="M1172 1082 l-316 -514 l342 -568 l-309 0 l-216 428 l-47 0 l0 -178 l-155 0 l0 178 l-87 0 l0 -428 l-242 0 l0 1082 l242 0 l0 -432 l87 0 l0 199 l155 0 l0 -199 l39 0 l207 432 l300 0 Z" /><glyph glyph-name="" unicode="&#x4a0;" d="M950 624 l-173 0 l0 -624 l-252 0 l0 1260 l-473 0 l0 196 l725 0 l0 -612 l139 0 l429 612 l310 0 l-500 -697 l543 -759 l-304 0 l-444 624 Z" /><glyph glyph-name="" unicode="&#x4a1;" d="M832 428 l-123 0 l0 -428 l-242 0 l0 886 l-406 0 l0 196 l648 0 l0 -432 l108 0 l298 432 l301 0 l-392 -519 l424 -563 l-315 0 l-301 428 Z" /><glyph glyph-name="" unicode="&#x4a4;" d="M401 850 l651 0 l0 606 l871 0 l0 -195 l-619 0 l0 -1261 l-252 0 l0 647 l-651 0 l0 -647 l-253 0 l0 1456 l253 0 l0 -606 Z" /><glyph glyph-name="" unicode="&#x4a5;" d="M369 631 l421 0 l0 451 l592 0 l0 -196 l-349 0 l0 -886 l-243 0 l0 437 l-421 0 l0 -437 l-243 0 l0 1082 l243 0 l0 -451 Z" /><glyph glyph-name="" unicode="&#x4a6;" d="M1300 833 l125 0 q290 0 448 -153.5 q158 -153.5 158 -429.5 q0 -268 -133 -417 q-133 -149 -376 -149 l-1 186 q131 0 199 89.5 q68 89.5 68 283.5 q-2 379 -343 388 l-145 0 l0 -631 l-252 0 l0 1252 l-641 0 l0 -1252 l-252 0 l0 1456 l1145 0 l0 -623 Z" /><glyph glyph-name="" unicode="&#x4a7;" d="M1034 660 l125 0 q263 0 413 -130.5 q150 -130.5 150 -352.5 q0 -97 -46.5 -192.5 q-46.5 -95.5 -132 -166.5 q-85.5 -71 -200.5 -100 l-85 173 q117 40 169.5 111.5 q52.5 71.5 52.5 174.5 q0 130 -82.5 205.5 q-82.5 75.5 -236.5 75.5 l-127 0 l0 -458 l-243 0 l0 886 l-422 0 l0 -886 l-243 0 l0 1082 l908 0 l0 -422 Z" /><glyph glyph-name="" unicode="&#x4a8;" d="M1495 -21 q-223 0 -402 71 q-148 -71 -331 -71 q-187 0 -337 87 q-150 87 -234.5 242 q-84.5 155 -87.5 346 l0 201 q0 175 62.5 318 q62.5 143 175 223.5 q112.5 80.5 252.5 80.5 l0 -212 q-102 0 -165 -112.5 q-63 -112.5 -63 -301.5 l0 -184 q0 -215 109.5 -346.5 q109.5 -131.5 287.5 -131.5 q49 0 90 7 q-226 203 -226 527 l0 203 q0 240 118.5 394.5 q118.5 154.5 302.5 154.5 q194 0 315.5 -160.5 q121.5 -160.5 121.5 -422.5 l0 -198 q0 -294 -187 -496 q92 -20 198 -20 l0 -199 ZM869 715 q0 -132 50.5 -238.5 q50.5 -106.5 149.5 -178.5 q162 143 162 408 l0 213 q0 174 -48 259.5 q-48 85.5 -136 85.5 q-84 0 -131 -87.5 q-47 -87.5 -47 -248.5 l0 -213 Z" /><glyph glyph-name="" unicode="&#x4a9;" d="M1225 -18 q-186 0 -333 54 q-122 -57 -266 -57 q-229 0 -379 161 q-150 161 -150 421 l0 66 q0 207 109.5 341 q109.5 134 279.5 134 l0 -202 q-64 -4 -101.5 -78 q-37.5 -74 -37.5 -197 l0 -73 q0 -166 77 -268 q77 -102 202 -102 l37 2 q-143 149 -143 375 l0 122 q0 187 91 304 q91 117 239 117 q150 0 244.5 -127.5 q94.5 -127.5 94.5 -332.5 l0 -119 q0 -211 -129 -359 q77 -17 165 -17 l0 -165 ZM727 546 q0 -170 120 -278 q99 99 99 268 l0 123 q0 107 -30.5 174.5 q-30.5 67.5 -79.5 67.5 q-50 0 -79.5 -60 q-29.5 -60 -29.5 -166 l0 -129 Z" /><glyph glyph-name="" unicode="&#x4b4;" d="M397 1260 l-352 0 l0 196 l958 0 l0 -196 l-353 0 l0 -1058 l641 0 l0 1254 l252 0 l0 -1252 l176 0 l-20 -555 l-231 0 l0 351 l-1071 0 l0 1260 Z" /><glyph glyph-name="" unicode="&#x4b5;" d="M283 887 l-245 0 l0 195 l707 0 l0 -195 l-219 0 l0 -693 l422 0 l0 888 l243 0 l0 -888 l147 0 l-20 -515 l-221 0 l0 321 l-814 0 l0 887 Z" /><glyph glyph-name="" unicode="&#x4b8;" d="M381 1456 l0 -468 q2 -152 81 -209 q53 -39 163 -44 l0 299 l163 0 l0 -292 q108 10 208 35 l0 679 l253 0 l0 -1456 l-253 0 l0 572 q-96 -24 -208 -34 l0 -235 l-163 0 l0 229 q-246 6 -371 123 q-125 117 -126 340 l0 461 l253 0 Z" /><glyph glyph-name="" unicode="&#x4b9;" d="M1013 0 l-243 0 l0 361 q-69 -14 -118 -19 l0 -138 l-163 0 l0 139 q-182 19 -277 123 q-95 104 -96 281 l0 336 l242 0 l0 -336 q1 -172 131 -203 l0 267 l163 0 l0 -273 q59 6 118 20 l0 524 l243 0 l0 -1082 Z" /><glyph glyph-name="" unicode="&#x4ba;" d="M133 0 l0 1456 l252 0 l0 -573 q160 41 338 41 q261 0 395 -115 q134 -115 135 -348 l0 -461 l-252 0 l0 464 q-1 139 -64 198 q-63 59 -214 59 q-174 0 -338 -42 l0 -679 l-252 0 Z" /><glyph glyph-name="" unicode="&#x4bc;" d="M988 -23 q-302 0 -473 170 q-171 170 -171 469 l0 60 q-155 24 -238.5 130 q-83.5 106 -83.5 276 l181 0 q0 -182 141 -224 q0 174 74 316 q74 142 206 222 q132 80 290 79 q264 0 409 -178 q145 -178 145 -505 l0 -132 l-872 0 l0 -53 q0 -202 101.5 -309.5 q101.5 -107.5 290.5 -107.5 q177 0 349 70 l49 -197 q-67 -40 -175 -63 q-108 -23 -223 -23 ZM596 853 l620 0 l0 31 q0 184 -77 280 q-77 96 -225 96 q-142 0 -230 -110.5 q-88 -110.5 -88 -296.5 Z" /><glyph glyph-name="" unicode="&#x4bd;" d="M728 -20 q-212 0 -353 125.5 q-141 125.5 -161 334.5 l-3 50 q-130 29 -197 125.5 q-67 96.5 -67 243.5 l169 0 q0 -149 104 -197 q31 197 162.5 318.5 q131.5 121.5 318.5 121.5 q221 0 341.5 -141 q120.5 -141 120.5 -399 l0 -98 l-707 0 q11 -134 89.5 -212 q78.5 -78 197.5 -78 q168 0 271 135 l132 -125 q-65 -97 -174 -150.5 q-109 -53.5 -244 -53.5 ZM460 642 l463 0 l0 18 q-8 122 -65 184.5 q-57 62.5 -158 62.5 q-101 0 -162 -70 q-61 -70 -78 -195 Z" /><glyph glyph-name="" unicode="&#x4c3;" d="M405 625 l-8 0 l0 -625 l-253 0 l0 1456 l253 0 l0 -604 l113 0 l434 604 l306 0 l-478 -630 q233 -31 361 -179.5 q128 -148.5 128 -397.5 q0 -269 -136 -419.5 q-136 -150.5 -380 -150.5 l-1 194 q265 0 265 367 q-2 378 -340 384 l-264 0 l0 1 Z" /><glyph glyph-name="" unicode="&#x4c4;" d="M717 609 q175 -41 269 -154.5 q94 -113.5 94 -286.5 q0 -96 -47 -189 q-47 -93 -132 -161 q-85 -68 -200 -96 l-85 173 q224 71 222 273 q0 118 -70.5 184.5 q-70.5 66.5 -209.5 75.5 l-174 0 l0 -428 l-242 0 l0 1082 l242 0 l0 -432 l85 0 l321 432 l301 0 l-374 -473 Z" /><glyph glyph-name="" unicode="&#x4c7;" d="M407 1456 l0 -637 l639 0 l0 637 l253 0 l0 -1512 q0 -183 -95 -282 q-95 -99 -264 -99 q-69 0 -129 17 l14 199 q36 -12 98 -12 q123 0 123 186 l0 664 l-639 0 l0 -617 l-252 0 l0 1456 l252 0 Z" /><glyph glyph-name="" unicode="&#x4c8;" d="M369 1082 l0 -451 l421 0 l0 451 l243 0 l0 -1147 q-1 -179 -94 -275.5 q-93 -96.5 -259 -96.5 q-69 0 -127 17 l15 191 q39 -13 98 -13 q124 0 124 192 l0 487 l-421 0 l0 -437 l-243 0 l0 1082 l243 0 Z" /><glyph glyph-name="" unicode="&#x4d8;" d="M625 1476 q320 0 502.5 -186 q182.5 -186 182.5 -516 l0 -107 q0 -193 -80 -352 q-80 -159 -222.5 -247.5 q-142.5 -88.5 -311.5 -87.5 q-292 0 -453.5 176 q-161.5 176 -161.5 505 l0 137 l976 0 q-5 224 -116.5 344 q-111.5 120 -315.5 120 q-167 0 -318 -52 l-52 -19 l-49 198 l27 13 q166 74 392 74 ZM696 192 q150 0 245 109 q95 109 113 298 l-721 0 l0 -31 q0 -185 93 -280.5 q93 -95.5 270 -95.5 Z" /><glyph glyph-name="" unicode="&#x4e0;" d="M767 1252 l-622 0 l0 204 l913 0 l1 -163 l-378 -433 q200 -24 309 -141 q109 -117 109 -311 q0 -197 -141.5 -313 q-141.5 -116 -375.5 -116 q-139 0 -252 51.5 q-113 51.5 -176 147 q-63 95.5 -63 226.5 l252 0 q0 -95 67.5 -159 q67.5 -64 171.5 -64 q121 0 193 63.5 q72 63.5 72 163.5 q0 148 -76.5 214.5 q-76.5 66.5 -221.5 66.5 l-140 0 l0 172 l358 391 Z" /><glyph glyph-name="" unicode="&#x4e1;" d="M756 886 l-613 0 l0 196 l908 0 l1 -155 l-376 -445 q203 -25 310.5 -141.5 q107.5 -116.5 107.5 -307.5 q0 -194 -139 -311 q-139 -117 -374 -117 q-137 0 -251 52 q-114 52 -175.5 147.5 q-61.5 95.5 -61.5 224.5 l243 0 q0 -96 68.5 -162.5 q68.5 -66.5 176.5 -66.5 q122 0 196 64 q74 64 74 169 q0 150 -77 215.5 q-77 65.5 -224 65.5 l-143 0 l0 171 l349 401 Z" /><glyph glyph-name="" unicode="&#x500;" d="M902 923 l0 533 l253 0 l0 -1456 l-550 0 q-157 0 -276 58 q-119 58 -183 164 q-64 106 -64 242 q0 204 138.5 330 q138.5 126 373.5 129 l308 0 ZM902 202 l0 518 l-297 0 q-124 0 -197 -68.5 q-73 -68.5 -73 -185.5 q0 -116 69.5 -188.5 q69.5 -72.5 190.5 -75.5 l307 0 Z" /><glyph glyph-name="" unicode="&#x502;" d="M626 0 q-236 0 -379 126.5 q-143 126.5 -143 337.5 q0 206 138.5 331 q138.5 125 373.5 128 l308 0 l0 533 l252 0 l0 -1254 l75 0 q94 2 148 71 q54 69 59 194 q2 74 -14.5 182.5 q-16.5 108.5 -45.5 184.5 l245 0 q31 -94 50 -196 q19 -102 17 -171 q-4 -212 -125.5 -338 q-121.5 -126 -325.5 -129 l-633 0 ZM924 202 l0 518 l-298 0 q-125 0 -197 -69 q-72 -69 -72 -185 q0 -117 71 -190 q71 -73 193 -74 l303 0 Z" /><glyph glyph-name="" unicode="&#x503;" d="M94 526 q0 266 114 421 q114 155 309 155 q163 0 264 -120 l0 578 l243 0 l0 -1201 q-2 -79 37 -131.5 q39 -52.5 106 -52.5 q116 2 181 93.5 q65 91.5 69 260.5 q4 190 -60 403 l236 0 l23 -89 q47 -183 44 -314 q-2 -168 -64.5 -292.5 q-62.5 -124.5 -175.5 -191 q-113 -66.5 -253 -66.5 q-257 -4 -342 179 q-107 -179 -310 -179 q-185 0 -297 130.5 q-112 130.5 -123 352.5 l-1 64 ZM781 799 q-71 104 -202 104 q-115 0 -178.5 -96.5 q-63.5 -96.5 -63.5 -301.5 q0 -158 61 -243 q61 -85 179 -85 q141 0 210 114 l-6 68 l0 440 Z" /><glyph glyph-name="" unicode="&#x504;" d="M230 610 l0 205 l167 0 q147 1 213 55.5 q66 54.5 66 171.5 q0 209 -269 209 l-347 0 l0 205 l356 0 q250 -1 381 -106.5 q131 -105.5 131 -309.5 q0 -230 -255 -330 q246 -63 251 -321 l0 -77 q-1 -57 29 -93.5 q30 -36.5 81 -36.5 q101 2 158 93 q57 91 61 254 q4 190 -60 403 l245 0 q26 -98 47.5 -199 q21.5 -101 19.5 -204 q-2 -169 -63 -293 q-61 -124 -170 -190.5 q-109 -66.5 -247 -66.5 q-167 -4 -256 79.5 q-89 83.5 -97 253.5 l0 62 q0 110 -62 173 q-62 63 -165 63 l-215 0 Z" /><glyph glyph-name="" unicode="&#x505;" d="M769 235 q-2 -88 76 -88 q90 2 138 73.5 q48 71.5 51 198.5 q4 150 -61 319 l236 0 q45 -134 57 -198 q12 -64 11 -121 q-4 -204 -120.5 -325 q-116.5 -121 -304.5 -121 q-158 -3 -238 53.5 q-80 56.5 -88 187.5 l0 72 q0 127 -162 127 l-230 0 l-2 189 l194 0 q185 4 185 135 q0 150 -203 150 l-255 0 l-6 195 l276 0 q203 -2 317 -85 q114 -83 114 -238 q0 -155 -176 -229 q185 -48 191 -220 l0 -75 Z" /><glyph glyph-name="" unicode="&#x506;" d="M151 604 l-1 195 l206 0 q145 1 209.5 58.5 q64.5 57.5 64.5 168.5 q0 235 -277 235 l-278 0 l-3 195 l302 0 q239 -3 368.5 -113 q129.5 -110 129.5 -311 q0 -223 -228 -325 q227 -71 230 -337 l0 -134 l205 0 l0 -172 q0 -99 -50 -207 q-50 -108 -140 -183 l-131 77 q36 57 64 116.5 q28 59.5 36 132.5 l-163 0 q-60 49 -63 226 l0 132 q0 113 -63 179.5 q-63 66.5 -179 66.5 l-239 0 Z" /><glyph glyph-name="" unicode="&#x507;" d="M179 411 l-1 179 l225 0 q210 0 210 142 q0 74 -53.5 115.5 q-53.5 41.5 -152.5 41.5 l-287 0 l-4 193 l288 0 q227 0 347 -100 q106 -89 106 -235 q0 -158 -173 -237 q177 -60 179 -255 l0 -36 l187 0 l0 -172 q0 -101 -52 -210 q-52 -109 -137 -180 l-131 77 q38 61 66 124 q28 63 34 142 l-166 0 q-43 30 -44 161 l0 84 q0 166 -195 166 l-246 0 Z" /><glyph glyph-name="" unicode="&#x508;" d="M1031 1251 l-415 0 l-24 -544 q-14 -266 -62.5 -416.5 q-48.5 -150.5 -141 -219.5 q-92.5 -69 -248.5 -71 l-74 0 l0 202 l40 3 q122 9 174 120.5 q52 111.5 67 395.5 l28 735 l910 0 l0 -1092 q0 -82 38 -132 q38 -50 101 -50 q110 0 173.5 90 q63.5 90 67.5 257 q4 187 -61 403 l246 0 q28 -102 48.5 -201.5 q20.5 -99.5 18.5 -201.5 q-2 -167 -65.5 -292.5 q-63.5 -125.5 -175.5 -191.5 q-112 -66 -252 -66 q-195 0 -294 96.5 q-99 96.5 -99 285.5 l0 890 Z" /><glyph glyph-name="" unicode="&#x509;" d="M791 884 l-265 0 l-19 -358 q-17 -279 -101 -401 q-84 -122 -257 -125 l-83 0 l-2 202 l50 5 q80 11 116.5 97.5 q36.5 86.5 46.5 315.5 l20 462 l737 0 l0 -725 q1 -82 41.5 -132 q40.5 -50 109.5 -50 q88 0 139.5 80 q51.5 80 55.5 233 q4 181 -60 381 l236 0 l22 -80 q48 -177 45 -301 q-2 -155 -58 -270 q-56 -115 -155.5 -177 q-99.5 -62 -224.5 -62 q-194 0 -293.5 95 q-99.5 95 -100.5 280 l0 530 Z" /><glyph glyph-name="" unicode="&#x50a;" d="M1290 1456 l0 -1092 q0 -86 38.5 -134 q38.5 -48 100.5 -48 q112 2 175 91.5 q63 89.5 67 255.5 q4 187 -61 403 l246 0 l23 -89 q47 -183 44 -314 q-2 -168 -64 -291.5 q-62 -123.5 -175 -191 q-113 -67.5 -255 -67.5 q-187 -4 -284.5 92 q-97.5 96 -106.5 291 l0 255 l-638 0 l0 -617 l-252 0 l0 1456 l252 0 l0 -637 l638 0 l0 637 l252 0 Z" /><glyph glyph-name="" unicode="&#x50b;" d="M794 442 l-432 0 l0 -442 l-243 0 l0 1082 l243 0 l0 -445 l432 0 l0 445 l243 0 l0 -723 q-2 -82 39 -133 q41 -51 111 -51 q94 2 144 85 q50 83 53 228 q4 175 -60 381 l235 0 q26 -93 47.5 -188.5 q21.5 -95.5 19.5 -192.5 q-2 -155 -58 -270 q-56 -115 -155.5 -177 q-99.5 -62 -225.5 -62 q-374 -8 -393 380 l0 83 Z" /><glyph glyph-name="" unicode="&#x50c;" d="M699 -21 q-172 0 -310.5 78 q-138.5 78 -216 218 q-77.5 140 -79.5 313 l0 271 q0 175 77 317.5 q77 142.5 216.5 221.5 q139.5 79 312.5 79 q223 0 359 -89 l-63 -184 q-134 68 -296 68 q-157 0 -255.5 -115.5 q-98.5 -115.5 -98.5 -303.5 l0 -256 q0 -182 98 -298.5 q98 -116.5 256 -116.5 q125 2 190.5 68.5 q65.5 66.5 68.5 182.5 q3 149 -50 353 l245 0 l39 -177 q19 -88 18 -176 q-2 -139 -66.5 -241.5 q-64.5 -102.5 -181.5 -157.5 q-117 -55 -263 -55 Z" /><glyph glyph-name="" unicode="&#x50d;" d="M602 175 q81 2 115.5 35.5 q34.5 33.5 36.5 104.5 q0 119 -19 222 l235 0 q29 -140 27 -222 q-4 -160 -109 -248 q-105 -88 -286 -88 q-231 0 -374 152.5 q-143 152.5 -143 400.5 l0 30 q0 151 62 276 q62 125 175 194.5 q113 69.5 259 69.5 q187 0 283 -66 l-46 -189 q-99 58 -237 58 q-114 0 -183.5 -94.5 q-69.5 -94.5 -69.5 -258.5 l0 -32 q0 -154 74 -249.5 q74 -95.5 200 -95.5 Z" /><glyph glyph-name="" unicode="&#x50e;" d="M483 1251 l-450 0 l0 205 l1152 0 l0 -205 l-450 0 l0 -889 q0 -84 38.5 -132 q38.5 -48 100.5 -48 q112 2 175 93 q63 91 67 254 q4 187 -61 403 l245 0 q27 -98 48.5 -199 q21.5 -101 18.5 -204 q-2 -168 -64.5 -292.5 q-62.5 -124.5 -175.5 -191 q-113 -66.5 -253 -66.5 q-187 -4 -284.5 92 q-97.5 96 -106.5 291 l0 889 Z" /><glyph glyph-name="" unicode="&#x50f;" d="M393 887 l-325 0 l0 195 l907 0 l0 -195 l-339 0 l0 -528 q0 -84 41 -134 q41 -50 110 -50 q94 2 143.5 68 q49.5 66 52.5 182 q4 147 -60 305 l235 0 q44 -124 56.5 -187 q12.5 -63 11.5 -118 q-4 -204 -124.5 -325 q-120.5 -121 -314.5 -121 q-375 -8 -394 380 l0 528 Z" /><glyph glyph-name="" unicode="&#x510;" d="M383 408 q0 -101 91.5 -164 q91.5 -63 244.5 -63 q134 0 221 64.5 q87 64.5 87 158.5 l252 0 q0 -130 -70.5 -225 q-70.5 -95 -200 -147.5 q-129.5 -52.5 -289.5 -52.5 q-269 0 -429.5 116.5 q-160.5 116.5 -160.5 312.5 q0 253 270 340 q-118 49 -183 132 q-65 83 -65 181 q0 197 151.5 306.5 q151.5 109.5 416.5 109.5 q151 0 276 -52.5 q125 -52.5 194.5 -145.5 q69.5 -93 69.5 -212 l-253 0 q0 89 -81.5 147.5 q-81.5 58.5 -205.5 58.5 q-144 0 -229 -57.5 q-85 -57.5 -85 -156.5 q0 -217 307 -217 l182 0 l0 -200 l-191 0 q-157 0 -238.5 -56 q-81.5 -56 -81.5 -178 Z" /><glyph glyph-name="" unicode="&#x2000;" d="" /><glyph glyph-name="" unicode="&#x2001;" d="" /><glyph glyph-name="" unicode="&#x2002;" d="" /><glyph glyph-name="" unicode="&#x2003;" d="" /><glyph glyph-name="" unicode="&#x2004;" d="" /><glyph glyph-name="" unicode="&#x2005;" d="" /><glyph glyph-name="" unicode="&#x2006;" d="" /><glyph glyph-name="" unicode="&#x2007;" d="" /><glyph glyph-name="" unicode="&#x2008;" d="" /><glyph glyph-name="" unicode="&#x2009;" d="" /><glyph glyph-name="" unicode="&#x200a;" d="" /><glyph glyph-name="" unicode="&#x200b;" d="" /><glyph glyph-name="" unicode="&#x2018;" d="M282 1562 l124 -77 q-91 -133 -94 -277 l0 -152 l-213 0 l0 138 q1 96 52.5 200.5 q51.5 104.5 130.5 167.5 Z" /><glyph glyph-name="" unicode="&#x2019;" d="M175 1024 l-124 77 q90 131 93 277 l0 158 l213 0 l0 -138 q0 -103 -52.5 -207.5 q-52.5 -104.5 -129.5 -166.5 Z" /><glyph glyph-name="" unicode="&#x201a;" d="M173 -298 l-123 78 q85 127 88 275 l0 147 l218 0 l0 -133 q-1 -93 -52 -197 q-51 -104 -131 -170 Z" /><glyph glyph-name="" unicode="&#x201b;" d="M287 1536 l0 -158 q3 -143 93 -277 l-124 -77 q-77 62 -129.5 166.5 q-52.5 104.5 -52.5 207.5 l0 138 l213 0 Z" /><glyph glyph-name="" unicode="&#x201e;" d="M177 -318 l-127 78 q85 137 88 294 l0 201 l218 0 l0 -186 q-1 -108 -56 -222 q-49 -100 -123 -165 ZM499 -318 l-127 78 q88 142 92 292 l0 203 l218 0 l0 -182 q0 -99 -51 -209.5 q-51 -110.5 -132 -181.5 Z" /><glyph glyph-name="" unicode="&#x2020;" d="M1054 882 l-376 0 l0 -882 l-243 0 l0 882 l-371 0 l0 200 l371 0 l0 374 l243 0 l0 -374 l376 0 l0 -200 Z" /><glyph glyph-name="" unicode="&#x2021;" d="M1081 0 l-376 0 l0 -416 l-243 0 l0 416 l-370 0 l0 194 l370 0 l0 692 l-370 0 l0 196 l370 0 l0 374 l243 0 l0 -374 l376 0 l0 -196 l-376 0 l0 -692 l376 0 l0 -194 Z" /><glyph glyph-name="" unicode="&#x2022;" d="M136 771 q0 95 60.5 155.5 q60.5 60.5 160.5 60.5 q103 0 163 -60.5 q60 -60.5 60 -158.5 l0 -37 q0 -94 -59.5 -153.5 q-59.5 -59.5 -162.5 -59.5 q-99 0 -159.5 57.5 q-60.5 57.5 -62.5 150.5 l0 45 Z" /><glyph glyph-name="" unicode="&#x2027;" d="M289 521 l-218 0 l0 196 l218 0 l0 -196 Z" /><glyph glyph-name="" unicode="&#x2030;" d="M815 357 q0 130 86 215 q86 85 222 85 q150 0 228 -111 q78 111 227 111 q134 0 221.5 -83.5 q87.5 -83.5 87.5 -223.5 l0 -71 q0 -129 -84.5 -214 q-84.5 -85 -222.5 -85 q-151 0 -229 110 q-78 -110 -226 -110 q-138 0 -224 85 q-86 85 -86 219 l0 73 ZM74 1175 q0 131 84 216 q84 85 217 85 q138 0 223.5 -85 q85.5 -85 85.5 -222 l0 -70 q0 -130 -85.5 -214.5 q-85.5 -84.5 -221.5 -84.5 q-133 0 -218 84.5 q-85 84.5 -85 221.5 l0 69 ZM449 109 l-125 72 l711 1138 l125 -72 l-711 -1138 ZM984 279 q0 -68 39.5 -111.5 q39.5 -43.5 101.5 -43.5 q64 0 101 41 q37 41 37 117 l0 75 q0 70 -39 112 q-39 42 -101 42 q-62 0 -100.5 -42 q-38.5 -42 -38.5 -116 l0 -74 ZM1439 279 q0 -68 39.5 -111.5 q39.5 -43.5 101.5 -43.5 q64 0 101 41 q37 41 37 117 l0 75 q0 70 -39 112 q-39 42 -101 42 q-62 0 -100.5 -42 q-38.5 -42 -38.5 -116 l0 -74 ZM237 1099 q0 -69 38.5 -111.5 q38.5 -42.5 101.5 -42.5 q62 0 100 42.5 q38 42.5 38 115.5 l0 72 q0 70 -38.5 113 q-38.5 43 -101.5 43 q-63 0 -100.5 -43.5 q-37.5 -43.5 -37.5 -116.5 l0 -72 Z" /><glyph glyph-name="" unicode="&#x2039;" d="M316 537 l247 -399 l-167 0 l-288 390 l0 19 l288 390 l167 0 l-247 -400 Z" /><glyph glyph-name="" unicode="&#x203a;" d="M251 937 l288 -390 l0 -19 l-288 -390 l-167 0 l247 399 l-247 400 l167 0 Z" /><glyph glyph-name="" unicode="&#x2044;" d="M170 109 l-125 72 l711 1138 l125 -72 l-711 -1138 Z" /><glyph glyph-name="" unicode="&#x207f;" d="M257 1452 l32 -121 q75 135 219 135 q259 0 259 -311 l0 -503 l-197 0 l0 474 q-5 173 -130 173 q-99 0 -138 -89 l0 -558 l-197 0 l0 800 l152 0 Z" /><glyph glyph-name="" unicode="&#x20a4;" d="M818 468 l-304 0 l2 -46 q0 -135 -64 -220 l696 0 l-1 -202 l-1049 0 l0 202 l82 0 q39 9 60.5 64.5 q21.5 55.5 21.5 146.5 l-2 55 l-165 0 l0 145 l160 0 l-4 121 l-156 0 l0 144 l151 0 l-5 161 q0 202 125 319 q125 117 328 117 q203 0 319 -109 q116 -109 116 -293 l-245 0 q0 95 -52.5 147.5 q-52.5 52.5 -147.5 52.5 q-88 0 -139.5 -65 q-51.5 -65 -51.5 -169 l6 -161 l319 0 l0 -144 l-314 0 l5 -121 l309 0 l0 -145 Z" /><glyph glyph-name="" unicode="&#x20a6;" d="M1399 965 l216 0 l0 -160 l-216 0 l0 -151 l216 0 l0 -160 l-216 0 l0 -494 l-253 0 l-311 494 l-339 0 l0 -494 l-252 0 l0 494 l-211 0 l0 160 l211 0 l0 151 l-211 0 l0 160 l211 0 l0 491 l252 0 l309 -491 l343 0 l0 491 l251 0 l0 -491 ZM1000 654 l148 0 l0 151 l-243 0 l95 -151 ZM496 654 l238 0 l-95 151 l-143 0 l0 -151 ZM1148 419 l0 75 l-47 0 l47 -75 ZM496 965 l43 0 l-43 68 l0 -68 Z" /><glyph glyph-name="" unicode="&#x20a7;" d="M1587 902 l-191 0 l0 -604 q0 -61 25 -89 q25 -28 88 -28 q38 0 85 10 l0 -188 q-83 -23 -160 -23 q-280 0 -280 309 l0 613 l-120 0 q-28 -173 -150 -266.5 q-122 -93.5 -324 -96.5 l-158 0 l0 -539 l-250 0 l0 1456 l396 0 q212 0 338.5 -97.5 q126.5 -97.5 150.5 -276.5 l117 0 l0 263 l242 0 l0 -263 l191 0 l0 -180 ZM402 743 l146 0 q244 0 244 256 q0 247 -230 253 l-160 0 l0 -509 Z" /><glyph glyph-name="" unicode="&#x20a9;" d="M1176 1031 l305 0 l87 425 l251 0 l-98 -425 l154 0 l0 -160 l-191 0 l-37 -162 l228 0 l0 -160 l-265 0 l-126 -549 l-243 0 l-144 549 l-270 0 l-146 -549 l-242 0 l-127 549 l-259 0 l0 160 l222 0 l-37 162 l-185 0 l0 160 l148 0 l-98 425 l251 0 l88 -425 l308 0 l108 425 l212 0 l106 -425 ZM508 709 l159 0 l42 162 l-234 0 l33 -162 ZM1257 709 l159 0 l33 162 l-233 0 l41 -162 ZM870 709 l186 0 l-42 162 l-101 0 l-43 -162 ZM1345 359 l38 190 l-86 0 l48 -190 ZM579 364 l47 185 l-85 0 l38 -185 ZM964 1062 l-8 -31 l16 0 l-8 31 Z" /><glyph glyph-name="" unicode="&#x20aa;" d="M780 1082 q187 0 274 -96 q87 -96 89 -299 l0 -331 l-243 0 l0 322 q0 109 -45 158.5 q-45 49.5 -150 49.5 l-338 0 l0 -886 l-243 0 l0 1082 l656 0 ZM533 0 l0 726 l243 0 l0 -531 l336 0 q106 0 150.5 48.5 q44.5 48.5 45.5 152.5 l0 686 l244 0 l0 -681 q-1 -188 -120.5 -294.5 q-119.5 -106.5 -339.5 -106.5 l-559 0 Z" /><glyph glyph-name="" unicode="&#x20ac;" d="M874 527 l-356 0 q6 -174 87.5 -260 q81.5 -86 233.5 -86 q110 0 205 33 l28 -204 q-120 -29 -248 -29 q-256 0 -403 144 q-147 144 -155 402 l-172 0 l0 141 l172 0 l0 128 l-172 0 l0 141 l173 0 q13 255 163 396.5 q150 141.5 403 141.5 q106 0 239 -31 l-28 -205 q-102 34 -203 34 q-151 0 -232 -86 q-81 -86 -90 -250 l355 0 l0 -141 l-356 0 l0 -128 l356 0 l0 -141 Z" /><glyph glyph-name="" unicode="&#x20b1;" d="M470 541 l0 -541 l-253 0 l0 799 l-184 0 l0 160 l184 0 l0 72 l-184 0 l0 160 l184 0 l0 265 l557 0 q173 0 301.5 -68 q128.5 -68 188.5 -197 l228 0 l0 -160 l-189 0 l2 -38 l-1 -34 l188 0 l0 -160 l-225 0 q-54 -125 -179 -191.5 q-125 -66.5 -314 -66.5 l-304 0 ZM1051 991 l-3 40 l-578 0 l0 -72 l579 0 l2 32 ZM470 1191 l496 0 q-70 59 -184 61 l-312 0 l0 -61 ZM970 799 l-500 0 l0 -55 l305 0 q123 0 195 55 Z" /><glyph glyph-name="" unicode="&#x20b9;" d="M985 1273 l-218 0 q51 -75 66 -176 l202 0 l-50 -182 l-151 0 q-22 -165 -132 -252.5 q-110 -87.5 -311 -104.5 l466 -545 l0 -13 l-287 0 l-509 593 l-1 153 l253 0 q112 0 177.5 46.5 q65.5 46.5 87.5 122.5 l-538 0 l51 182 l483 0 q-49 155 -265 155 l-269 0 l54 204 l942 0 l-51 -183 Z" /><glyph glyph-name="" unicode="&#x20ba;" d="M1105 767 l0 -89 q-2 -210 -77 -368.5 q-75 -158.5 -212.5 -244 q-137.5 -85.5 -315.5 -85.5 q-107 0 -247 20 l0 605 l-220 -87 l0 199 l220 87 l0 137 l-220 -87 l0 200 l220 87 l0 315 l252 0 l0 -215 l225 90 l0 -200 l-225 -90 l0 -137 l225 90 l0 -200 l-225 -89 l0 -517 q170 2 259 128 q89 126 89 374 l0 77 l252 0 Z" /><glyph glyph-name="" unicode="&#x20bc;" d="M808 874 q224 -41 353.5 -224 q129.5 -183 133.5 -459 l0 -191 l-243 0 l0 184 q-1 197 -65.5 316.5 q-64.5 119.5 -178.5 161.5 l0 -662 l-243 0 l0 661 q-113 -42 -178 -163.5 q-65 -121.5 -65 -320.5 l0 -177 l-243 0 l0 186 q3 276 133 460 q130 184 353 227 l0 209 l243 0 l0 -208 Z" /><glyph glyph-name="" unicode="&#x20bd;" d="M819 231 l-322 0 l0 -231 l-252 0 l0 231 l-205 0 l0 203 l205 0 l0 107 l-205 0 l0 203 l205 0 l0 712 l557 0 q241 0 385 -125.5 q144 -125.5 144 -333.5 q0 -212 -137 -332.5 q-137 -120.5 -381 -123.5 l-316 0 l0 -107 l322 0 l0 -203 ZM497 744 l301 0 q136 0 208 63 q72 63 72 188 q0 112 -70.5 183 q-70.5 71 -194.5 74 l-316 0 l0 -508 Z" /><glyph glyph-name="" unicode="&#x2105;" d="M689 1061 q0 -115 -79.5 -188 q-79.5 -73 -207.5 -73 q-128 0 -209 83.5 q-81 83.5 -81 221.5 l0 71 q0 130 79 215.5 q79 85.5 209 85.5 q128 0 208.5 -74 q80.5 -74 80.5 -189 l-170 0 q0 53 -32.5 85 q-32.5 32 -86.5 32 q-52 0 -85 -42 q-33 -42 -33 -116 l0 -74 q0 -69 33.5 -111.5 q33.5 -42.5 86.5 -42.5 q53 0 85 33.5 q32 33.5 32 82.5 l170 0 ZM799 357 q0 134 87 217 q87 83 222 83 q136 0 222.5 -83 q86.5 -83 86.5 -224 l0 -71 q0 -130 -83.5 -214.5 q-83.5 -84.5 -223.5 -84.5 q-140 0 -225.5 83.5 q-85.5 83.5 -85.5 220.5 l0 73 ZM969 279 q0 -68 39.5 -111.5 q39.5 -43.5 101.5 -43.5 q64 0 100.5 41.5 q36.5 41.5 36.5 116.5 l0 75 q0 70 -39 112 q-39 42 -100 42 q-62 0 -100.5 -42 q-38.5 -42 -38.5 -116 l0 -74 ZM452 109 l-126 72 l711 1138 l126 -72 l-711 -1138 Z" /><glyph glyph-name="" unicode="&#x2113;" d="M731 -21 q-225 0 -343.5 117.5 q-118.5 117.5 -118.5 346.5 q-97 -19 -193 -19 l0 187 q97 0 193 24 l0 489 q3 191 92 298 q89 107 243 107 q136 0 222 -90 q86 -90 86 -245 l0 -38 q0 -173 -107.5 -344.5 q-107.5 -171.5 -285.5 -274.5 l0 -77 q0 -142 52 -203 q52 -61 160 -61 l0 -217 ZM519 776 q77 75 120.5 177 q43.5 102 43.5 204 l0 41 q0 63 -21.5 95 q-21.5 32 -53.5 32 q-86 0 -89 -178 l0 -371 Z" /><glyph glyph-name="" unicode="&#x2116;" d="M1943 412 l-609 0 l0 149 l609 0 l0 -149 ZM1293 1120 q0 159 95 255.5 q95 96.5 251 96.5 q156 0 251.5 -96 q95.5 -96 95.5 -262 l0 -78 q0 -156 -93 -253 q-93 -97 -252 -97 q-159 0 -253.5 97 q-94.5 97 -94.5 259 l0 78 ZM1468 1036 q0 -96 46 -150 q46 -54 127 -54 q79 0 124.5 54 q45.5 54 45.5 153 l0 81 q0 95 -46 149.5 q-46 54.5 -126 54.5 q-79 0 -125 -54.5 q-46 -54.5 -46 -152.5 l0 -81 ZM1155 0 l-268 0 l-499 1034 l0 -1034 l-244 0 l0 1456 l267 0 l502 -1037 l0 1037 l242 0 l0 -1456 Z" /><glyph glyph-name="" unicode="&#x2122;" d="M1000 1289 l-124 -373 l-62 0 l-124 372 l0 -372 l-111 0 l0 540 l137 0 l129 -381 l133 381 l133 0 l0 -540 l-111 0 l0 373 ZM505 1361 l-138 0 l0 -443 l-117 0 l0 443 l-141 0 l0 95 l396 0 l0 -95 Z" /><glyph glyph-name="" unicode="&#x212e;" d="M1044 94 q-183 -114 -370 -114 q-145 0 -267 78.5 q-122 78.5 -189.5 207 q-67.5 128.5 -67.5 275.5 q0 143 72 272.5 q72 129.5 196 209 q124 79.5 256 79.5 q133 0 246.5 -69.5 q113.5 -69.5 179.5 -191 q66 -121.5 69 -265.5 l0 -62 l-768 0 l0 -328 q119 -110 273 -110 q196 0 368 122 l2 -104 ZM674 1008 q-151 0 -273 -122 l0 -277 l540 0 l0 286 q-115 113 -267 113 Z" /><glyph glyph-name="" unicode="&#x2202;" d="M568 1028 q174 0 293 -125 q-26 194 -124.5 308.5 q-98.5 114.5 -230.5 114.5 q-124 0 -263 -53 l-29 183 l60 25 q110 44 253 44 q269 0 416.5 -217 q147.5 -217 147.5 -615 l0 -53 q0 -193 -61 -343.5 q-61 -150.5 -174.5 -234 q-113.5 -83.5 -261.5 -83.5 q-227 0 -361.5 146 q-134.5 146 -134.5 393 l0 13 q0 223 127 360 q127 137 343 137 ZM596 834 q-123 0 -189.5 -83.5 q-66.5 -83.5 -66.5 -247.5 q0 -154 66 -242 q66 -88 188 -88 q121 0 187.5 104 q66.5 104 66.5 301 l0 85 q-22 76 -91.5 123.5 q-69.5 47.5 -160.5 47.5 Z" /><glyph glyph-name="" unicode="&#x220f;" d="M1268 -229 l-244 0 l0 1492 l-615 0 l0 -1492 l-243 0 l0 1685 l1102 0 l0 -1685 Z" /><glyph glyph-name="" unicode="&#x2211;" d="M911 579 l-530 -653 l836 0 l0 -195 l-1153 0 l0 151 l591 712 l-591 710 l0 152 l1095 0 l0 -195 l-778 0 l530 -653 l0 -29 Z" /><glyph glyph-name="" unicode="&#x2212;" d="M1007 621 l-849 0 l0 196 l849 0 l0 -196 Z" /><glyph glyph-name="" unicode="&#x221a;" d="M577 299 l376 1157 l217 0 l-489 -1456 l-197 0 l-216 577 l-209 0 l0 197 l359 0 l159 -475 Z" /><glyph glyph-name="" unicode="&#x221e;" d="M2015 529 q0 -152 -64 -278.5 q-64 -126.5 -179 -198.5 q-115 -72 -259 -72 q-141 0 -257.5 81.5 q-116.5 81.5 -201.5 248.5 q-170 -330 -459 -330 q-143 0 -257.5 71 q-114.5 71 -179 198.5 q-64.5 127.5 -64.5 280.5 l0 21 q0 152 64.5 280 q64.5 128 178.5 199.5 q114 71.5 256 71.5 q292 0 461 -327 q169 327 461 327 q142 0 256 -71.5 q114 -71.5 178.5 -198 q64.5 -126.5 65.5 -277.5 l0 -26 ZM1776 551 q0 154 -73 253 q-73 99 -195 99 q-164 0 -274 -201 q-40 -74 -55 -140 l0 -36 q15 -69 61 -154 q107 -195 266 -195 q121 0 195.5 97.5 q74.5 97.5 74.5 259.5 l0 17 ZM333 529 q0 -157 73 -254.5 q73 -97.5 196 -97.5 q105 0 191 89.5 q86 89.5 129 233.5 l7 26 l0 36 q-15 66 -55 140 q-110 201 -274 201 q-121 0 -194 -97.5 q-73 -97.5 -73 -276.5 Z" /><glyph glyph-name="" unicode="&#x222b;" d="M400 -79 q0 -176 -91 -267 q-91 -91 -261 -91 q-66 0 -129 19 l18 189 q44 -13 81 -13 q138 0 140 157 l0 1268 q0 179 96 276.5 q96 97.5 274 97.5 q63 0 152 -21 l-25 -185 q-42 11 -92 11 q-163 0 -163 -184 l0 -1257 Z" /><glyph glyph-name="" unicode="&#x2248;" d="M101 910 q48 50 114 78 q66 28 132 28 q82 2 158 -32 l156 -78 q70 -32 151 -32 q132 0 233 126 l0 -217 q-102 -106 -229 -106 q-81 0 -151 32 l-152 76 q-79 36 -163 34 q-66 0 -133.5 -33 q-67.5 -33 -115.5 -93 l0 217 ZM101 490 q48 50 112 78 q64 28 130 28 q84 2 163 -34 l152 -76 q70 -32 151 -32 q135 0 236 126 l0 -217 q-102 -106 -233 -106 q-81 0 -151 32 l-156 78 q-76 34 -158 32 q-66 0 -132 -33 q-66 -33 -114 -93 l0 217 Z" /><glyph glyph-name="" unicode="&#x2260;" d="M1007 356 l-542 0 l-128 -228 l-109 62 l93 166 l-176 0 l0 201 l289 0 l126 223 l-415 0 l0 202 l528 0 l134 237 l110 -62 l-99 -175 l189 0 l0 -202 l-303 0 l-125 -223 l428 0 l0 -201 Z" /><glyph glyph-name="" unicode="&#x25ca;" d="M420 1456 l196 0 l387 -729 l-384 -727 l-197 0 l-386 727 l384 729 ZM517 1197 l-237 -470 l242 -471 l236 471 l-241 470 Z" /><glyph glyph-name="" unicode="&#xee02;" d="M256 639 l-157 0 l0 442 l157 0 l0 -442 ZM574 639 l-157 0 l0 442 l157 0 l0 -442 Z" /><glyph glyph-name="" unicode="&#xf6c3;" d="M197 -153 l-128 77 q73 115 76 238 l0 100 l201 0 l0 -79 q-1 -93 -42.5 -186 q-41.5 -93 -106.5 -150 Z" /><glyph glyph-name="" unicode="&#xfb01;" d="M189 0 l0 902 l-165 0 l0 180 l165 0 l0 74 q1 127 54 218 q53 91 150 137 q97 46 233 46 q80 0 153.5 -17 q73.5 -17 152.5 -43 l-37 -201 q-138 48 -252 48 q-111 0 -161 -48.5 q-50 -48.5 -50 -145.5 l0 -68 l213 0 l0 -180 l-213 0 l0 -902 l-243 0 ZM1047 0 l-243 0 l0 1082 l243 0 l0 -1082 Z" /><glyph glyph-name="" unicode="&#xfb02;" d="M825 1343 q-102 14 -176 14 q-196 0 -196 -184 l0 -91 l220 0 l0 -180 l-220 0 l0 -902 l-243 0 l0 902 l-165 0 l0 180 l165 0 l0 97 q1 183 108.5 280.5 q107.5 97.5 303.5 97.5 q122 0 446 -48 l0 -1509 l-243 0 l0 1343 Z" /><glyph glyph-name="" unicode="&#xfb03;" d="M210 0 l0 902 l-165 0 l0 180 l165 0 l0 99 q0 180 100 278 q100 98 280 98 q64 0 136 -18 l-6 -190 q-40 8 -93 8 q-174 0 -174 -179 l0 -96 l372 0 l0 74 q1 127 54 218 q53 91 150 137 q97 46 233 46 q80 0 153.5 -17 q73.5 -17 152.5 -43 l-38 -201 q-136 48 -251 48 q-111 0 -161 -48.5 q-50 -48.5 -50 -145.5 l0 -68 l213 0 l0 -180 l-213 0 l0 -902 l-243 0 l0 902 l-372 0 l0 -902 l-243 0 ZM1683 0 l-243 0 l0 1082 l243 0 l0 -1082 Z" /><glyph glyph-name="" unicode="&#xfb04;" d="M210 0 l0 902 l-165 0 l0 180 l165 0 l0 99 q0 180 100 278 q100 98 280 98 q64 0 136 -18 l-6 -190 q-40 8 -93 8 q-174 0 -174 -179 l0 -96 l372 0 l0 97 q1 183 108.5 280.5 q107.5 97.5 303.5 97.5 q122 0 446 -48 l0 -1509 l-243 0 l0 1343 q-102 14 -176 14 q-196 0 -196 -184 l0 -91 l220 0 l0 -180 l-220 0 l0 -902 l-243 0 l0 902 l-372 0 l0 -902 l-243 0 Z" /><glyph glyph-name="" unicode="&#xfeff;" d="" /><glyph glyph-name="" unicode="&#xfffc;" d="M823 468 q0 -98 -64.5 -158.5 q-64.5 -60.5 -164.5 -60.5 q-102 0 -166 60 q-64 60 -66 154 l0 117 q0 95 63 157 q63 62 167 62 q101 0 165 -60 q64 -60 66 -154 l0 -117 ZM890 252 l0 549 l188 0 q98 0 155 -36.5 q57 -36.5 57 -113.5 q0 -84 -84 -116 q50 -13 76 -48 q26 -35 26 -80 q0 -155 -208 -155 l-210 0 ZM731 580 q0 69 -37 108 q-37 39 -102 39 q-64 0 -101 -39 q-37 -39 -37 -108 l0 -112 q0 -69 37 -108 q37 -39 103 -39 q64 0 100.5 39 q36.5 39 36.5 108 l0 112 ZM1685 803 l92 0 l0 -378 q0 -78 -52.5 -124.5 q-52.5 -46.5 -134.5 -46.5 q-88 0 -142.5 40.5 q-54.5 40.5 -54.5 123.5 l93 0 q0 -91 104 -91 q41 0 68 27 q27 27 27 71 l0 378 ZM89 -398 l0 315 l113 0 l0 -202 l196 0 l0 -113 l-309 0 ZM1718 -398 l0 113 l199 0 l0 202 l111 0 l0 -315 l-310 0 ZM89 1169 l0 285 l309 0 l0 -116 l-196 0 l0 -169 l-113 0 ZM1718 1338 l0 116 l310 0 l0 -285 l-111 0 l0 169 l-199 0 ZM985 496 l0 -169 l126 0 q103 0 103 83 q0 82 -98 86 l-131 0 ZM1319 1338 l0 116 l278 0 l0 -116 l-278 0 ZM920 1338 l0 116 l277 0 l0 -116 l-277 0 ZM521 1338 l0 116 l276 0 l0 -116 l-276 0 ZM1319 -398 l0 113 l278 0 l0 -113 l-278 0 ZM920 -398 l0 113 l277 0 l0 -113 l-277 0 ZM521 -398 l0 113 l276 0 l0 -113 l-276 0 ZM985 566 l93 0 q118 0 118 80 q0 41 -29 56 q-29 15 -89 15 l-93 0 l0 -151 ZM202 416 l-113 0 l0 252 l113 0 l0 -252 ZM202 794 l-113 0 l0 250 l113 0 l0 -250 ZM202 41 l-113 0 l0 249 l113 0 l0 -249 ZM2028 416 l-111 0 l0 252 l111 0 l0 -252 ZM2028 794 l-111 0 l0 250 l111 0 l0 -250 ZM2028 41 l-111 0 l0 249 l111 0 l0 -249 Z" /><glyph glyph-name="" unicode="&#xfffd;" d="M1048 1618 l959 -975 l-959 -975 l-956 975 l956 975 ZM1131 402 q0 58 15 87 q15 29 51 53 q74 39 120 106.5 q46 67.5 46 141.5 q0 128 -83.5 203.5 q-83.5 75.5 -232.5 75.5 q-144 0 -224 -69.5 q-80 -69.5 -82 -196.5 l203 0 q2 51 31 77 q29 26 72 26 q57 0 85 -32 q28 -32 28 -84 q0 -95 -93 -155 q-91 -65 -114.5 -111 q-23.5 -46 -23.5 -122 l202 0 ZM1131 311 l-202 0 l0 -170 l202 0 l0 170 ZM1056 -551 l4 0 l0 -4 l-4 0 l0 4 ZM1054 2163 l4 0 l0 -4 l-4 0 l0 4 Z" /><glyph glyph-name="" unicode=" " d="" /><glyph glyph-name="" unicode="&#x110;" d="M178 0 l0 652 l-187 0 l0 170 l187 0 l0 634 l430 0 q193 0 342.5 -86 q149.5 -86 231.5 -244 q82 -158 82 -362 l0 -73 q0 -207 -82.5 -364 q-82.5 -157 -235 -242 q-152.5 -85 -349.5 -85 l-419 0 ZM660 652 l-229 0 l0 -450 l163 0 q203 0 309.5 126.5 q106.5 126.5 106.5 366.5 l0 70 q0 237 -103 362 q-103 125 -299 125 l-177 0 l0 -430 l229 0 l0 -170 Z" /><glyph glyph-name="" unicode="ð" d="M178 0 l0 652 l-187 0 l0 170 l187 0 l0 634 l430 0 q193 0 342.5 -86 q149.5 -86 231.5 -244 q82 -158 82 -362 l0 -73 q0 -207 -82.5 -364 q-82.5 -157 -235 -242 q-152.5 -85 -349.5 -85 l-419 0 ZM660 652 l-229 0 l0 -450 l163 0 q203 0 309.5 126.5 q106.5 126.5 106.5 366.5 l0 70 q0 237 -103 362 q-103 125 -299 125 l-177 0 l0 -430 l229 0 l0 -170 Z" /><glyph glyph-name="" unicode="&#x127;" d="M625 1223 l-231 0 l0 -259 q119 138 301 138 q346 0 351 -395 l0 -707 l-243 0 l0 698 q0 112 -48.5 158.5 q-48.5 46.5 -142.5 46.5 q-146 0 -218 -130 l0 -773 l-243 0 l0 1223 l-195 0 l0 170 l195 0 l0 143 l243 0 l0 -143 l231 0 l0 -170 Z" /><glyph glyph-name="" unicode="&#x166;" d="M953 786 l-207 0 l0 -786 l-251 0 l0 786 l-211 0 l0 170 l211 0 l0 296 l-450 0 l0 204 l1155 0 l0 -204 l-454 0 l0 -296 l207 0 l0 -170 Z" /><glyph glyph-name="" unicode="&#x167;" d="M429 1345 l0 -263 l191 0 l0 -180 l-191 0 l0 -165 l216 0 l0 -170 l-216 0 l0 -269 q0 -62 24.5 -89.5 q24.5 -27.5 87.5 -27.5 q42 0 85 10 l0 -188 q-83 -23 -160 -23 q-280 0 -280 309 l0 278 l-210 0 l0 170 l210 0 l0 165 l-178 0 l0 180 l178 0 l0 263 l243 0 Z" /><glyph glyph-name="" unicode="&#x104;" d="M795 1456 l551 -1456 l-62 0 q-87 -56 -124 -103 q-37 -47 -37 -96 q0 -68 71 -68 q44 0 90 23 l21 -142 q-73 -44 -165 -44 q-95 0 -153 55 q-58 55 -58 146 q0 141 149 239 l-115 329 l-564 0 l-118 -339 l-263 0 l550 1456 l227 0 ZM470 543 l422 0 l-211 604 l-211 -604 Z" /><glyph glyph-name="" unicode="&#x105;" d="M767 7 q-11 25 -24 94 q-116 -121 -284 -121 q-163 0 -266 93 q-103 93 -103 230 q0 173 128.5 265.5 q128.5 92.5 367.5 92.5 l149 0 l0 71 q0 84 -47 134.5 q-47 50.5 -143 50.5 q-83 0 -136 -41.5 q-53 -41.5 -53 -105.5 l-243 0 q0 89 59 166.5 q59 77.5 160.5 121.5 q101.5 44 226.5 44 q190 0 303 -95.5 q113 -95.5 116 -268.5 l0 -488 q0 -146 41 -233 l0 -17 l-42 0 q-87 -56 -124 -103 q-37 -47 -37 -96 q0 -68 71 -68 q44 0 90 23 l21 -142 q-73 -44 -165 -44 q-95 0 -153 55 q-58 55 -58 146 q0 140 145 236 ZM504 175 q72 0 135.5 35 q63.5 35 95.5 94 l0 204 l-131 0 q-135 0 -203 -47 q-68 -47 -68 -133 q0 -70 46.5 -111.5 q46.5 -41.5 124.5 -41.5 Z" /><glyph glyph-name="" unicode="&#x118;" d="M999 650 l-598 0 l0 -448 l699 0 l0 -202 l-111 0 q-87 -56 -124 -103 q-37 -47 -37 -96 q0 -68 71 -68 q44 0 90 23 l21 -142 q-73 -44 -165 -44 q-95 0 -153 55 q-58 55 -58 146 q0 134 135 229 l-621 0 l0 1456 l945 0 l0 -204 l-692 0 l0 -402 l598 0 l0 -200 Z" /><glyph glyph-name="" unicode="&#x119;" d="M1018 184 q-73 -106 -186 -157 q-87 -56 -124 -103 q-37 -47 -37 -96 q0 -68 71 -68 q44 0 90 23 l21 -142 q-73 -44 -165 -44 q-95 0 -153 55 q-58 55 -58 146 q0 102 80 184 q-207 13 -337.5 150.5 q-130.5 137.5 -136.5 352.5 l0 58 q0 162 62.5 289.5 q62.5 127.5 175.5 198.5 q113 71 252 71 q221 0 341.5 -141 q120.5 -141 120.5 -399 l0 -98 l-707 0 q11 -134 89.5 -212 q78.5 -78 197.5 -78 q167 0 272 135 l131 -125 ZM572 907 q-100 0 -161.5 -70 q-61.5 -70 -78.5 -195 l463 0 l0 18 q-8 122 -65 184.5 q-57 62.5 -158 62.5 Z" /><glyph glyph-name="" unicode="&#x172;" d="M1213 1456 l0 -974 q0 -152 -66.5 -266 q-66.5 -114 -192.5 -175 q-61 -41 -100.5 -85.5 q-39.5 -44.5 -39.5 -99.5 q0 -68 71 -68 q44 0 90 23 l21 -142 q-73 -44 -165 -44 q-95 0 -153 55 q-58 55 -58 146 q0 85 54 154 q-256 0 -402.5 134 q-146.5 134 -146.5 369 l0 973 l252 0 l0 -974 q0 -146 74 -223 q74 -77 218 -77 q292 0 292 308 l0 966 l252 0 Z" /><glyph glyph-name="" unicode="&#x173;" d="M994 0 q-87 -56 -124 -103 q-37 -47 -37 -96 q0 -68 71 -68 q44 0 90 23 l21 -142 q-73 -44 -165 -44 q-95 0 -153 55 q-58 55 -58 146 q0 140 146 237 l-5 98 q-107 -126 -304 -126 q-176 0 -266.5 103 q-90.5 103 -90.5 298 l0 701 l243 0 l0 -698 q0 -206 171 -206 q177 0 239 127 l0 777 l243 0 l0 -1082 l-21 0 Z" /><glyph glyph-name="" unicode="&#x405;" d="M909 375 q0 96 -67.5 148 q-67.5 52 -243.5 105 q-176 53 -280 118 q-199 125 -199 326 q0 176 143.5 290 q143.5 114 372.5 114 q152 0 271 -56 q119 -56 187 -159.5 q68 -103.5 68 -229.5 l-252 0 q0 114 -71.5 178.5 q-71.5 64.5 -204.5 64.5 q-124 0 -192.5 -53 q-68.5 -53 -68.5 -148 q0 -80 74 -133.5 q74 -53.5 244 -104 q170 -50.5 273 -115 q103 -64.5 151 -148 q48 -83.5 48 -195.5 q0 -182 -139.5 -289.5 q-139.5 -107.5 -378.5 -107.5 q-158 0 -290.5 58.5 q-132.5 58.5 -206 161.5 q-73.5 103 -73.5 240 l253 0 q0 -124 82 -192 q82 -68 235 -68 q132 0 198.5 53.5 q66.5 53.5 66.5 141.5 Z" /><glyph glyph-name="" unicode="&#x441;" d="M569 174 q91 0 151 53 q60 53 64 131 l229 0 q-4 -101 -63 -188.5 q-59 -87.5 -160 -138.5 q-101 -51 -218 -51 q-227 0 -360 147 q-133 147 -133 406 l0 25 q0 247 132 395.5 q132 148.5 360 148.5 q193 0 314.5 -112.5 q121.5 -112.5 127.5 -295.5 l-229 0 q-4 93 -63.5 153 q-59.5 60 -151.5 60 q-118 0 -182 -85.5 q-64 -85.5 -65 -259.5 l0 -39 q0 -176 63.5 -262.5 q63.5 -86.5 183.5 -86.5 Z" /><glyph glyph-name="" unicode="&#x111;" d="M1202 1225 l-175 0 l0 -1225 l-220 0 l-12 112 q-109 -132 -291 -132 q-190 0 -307.5 153 q-117.5 153 -117.5 416 q0 250 116 401.5 q116 151.5 311 151.5 q172 0 278 -120 l0 243 l-251 0 l0 170 l251 0 l0 141 l243 0 l0 -141 l175 0 l0 -170 ZM322 528 q0 -165 63.5 -257.5 q63.5 -92.5 180.5 -92.5 q149 0 218 133 l0 462 q-67 130 -216 130 q-118 0 -182 -93.5 q-64 -93.5 -64 -281.5 Z" /><glyph glyph-name="" unicode="&#x48c;" d="M621 1095 l-224 0 l0 -196 l298 0 q160 0 279 -55 q119 -55 181 -156 q62 -101 62 -234 q0 -204 -138.5 -328 q-138.5 -124 -377.5 -126 l-557 0 l0 1095 l-192 0 l0 170 l192 0 l0 191 l253 0 l0 -191 l224 0 l0 -170 ZM397 696 l0 -494 l297 0 q128 0 199.5 69.5 q71.5 69.5 71.5 184.5 q0 110 -70 174 q-70 64 -194 66 l-304 0 Z" /><glyph glyph-name="" unicode="&#x462;" d="M621 1095 l-224 0 l0 -196 l298 0 q160 0 279 -55 q119 -55 181 -156 q62 -101 62 -234 q0 -204 -138.5 -328 q-138.5 -124 -377.5 -126 l-557 0 l0 1095 l-192 0 l0 170 l192 0 l0 191 l253 0 l0 -191 l224 0 l0 -170 ZM397 696 l0 -494 l297 0 q128 0 199.5 69.5 q71.5 69.5 71.5 184.5 q0 110 -70 174 q-70 64 -194 66 l-304 0 Z" /><glyph glyph-name="" unicode="&#x492;" d="M653 671 l-246 0 l0 -671 l-252 0 l0 671 l-171 0 l0 170 l171 0 l0 615 l924 0 l0 -204 l-672 0 l0 -411 l246 0 l0 -170 Z" /><glyph glyph-name="" unicode="&#x493;" d="M639 465 l-264 0 l0 -465 l-242 0 l0 465 l-163 0 l0 170 l163 0 l0 447 l712 0 l0 -196 l-470 0 l0 -251 l264 0 l0 -170 Z" /><glyph glyph-name="" unicode="&#x49e;" d="M599 624 l-172 0 l0 -624 l-252 0 l0 1087 l-204 0 l0 170 l204 0 l0 199 l252 0 l0 -199 l213 0 l0 -170 l-213 0 l0 -243 l139 0 l428 612 l310 0 l-500 -697 l544 -759 l-304 0 l-445 624 Z" /><glyph glyph-name="" unicode="&#x49f;" d="M502 473 l-111 0 l0 -473 l-242 0 l0 1211 l-231 0 l0 170 l231 0 l0 155 l242 0 l0 -155 l196 0 l0 -170 l-196 0 l0 -543 l105 0 l271 414 l284 0 l-353 -495 l399 -587 l-282 0 l-313 473 Z" /><glyph glyph-name="" unicode="&#x4b0;" d="M963 516 l-213 0 l0 -516 l-254 0 l0 516 l-202 0 l0 170 l122 0 l-409 770 l281 0 l335 -690 l335 690 l280 0 l-409 -770 l134 0 l0 -170 Z" /><glyph glyph-name="" unicode="&#x4b1;" d="M864 -1 l-220 0 l0 -416 l-243 0 l0 416 l-206 0 l0 170 l162 0 l-325 913 l251 0 l243 -767 l236 767 l251 0 l-324 -913 l175 0 l0 -170 Z" /><glyph glyph-name="" unicode="&#x4fe;" d="M987 661 l-135 0 l405 -661 l-295 0 l-313 534 l-314 -534 l-294 0 l406 661 l-129 0 l0 170 l115 0 l-382 625 l292 0 l306 -526 l306 526 l292 0 l-381 -625 l121 0 l0 -170 Z" /><glyph glyph-name="" unicode="&#x4ff;" d="M855 471 l-149 0 l294 -471 l-268 0 l-216 370 l-215 -370 l-270 0 l293 471 l-138 0 l0 170 l130 0 l-273 441 l268 0 l202 -356 l206 356 l270 0 l-274 -441 l140 0 l0 -170 Z" /></font>
</defs>
</svg>
